<svg width="525" height="519" viewBox="0 0 525 519" fill="none" xmlns="http://www.w3.org/2000/svg">
<rect x="0.504808" y="0.504808" width="523.99" height="517.933" stroke="#D9D9D9" stroke-width="1.00962"/>
<line x1="-4.48212e-08" y1="104.495" x2="525" y2="104.495" stroke="#D9D9D9" stroke-width="1.00962"/>
<line x1="-4.48212e-08" y1="211.495" x2="525" y2="211.495" stroke="#D9D9D9" stroke-width="1.00962"/>
<line x1="-4.48212e-08" y1="312.495" x2="525" y2="312.495" stroke="#D9D9D9" stroke-width="1.00962"/>
<line x1="-4.41317e-08" y1="413.906" x2="524.69" y2="413.906" stroke="#D9D9D9" stroke-width="1.00962"/>
<line x1="105.505" y1="-2.2152e-08" x2="105.505" y2="518.942" stroke="#D9D9D9" stroke-width="1.00962"/>
<line x1="210.505" y1="-2.2152e-08" x2="210.505" y2="518.942" stroke="#D9D9D9" stroke-width="1.00962"/>
<line x1="315.174" y1="0.342041" x2="315.174" y2="519" stroke="#D9D9D9" stroke-width="1.12995"/>
<line x1="420.505" y1="-2.2152e-08" x2="420.505" y2="518.942" stroke="#D9D9D9" stroke-width="1.00962"/>
<rect x="1.01562" y="0.342041" width="104.532" height="104.532" fill="#5D25FE"/>
<path d="M43.6765 50.9573H64.8977V57.616C64.9149 58.5636 64.6925 59.5016 64.2487 60.3528C63.8393 61.1318 63.2036 61.7863 62.415 62.2406C61.554 62.707 60.571 62.9377 59.5775 62.9064H59.2477C58.25 62.9303 57.2657 62.6866 56.4102 62.2039C55.6217 61.7437 54.9864 61.085 54.5766 60.3029C54.1404 59.4625 53.9216 58.5374 53.9381 57.6027V53.5409H43.6765V50.9573ZM56.4209 53.5409V57.3397C56.3784 58.1282 56.6503 58.9032 57.1834 59.5138C57.4459 59.7859 57.7695 59.9999 58.1307 60.1404C58.492 60.2808 58.882 60.3443 59.2725 60.3262H59.5279C59.9218 60.3459 60.3154 60.2832 60.6804 60.1428C61.0453 60.0023 61.3725 59.7874 61.6382 59.5138C62.1742 58.9045 62.4475 58.1288 62.4043 57.3397V53.5409H56.4209Z" fill="white"/>
<path d="M65.2527 73.4121V69.9023H71.2113C71.883 69.9023 72.1685 69.5665 72.1685 68.8142V55.4234C72.126 54.4373 72.453 53.4708 73.0855 52.7131C73.4132 52.3629 73.8137 52.0887 74.2588 51.91C74.7039 51.7313 75.1828 51.6523 75.6617 51.6786H75.7424V51.5342H75.6685C75.1881 51.5596 74.7081 51.4785 74.2627 51.2968C73.8174 51.115 73.4177 50.8371 73.0922 50.483C72.4582 49.726 72.1311 48.7589 72.1753 47.7726V34.3718C72.1753 33.6195 71.8797 33.2836 71.218 33.2836H65.9871V29.7739H72.3566C72.8414 29.7643 73.3231 29.8534 73.7724 30.0359C74.2216 30.2183 74.629 30.4903 74.9698 30.8352C75.3172 31.1824 75.5902 31.5967 75.7721 32.0529C75.954 32.5091 76.0411 32.9976 76.0279 33.4885V47.7155C76.0279 49.0589 76.6996 49.6836 78.1742 49.6836H82.2048V53.5023H78.1742C76.7097 53.5023 76.0279 54.127 76.0279 55.4671V69.6975C76.0411 70.1884 75.954 70.6769 75.7721 71.1331C75.5902 71.5893 75.3172 72.0036 74.9698 72.3507C74.629 72.6957 74.2216 72.9676 73.7724 73.1501C73.3231 73.3325 72.8414 73.4217 72.3566 73.4121H65.2527Z" fill="white"/>
<path d="M43.3388 73.4121V69.9023H37.3802C36.7085 69.9023 36.423 69.5665 36.423 68.8142V55.4234C36.4655 54.4373 36.1385 53.4708 35.506 52.7131C35.1783 52.3629 34.7778 52.0887 34.3327 51.91C33.8876 51.7313 33.4087 51.6523 32.9298 51.6786H32.8491V51.5342H32.923C33.4034 51.5596 33.8834 51.4785 34.3288 51.2968C34.7741 51.115 35.1738 50.8371 35.4993 50.483C36.1333 49.726 36.4604 48.7589 36.4162 47.7726V34.3718C36.4162 33.6195 36.7118 33.2836 37.3735 33.2836H42.6044V29.7739H36.2349C35.7501 29.7643 35.2684 29.8534 34.8191 30.0359C34.3699 30.2183 33.9625 30.4903 33.6217 30.8352C33.2743 31.1824 33.0013 31.5967 32.8194 32.0529C32.6375 32.5091 32.5504 32.9976 32.5636 33.4885V47.7155C32.5636 49.0589 31.8919 49.6836 30.4173 49.6836H26.3867V53.5023H30.4173C31.8818 53.5023 32.5636 54.127 32.5636 55.4671V69.6975C32.5504 70.1884 32.6375 70.6769 32.8194 71.1331C33.0013 71.5893 33.2743 72.0036 33.6217 72.3507C33.9625 72.6957 34.3699 72.9676 34.8191 73.1501C35.2684 73.3325 35.7501 73.4217 36.2349 73.4121H43.3388Z" fill="white"/>
<path d="M53.2058 44.8619C53.2073 44.7711 53.2041 44.68 53.1964 44.5891C53.1632 44.2012 53.0461 43.8236 52.8522 43.4796C52.6584 43.1356 52.3919 42.8323 52.0689 42.5882C51.2462 42.0018 50.2317 41.7028 49.1996 41.7425C47.5586 41.744 45.9747 42.3075 44.7448 43.3273C43.5618 44.3157 42.8343 45.6969 42.716 47.1794H45.0285C45.1294 46.5363 45.4362 45.9372 45.9082 45.4614C46.2981 45.071 46.7957 44.7926 47.3429 44.6554C47.3351 44.7426 47.3311 44.8309 47.3311 44.9201C47.3311 46.5424 48.6464 47.8575 50.2688 47.8575C51.8912 47.8575 53.2064 46.5424 53.2064 44.9201C53.2064 44.9007 53.2062 44.8813 53.2058 44.8619Z" fill="white"/>
<path d="M64.8985 44.9188C64.8985 46.5411 63.5833 47.8562 61.9609 47.8562C60.3385 47.8562 59.0233 46.5411 59.0233 44.9188C59.0233 43.2965 60.3385 41.9814 61.9609 41.9814C63.5833 41.9814 64.8985 43.2965 64.8985 44.9188Z" fill="white"/>
</svg>
