<svg xmlns:xlink="http://www.w3.org/1999/xlink" width="92" height="12" viewBox="0 0 92 12" fill="none" xmlns="http://www.w3.org/2000/svg" class="text-[#1B1A1A]"><g clip-path="url(#clip0_1719_19049)" fill="none"><path d="M66.9621 10.9322C65.5084 10.9322 64.0555 10.9313 62.6018 10.9339C62.5061 10.9339 62.5125 10.8775 62.5125 10.8095C62.5125 9.86998 62.5125 8.92954 62.5117 7.98999C62.5117 5.72095 62.5117 3.4519 62.5117 1.18198C62.5117 1.02495 62.5117 1.02495 62.6517 1.02495C65.3274 1.02495 68.0031 1.02495 70.6788 1.02495C70.7383 1.02495 70.7963 1.0223 70.8526 1.05759C70.9017 1.08847 70.9556 1.05053 71.0062 1.04877C71.2323 1.04083 71.4576 1.06288 71.6828 1.08406C71.8646 1.10082 72.044 1.12552 72.2234 1.1564C72.7753 1.25168 73.3046 1.40606 73.7318 1.83217C74.0343 2.13388 74.2362 2.49559 74.3529 2.92699C74.4261 3.19783 74.4784 3.47043 74.5242 3.74656C74.5468 3.88419 74.5564 4.02446 74.5669 4.16297C74.583 4.38264 74.6031 4.60231 74.6055 4.82198C74.6087 5.16251 74.5838 5.50481 74.5974 5.84446C74.6063 6.06501 74.6063 6.28468 74.6071 6.50435C74.6071 6.75842 74.6079 7.01338 74.5846 7.2657C74.546 7.68474 74.509 8.10468 74.4341 8.5202C74.377 8.83603 74.2966 9.14039 74.1767 9.42975C74.093 9.63178 73.9764 9.81969 73.8348 9.98555C73.5774 10.2864 73.2709 10.5043 72.9088 10.6207C72.7697 10.6657 72.6409 10.7425 72.4921 10.7566C72.1993 10.7848 71.9121 10.8536 71.6193 10.888C71.2323 10.933 70.8461 10.9251 70.46 10.9269C69.2943 10.9304 68.1294 10.9286 66.9637 10.9286V10.9313L66.9621 10.9322ZM67.7055 3.54189C67.7055 3.54189 67.7055 3.53836 67.7055 3.5366C66.9219 3.5366 66.1383 3.53836 65.3556 3.53395C65.2622 3.53395 65.2639 3.58071 65.2639 3.65217C65.2647 5.20397 65.2639 6.7549 65.2639 8.3067C65.2639 8.31729 65.2647 8.32876 65.2639 8.33934C65.2574 8.40904 65.2832 8.43815 65.3499 8.4355C65.4392 8.43198 65.5269 8.41168 65.617 8.4108C67.1592 8.39845 68.7014 8.43903 70.2436 8.39228C70.4262 8.38698 70.6072 8.37463 70.7858 8.33934C70.9918 8.29876 71.1985 8.25553 71.3747 8.11703C71.5935 7.945 71.6852 7.69004 71.752 7.42537C71.8461 7.05308 71.83 6.66668 71.8509 6.28644C71.863 6.05266 71.8558 5.81623 71.8389 5.58068C71.822 5.34777 71.826 5.1131 71.7962 4.87932C71.7608 4.60319 71.7061 4.33676 71.571 4.09415C71.501 3.96888 71.4157 3.86919 71.2983 3.79861C71.0046 3.62305 70.6828 3.57983 70.3562 3.56395C70.2026 3.55601 70.0489 3.54365 69.8953 3.54365C69.1656 3.54189 68.4351 3.54277 67.7055 3.54277V3.54189Z" fill="#1B1A1A"></path><path d="M38.2759 5.96567C38.2759 4.35564 38.2767 2.7456 38.2734 1.13557C38.2734 1.03412 38.3112 1.02441 38.3861 1.02441C39.193 1.02618 39.9999 1.0253 40.8067 1.0253C42.7488 1.0253 44.6908 1.02353 46.6336 1.02794C46.9369 1.02794 47.241 1.04912 47.5435 1.07117C47.8041 1.09058 48.0656 1.10999 48.3166 1.19909C48.9819 1.43552 49.4356 1.89339 49.5796 2.65915C49.6174 2.85853 49.6263 3.06496 49.6496 3.26787C49.6882 3.60841 49.6987 3.95158 49.6971 4.29212C49.6971 4.49767 49.7091 4.70852 49.6737 4.91672C49.6504 5.05788 49.6665 5.20609 49.6536 5.35165C49.6223 5.7063 49.5474 6.04948 49.3745 6.34855C49.261 6.54528 49.0905 6.69967 48.8974 6.81347C48.7092 6.92463 48.508 6.99785 48.3045 7.0649C48.278 7.07372 48.2241 7.06755 48.2305 7.11607C48.2345 7.15048 48.2796 7.13901 48.3085 7.14518C48.6633 7.22193 49.0044 7.32692 49.2546 7.64187C49.4453 7.88095 49.5217 8.16766 49.5474 8.47291C49.611 9.23602 49.6134 10.0009 49.6086 10.7667C49.6078 10.936 49.6086 10.9316 49.4485 10.9316C48.611 10.9307 47.7744 10.929 46.9369 10.9343C46.8387 10.9343 46.8114 10.9069 46.813 10.8019C46.8178 10.4491 46.817 10.0953 46.8114 9.74241C46.8074 9.49362 46.7905 9.24572 46.7116 9.00841C46.6119 8.70846 46.4108 8.54878 46.126 8.49937C45.6682 8.42086 45.2073 8.46232 44.7479 8.45967C43.5629 8.4535 42.3771 8.45879 41.1921 8.45526C41.1044 8.45526 41.0875 8.48614 41.0883 8.57348C41.0907 9.3163 41.0883 10.0591 41.0915 10.8028C41.0915 10.9078 41.0658 10.936 40.9668 10.9352C40.1197 10.9299 39.2726 10.9316 38.4255 10.9316C38.2855 10.9316 38.2767 10.9237 38.2767 10.7737C38.2767 9.17074 38.2767 7.56864 38.2767 5.96567H38.2759ZM43.6232 5.94361C44.4301 5.94361 45.237 5.95773 46.0431 5.9392C46.6457 5.92509 46.8355 5.59602 46.8717 5.05876C46.8935 4.73499 46.8959 4.4068 46.8162 4.08568C46.7591 3.85542 46.6417 3.6781 46.4269 3.61458C46.2861 3.57223 46.1397 3.54136 45.9892 3.54224C44.3859 3.54312 42.7834 3.54224 41.18 3.54136C41.1181 3.54136 41.0948 3.55547 41.0867 3.6287C41.0795 3.6931 41.0915 3.75309 41.0915 3.81484C41.0899 4.40857 41.0907 5.00141 41.0899 5.59514C41.0899 5.64454 41.0867 5.69307 41.0746 5.74423C41.0344 5.90921 41.065 5.9445 41.2235 5.9445C42.0231 5.9445 42.8236 5.9445 43.6232 5.9445V5.94361Z" fill="#1B1A1A"></path><path d="M15.9672 1.02511C17.6116 1.02511 19.2552 1.02511 20.8995 1.02599C21.1103 1.02599 21.0813 0.988937 21.0813 1.23066C21.0813 1.91173 21.0805 2.59279 21.0846 3.27386C21.0846 3.36914 21.0548 3.38855 20.9743 3.38855C18.6003 3.3859 16.2255 3.38678 13.8515 3.3859C13.6262 3.3859 13.6262 3.38414 13.627 3.63204C13.627 3.97786 13.6302 4.32457 13.6238 4.6704C13.6222 4.76215 13.6431 4.78685 13.7284 4.78597C15.7042 4.78332 17.68 4.7842 19.655 4.7842C19.9462 4.7842 20.2374 4.78685 20.5287 4.7842C20.6212 4.78332 20.663 4.80449 20.6622 4.92094C20.6566 5.57643 20.6598 6.23191 20.659 6.88827C20.659 6.94385 20.6807 6.97826 20.5785 6.98002C18.2994 7.01619 16.0211 6.98002 13.7421 6.98972C13.6463 6.98972 13.6206 7.01178 13.6214 7.11853C13.6246 7.5217 13.6407 7.92487 13.6133 8.32715C13.6109 8.36156 13.6359 8.3845 13.6302 8.42596C13.6101 8.5627 13.6149 8.55653 13.7421 8.54859C13.7951 8.54506 13.8507 8.56623 13.907 8.56623C16.2544 8.56623 18.6019 8.56623 20.9494 8.56359C21.0484 8.56359 21.0829 8.58741 21.0821 8.70121C21.0773 9.39286 21.0789 10.0854 21.0789 10.777C21.0789 10.9438 21.0773 10.9482 20.9221 10.9438C19.8947 10.9147 18.8674 10.9332 17.8393 10.9314C15.6503 10.9279 13.4613 10.9314 11.2723 10.9314C11.1589 10.9314 11.0454 10.9403 10.9328 10.9482C10.8709 10.9526 10.8467 10.9235 10.8524 10.8582C10.8548 10.8326 10.8524 10.807 10.8524 10.7815C10.8524 7.57551 10.8524 4.37045 10.8524 1.1645C10.8524 1.02423 10.8524 1.02246 10.9827 1.02246C12.6431 1.02246 14.3044 1.02246 15.9648 1.02246L15.9672 1.02511Z" fill="#1B1A1A"></path><path d="M56.0933 10.9297C54.469 10.9297 52.8456 10.9297 51.2213 10.9297C51.0009 10.9297 50.9993 10.9306 50.9985 10.6862C50.9985 7.50317 50.9985 4.31928 50.9961 1.13627C50.9961 1.04099 51.0251 1.02246 51.1055 1.02246C54.4135 1.02423 57.7224 1.02423 61.0304 1.02511C61.2259 1.02511 61.2058 0.999523 61.2066 1.21919C61.2066 1.88173 61.2066 2.54515 61.2066 3.20769C61.2066 3.3265 61.1505 3.38561 61.0384 3.38502C58.7416 3.38502 56.4448 3.38502 54.1481 3.3859C54.0475 3.3859 53.9469 3.38766 53.8472 3.38414C53.7933 3.38237 53.7708 3.39649 53.7716 3.46177C53.774 3.87729 53.7756 4.29193 53.7716 4.70745C53.7708 4.80185 53.8182 4.79214 53.8721 4.79214C55.1778 4.79214 56.4835 4.79214 57.7899 4.79038C58.7505 4.78949 59.7118 4.78861 60.6724 4.78244C60.7689 4.78244 60.7955 4.8142 60.7866 4.91212C60.7633 5.17855 60.777 5.44498 60.7802 5.71229C60.785 6.11281 60.7834 6.51421 60.7874 6.91474C60.7874 6.97914 60.7649 6.99943 60.7102 6.99325C60.6869 6.99061 60.6635 6.99325 60.6402 6.99325C58.3901 6.99325 56.1399 6.99325 53.8898 6.99061C53.7941 6.99061 53.7691 7.01266 53.7699 7.11941C53.7764 7.56404 53.7756 8.00779 53.7699 8.45243C53.7683 8.55124 53.7933 8.56976 53.8794 8.56888C56.2703 8.56623 58.6612 8.56712 61.0521 8.56535C61.1728 8.56535 61.2106 8.56888 61.209 8.73826C61.2042 9.35405 61.2066 9.96895 61.2074 10.5847C61.2074 10.6862 61.1736 10.7841 61.1857 10.8856C61.1921 10.9376 61.1543 10.9323 61.1253 10.9323C61.0618 10.9323 60.9982 10.9288 60.9347 10.9288C59.3209 10.9288 57.7063 10.9288 56.0925 10.9288L56.0933 10.9297Z" fill="#1B1A1A"></path><path d="M35.4721 4.63254C35.0505 4.63254 34.6282 4.6299 34.2066 4.63431C34.1221 4.63431 34.0964 4.60784 34.098 4.51698C34.102 4.35906 34.0819 4.20026 34.0505 4.04676C33.9902 3.75122 33.8719 3.67888 33.633 3.62594C33.4021 3.57478 33.1696 3.55625 32.9355 3.53508C32.7215 3.51567 32.5091 3.47244 32.2944 3.47597C31.7618 3.48567 31.23 3.43186 30.6967 3.45656C30.4255 3.46891 30.1544 3.46891 29.8841 3.47773C29.6074 3.48656 29.3282 3.51831 29.0611 3.5933C28.8093 3.66476 28.6364 3.86502 28.5358 4.13233C28.4497 4.35994 28.4184 4.59902 28.3926 4.83986C28.325 5.46535 28.3242 6.09348 28.3355 6.72073C28.3411 7.03833 28.3532 7.36122 28.4393 7.66558C28.5069 7.90289 28.6074 8.13756 28.8294 8.26284C29.0571 8.39164 29.2977 8.45604 29.5559 8.48515C30.2325 8.56191 30.9098 8.50986 31.5864 8.51603C32.0329 8.52044 32.481 8.51603 32.9275 8.49486C33.1479 8.48427 33.374 8.5125 33.5896 8.43575C33.7038 8.39517 33.8357 8.38811 33.9266 8.29901C34.0449 8.18344 34.1205 8.03611 34.1632 7.86143C34.2179 7.64088 34.2404 7.41944 34.2396 7.1936C34.2396 7.10979 34.2637 7.07891 34.3442 7.07891C35.1945 7.08156 36.0448 7.08156 36.896 7.07891C36.9652 7.07891 36.9853 7.11067 36.9869 7.1689C36.9909 7.31093 36.9925 7.45297 36.9925 7.595C36.9933 7.81379 36.9973 8.03258 36.9925 8.25049C36.9829 8.68894 36.9258 9.12299 36.7826 9.53145C36.641 9.93551 36.3731 10.239 36.0191 10.4437C35.7174 10.6175 35.3996 10.7321 35.0594 10.7771C34.8695 10.8027 34.6829 10.8486 34.4938 10.8786C34.4053 10.8927 34.3144 10.8936 34.2243 10.8953C33.8406 10.9051 33.4576 10.9342 33.0739 10.9333C31.8149 10.928 30.5559 10.9377 29.2969 10.9236C28.9807 10.9201 28.6597 10.9227 28.3484 10.8751C28.0081 10.823 27.663 10.7939 27.3283 10.6942C26.9172 10.5716 26.5383 10.3943 26.2398 10.0511C25.9969 9.77141 25.8585 9.43441 25.7813 9.06388C25.729 8.81157 25.7016 8.55573 25.6815 8.29813C25.5978 7.22095 25.626 6.14112 25.6244 5.06218C25.6244 4.80899 25.6332 4.55491 25.6469 4.3026C25.659 4.07852 25.6638 3.85355 25.6984 3.62859C25.7209 3.47773 25.7217 3.31805 25.7443 3.16367C25.7885 2.86107 25.8794 2.57611 26.0178 2.30881C26.3364 1.69567 26.8681 1.43718 27.4634 1.29338C27.7072 1.23427 27.9566 1.20693 28.206 1.17781C28.5881 1.13282 28.9718 1.11606 29.3548 1.09224C29.6774 1.07195 30 1.06048 30.3234 1.04901C31.193 1.01813 32.0627 1.0296 32.9315 1.03137C33.2573 1.03225 33.5847 1.0446 33.9081 1.08077C34.057 1.09753 34.205 1.09136 34.3538 1.10724C34.7134 1.14694 35.0666 1.20516 35.4149 1.31014C35.8912 1.45306 36.2653 1.74243 36.5195 2.20735C36.6506 2.44731 36.7053 2.7155 36.7496 2.98546C36.8155 3.38687 36.822 3.79445 36.8501 4.19938C36.859 4.32465 36.8373 4.45169 36.8324 4.57873C36.8292 4.65901 36.7753 4.63519 36.7375 4.63519C36.316 4.63696 35.8936 4.63519 35.4721 4.63519V4.63254Z" fill="#1B1A1A"></path><path d="M4.94305 1.02712C6.51661 1.02712 8.09018 1.028 9.66375 1.02447C9.76672 1.02447 9.79166 1.05535 9.79085 1.16563C9.78603 1.87228 9.78683 2.57893 9.78924 3.28558C9.78924 3.36939 9.76431 3.38968 9.6911 3.38968C7.46751 3.38703 5.24473 3.38791 3.02114 3.3835C2.91254 3.3835 2.89243 3.41791 2.89323 3.5273C2.89806 4.0628 2.89806 4.5983 2.89323 5.1338C2.89323 5.22379 2.91173 5.24673 2.9962 5.24673C5.0959 5.24408 7.1956 5.24408 9.29449 5.24408C9.46343 5.24408 9.46584 5.24408 9.46584 5.43728C9.46665 6.02748 9.46584 6.61768 9.46584 7.207C9.46584 7.28375 9.46584 7.35962 9.46584 7.43637C9.46504 7.53429 9.43125 7.56253 9.33954 7.54576C9.3138 7.54135 9.28644 7.53959 9.2599 7.53959C7.17388 7.53959 5.08866 7.53959 3.00264 7.53694C2.9061 7.53694 2.89403 7.58987 2.89403 7.6728C2.89484 8.68558 2.89403 9.69835 2.89403 10.7102C2.89403 10.7711 2.89001 10.8267 2.86025 10.8849C2.84094 10.9246 2.82968 10.9343 2.79026 10.9343C2.04692 10.9317 1.30438 10.9299 0.561038 10.9308C0.437952 10.9308 0.314062 10.9387 0.190976 10.9484C0.129835 10.9529 0.10731 10.9308 0.10731 10.8646C0.10731 10.7261 0.100874 10.5876 0.100874 10.45C0.100874 7.34286 0.100874 4.2366 0.0976562 1.12946C0.0976562 1.01212 0.152361 1.02271 0.220742 1.02271C1.79431 1.02271 3.36787 1.02271 4.94144 1.02271V1.02447L4.94305 1.02712Z" fill="#1B1A1A"></path><path d="M85.559 1.02667C87.3241 1.02667 89.0883 1.02667 90.8533 1.0249C90.9507 1.0249 91.0448 1.0699 91.147 1.03372C91.1944 1.01696 91.2379 1.06107 91.2371 1.13871C91.2314 1.77213 91.2306 2.40644 91.2282 3.03987C91.2282 3.18543 91.2226 3.331 91.2282 3.47656C91.2314 3.56037 91.2121 3.58596 91.1309 3.58507C90.6385 3.58066 90.1462 3.58243 89.6538 3.58243C88.8638 3.58243 88.073 3.58419 87.283 3.57978C87.1841 3.57978 87.164 3.61154 87.164 3.71388C87.1664 6.0235 87.1664 8.33224 87.1656 10.6419C87.1656 10.7239 87.1503 10.806 87.1471 10.8889C87.1447 10.9427 87.1101 10.933 87.0835 10.933C87.0063 10.9339 86.9299 10.9303 86.8526 10.9303C86.0023 10.9303 85.152 10.9303 84.3008 10.9356C84.2123 10.9356 84.2139 10.8871 84.2139 10.8201C84.2139 9.7676 84.2139 8.71512 84.2139 7.66264C84.2139 6.35521 84.2139 5.04778 84.2139 3.74034C84.2139 3.63683 84.1649 3.58507 84.0667 3.58507C82.8077 3.58507 81.5487 3.58419 80.2897 3.58684C80.1481 3.58684 80.1336 3.5542 80.1336 3.42275C80.136 2.66846 80.1368 1.91505 80.1328 1.16076C80.1328 1.05137 80.1634 1.02931 80.2567 1.02931C82.025 1.03196 83.7924 1.03108 85.5606 1.03108V1.02931L85.559 1.02667Z" fill="#1B1A1A"></path><path d="M78.8496 5.9895C78.8496 7.59512 78.8488 9.20163 78.852 10.8072C78.852 10.9158 78.8263 10.9343 78.7298 10.9343C77.8328 10.9299 76.9358 10.9299 76.038 10.9352C75.9406 10.9352 75.9133 10.9096 75.9141 10.8037C75.9165 7.58454 75.9157 4.36536 75.9141 1.14706C75.9141 1.06325 75.9261 1.02355 76.0179 1.02443C76.9149 1.02884 77.8119 1.02796 78.7097 1.02884C78.8504 1.02884 78.8504 1.02972 78.8504 1.18411C78.8504 2.7862 78.8504 4.38829 78.8504 5.99039L78.8496 5.9895Z" fill="#1B1A1A"></path></g><defs><clipPath id="clip0_1719_19049"><rect width="91.3087" height="10.1454" fill="white" transform="translate(0 0.870605)"></rect></clipPath></defs></svg>