<svg xmlns:xlink="http://www.w3.org/1999/xlink" width="93" height="20" viewBox="0 0 93 20" fill="none" xmlns="http://www.w3.org/2000/svg" class="text-[#1B1A1A]"><g clip-path="url(#clip0_1719_19186)" fill="none"><path d="M20.5752 0.63623C20.604 1.36786 20.6327 2.06119 20.6595 2.75644C20.7246 4.50891 20.7898 6.26138 20.8549 8.01386C20.9181 9.67248 20.9813 11.3292 21.0445 12.9878C21.1096 14.702 21.1728 16.4142 21.236 18.1284C21.2475 18.4444 21.2647 18.7585 21.282 19.0746C21.2896 19.2105 21.2284 19.2488 21.0962 19.2488C19.2326 19.2373 17.3691 19.2393 15.5074 19.222C13.3259 19.201 11.1444 19.1665 8.96295 19.132C7.07641 19.1033 5.18987 19.065 3.30332 19.0305C2.58701 19.0171 1.8707 18.9999 1.15439 18.9941C0.962861 18.9941 0.91498 18.9271 0.922641 18.7413C0.982014 17.2167 1.03181 15.6922 1.08161 14.1676C1.13141 12.6277 1.17163 11.0879 1.22717 9.54799C1.26164 8.63249 1.31336 7.71699 1.37081 6.80149C1.38039 6.64827 1.43785 6.49313 1.50105 6.3514C2.15608 4.87856 2.82451 3.41146 3.46421 1.93287C3.57146 1.6858 3.68638 1.58046 3.95643 1.56897C4.9811 1.52492 6.00769 1.46363 7.03236 1.40234C8.47073 1.31615 9.90718 1.22039 11.3436 1.13612C12.1538 1.08823 12.9659 1.06717 13.776 1.0212C15.1895 0.938843 16.603 0.841165 18.0164 0.758808C18.8572 0.709011 19.698 0.676451 20.5733 0.63623H20.5752Z" fill="#1B1A1A"></path><path d="M92.2286 19.2259C90.8458 19.2259 89.4936 19.224 88.1414 19.2278C87.9422 19.2278 87.8905 19.1148 87.8426 18.9578C87.4327 17.5826 87.0191 16.2074 86.6054 14.8323C86.5172 14.5399 86.3219 14.3937 86.0193 14.3937C83.8608 14.3937 81.7042 14.3975 79.5457 14.3879C79.3254 14.3879 79.2507 14.4626 79.1952 14.6561C78.7719 16.1021 78.3352 17.5443 77.9062 18.9884C77.8602 19.1416 77.7913 19.2278 77.6093 19.2278C76.2954 19.2221 74.9816 19.2278 73.6677 19.2278C73.637 19.2278 73.6064 19.2201 73.5547 19.2144C73.5681 19.1569 73.5738 19.1052 73.5911 19.0554C74.8992 15.3839 76.2073 11.7123 77.5193 8.04071C78.3793 5.63321 79.245 3.22763 80.1049 0.820134C80.1528 0.687981 80.216 0.638184 80.3616 0.638184C82.0183 0.643929 83.675 0.643929 85.3298 0.638184C85.552 0.638184 85.6343 0.726286 85.7071 0.935051C86.0997 2.08421 86.5172 3.22572 86.9271 4.37105C88.1108 7.67681 89.2925 10.9845 90.4761 14.2902C91.0373 15.8569 91.6023 17.4236 92.1635 18.9922C92.1884 19.0631 92.2037 19.1378 92.2286 19.2278V19.2259ZM85.6113 11.7812C85.5596 11.6108 85.5136 11.4614 85.4696 11.312C84.692 8.63827 83.9125 5.96647 83.1349 3.29275C83.1004 3.17209 83.0717 3.04568 83.0142 2.93459C82.9797 2.86756 82.8955 2.82542 82.8342 2.7718C82.7901 2.83117 82.7269 2.88288 82.7078 2.94992C82.6484 3.14527 82.6158 3.35021 82.5584 3.54557C81.8938 5.84006 81.2273 8.13456 80.5608 10.4291C80.4305 10.8734 80.2926 11.3139 80.149 11.7812H85.6113Z" fill="#1B1A1A"></path><path d="M29.3509 16.7223H38.6265C38.6265 16.8411 38.6265 16.933 38.6265 17.025C38.6265 17.6895 38.6265 18.3522 38.6285 19.0168C38.6285 19.1528 38.617 19.2352 38.4388 19.2333C34.1391 19.2275 29.8393 19.2294 25.5395 19.2275C25.4859 19.2275 25.4322 19.2199 25.3633 19.2141C25.3633 19.0628 25.3633 18.923 25.3633 18.7832C25.3633 12.886 25.3652 6.99084 25.3671 1.09372C25.3671 0.643631 25.3671 0.647462 25.8306 0.647462C29.9312 0.647462 34.0318 0.647462 38.1343 0.647462C38.1956 0.647462 38.2588 0.647462 38.345 0.647462V3.22159C38.2626 3.22159 38.1707 3.22159 38.0788 3.22159C35.2365 3.21776 32.3942 3.21584 29.5501 3.20626C29.3739 3.20626 29.3375 3.26755 29.3375 3.42652C29.3432 4.96065 29.3432 6.49287 29.349 8.027C29.349 8.41772 29.3566 8.4158 29.7569 8.4158C31.812 8.41389 33.8652 8.41197 35.9203 8.41006C35.9509 8.41006 35.9816 8.41772 36.0467 8.4273C36.0467 8.50391 36.0467 8.5786 36.0467 8.65521C36.0467 9.35046 36.0352 10.0457 36.0467 10.7409C36.0505 10.9459 35.9854 10.9918 35.7919 10.9899C33.7464 10.9823 31.699 10.9823 29.6516 10.9823C29.5577 10.9823 29.4639 10.9823 29.349 10.9823V16.7262L29.3509 16.7223Z" fill="#1B1A1A"></path><path d="M71.7009 13.6601C71.4864 14.2155 71.3236 14.7537 71.0785 15.2497C69.8469 17.7453 67.8148 19.1799 65.0511 19.5419C63.3982 19.7583 61.7645 19.6146 60.2016 18.9673C58.158 18.1207 56.8403 16.6115 56.1164 14.5602C55.5016 12.8193 55.3541 11.017 55.4211 9.18981C55.4728 7.82422 55.6969 6.49119 56.2064 5.21371C57.2176 2.67597 59.0908 1.12652 61.7473 0.507885C63.5131 0.0980165 65.2771 0.163136 66.9913 0.760701C69.28 1.55745 70.6628 3.19884 71.3045 5.48951C71.3523 5.66188 71.3887 5.83809 71.4366 6.03536C70.9367 6.08707 70.4656 6.13878 69.9925 6.18284C69.2168 6.25562 68.4392 6.31882 67.6635 6.39352C67.495 6.41075 67.4337 6.35329 67.3801 6.19433C67.2039 5.6638 67.0392 5.12752 66.8074 4.62189C66.1639 3.21608 64.7064 2.68938 63.3676 2.88282C61.6055 3.13564 60.6498 4.27331 60.0905 5.82659C59.6903 6.93554 59.5485 8.09619 59.516 9.26834C59.4719 10.7508 59.516 12.2236 59.9392 13.6601C60.2246 14.6273 60.6421 15.5217 61.4217 16.2074C61.9809 16.6996 62.6283 17.0137 63.3772 17.0443C65.461 17.1267 66.7672 16.1729 67.3801 14.137C67.4567 13.8822 67.5026 13.616 67.5333 13.3517C67.5563 13.1717 67.6693 13.2023 67.7746 13.2138C68.1615 13.254 68.5484 13.3038 68.9353 13.3479C69.8278 13.4494 70.7203 13.549 71.7028 13.6581L71.7009 13.6601Z" fill="#1B1A1A"></path><path d="M46.2632 16.6747H54.1541V19.222H42.2852V0.638108C42.4154 0.638108 42.538 0.638108 42.6625 0.638108C43.7848 0.638108 44.9072 0.641938 46.0295 0.634277C46.2 0.634277 46.267 0.668752 46.267 0.854534C46.2632 5.80934 46.2632 10.7641 46.2651 15.7209C46.2651 16.0273 46.2651 16.3318 46.2651 16.6728L46.2632 16.6747Z" fill="#1B1A1A"></path></g><defs><clipPath id="clip0_1719_19186"><rect width="91.3087" height="19.3883" fill="white" transform="translate(0.921875 0.249512)"></rect></clipPath></defs></svg>