<svg xmlns:xlink="http://www.w3.org/1999/xlink" width="134" height="22" viewBox="0 0 134 22" fill="none" xmlns="http://www.w3.org/2000/svg" class="text-[#1B1A1A]"><g clip-path="url(#clip0_1719_19228)" fill="none"><mask id="mask0_1719_19228" maskUnits="userSpaceOnUse" x="0" y="0" width="134" height="22" style="mask-type: luminance;" fill="none"><path d="M133.143 0.236328H0.238281V21.5417H133.143V0.236328Z" fill="#FFFFFF"></path></mask><g mask="url(#mask0_1719_19228)" fill="none"><path d="M69.6593 1.87624C69.6593 1.87624 68.3821 2.38351 66.8974 4.01474C65.4067 5.65193 64.5467 7.48208 65.1872 7.96747C65.4327 8.15247 65.9994 8.1843 67.0291 7.26127C67.8334 6.54313 68.6515 5.6002 69.2063 4.25146C69.8708 2.63615 69.6593 1.89415 69.6593 1.87624ZM77.7872 4.81244C76.1369 3.96898 74.9316 2.93853 73.6764 2.29599C72.479 1.68328 71.7048 1.42666 70.7369 1.55597C70.5773 1.57785 70.3378 1.65543 70.3378 1.65543C70.3378 1.65543 70.8367 3.3523 68.8531 6.20495C66.8436 9.09341 65.0216 9.07749 64.5028 8.27979C63.96 7.44229 64.6604 5.73349 65.8298 4.21367C67.0551 2.62422 69.2083 1.30532 69.2083 1.30532C69.2083 1.30532 68.5218 0.887564 66.8356 1.84044C65.1932 2.76546 62.3575 4.97358 59.7353 8.69754C57.1152 12.4215 56.5883 14.4705 56.2112 16.0838C55.832 17.6971 56.1772 19.4238 57.9713 19.4238C59.7673 19.4258 61.8546 16.6965 62.4433 15.7476C63.5389 13.9811 64.2533 11.2717 62.7626 11.6437C62.0282 11.8267 61.4336 12.6383 61.0584 13.4181C60.6733 14.2198 60.5176 14.9857 60.5176 14.9857C60.5176 14.9857 59.897 15.2065 59.0628 15.8292C58.2287 16.4498 57.6839 17.0446 57.6839 17.0446C57.6839 17.0446 57.6899 15.7556 58.7216 13.6688C59.7533 11.582 61.6451 10.6291 62.7167 10.5396C63.6826 10.462 64.9398 11.2796 63.8741 14.2974C62.8105 17.3152 59.6675 20.9755 56.3648 21.0212C53.3176 21.063 51.324 17.1859 55.5646 10.4242C60.2562 2.9445 65.7639 0.650838 67.552 0.396208C69.34 0.141578 69.9207 0.92735 69.9207 0.92735C69.9207 0.92735 71.4194 0.239054 73.3192 0.368358C75.5023 0.515566 77.1906 2.05528 79.4176 3.13746C78.8389 3.69247 78.2861 4.26937 77.7872 4.81244ZM87.5935 2.29599C86.0808 3.26278 83.9875 4.14006 81.9759 3.9471C81.4671 4.47227 80.9223 5.07901 80.3755 5.74144C83.8638 6.42974 86.919 4.27533 88.5434 2.4412C89.5591 1.29736 90.06 0.274861 90.06 0.274861C90.06 0.274861 89.0901 1.33714 87.5935 2.29599ZM82.9498 12.0913C82.9937 12.0137 83.0136 11.9461 83.0136 11.9461C83.0136 11.9461 82.9737 11.6536 82.6943 11.6417C82.3631 11.6258 81.9081 11.6894 80.7207 13.0004C79.5374 14.3054 78.819 15.4393 78.1943 16.5732C77.5139 17.8125 77.2385 18.7355 77.6296 18.9742C77.7394 19.0419 77.905 19.0498 78.0407 19.016C78.3061 18.9524 78.6054 18.7057 79.0624 18.1785C79.2759 17.9318 79.5134 17.5817 79.7968 17.1938C80.583 16.1276 82.5586 12.7696 82.9498 12.0913ZM70.6052 13.5176C70.8028 13.0004 71.0562 11.9858 70.5314 11.588C69.9666 11.1643 68.5298 12.1569 68.5218 13.1754C68.5118 14.2178 69.5336 14.6893 69.779 14.7549C69.9187 14.7927 69.9666 14.7868 70.0345 14.6754C70.0764 14.6018 70.4056 14.0368 70.6052 13.5176ZM69.5176 15.4134C69.4797 15.4015 69.0147 15.1886 68.5298 14.7848C68.0469 14.3829 67.8034 13.9234 67.7855 13.8876C67.7655 13.8538 67.7456 13.8797 67.7236 13.9095C67.7016 13.9393 67.6158 14.0149 66.8456 15.1389C66.0773 16.2628 64.9019 18.5784 65.9675 18.9742C66.65 19.2269 67.7855 18.0353 68.4081 17.2455C68.9828 16.5115 69.5216 15.5785 69.5515 15.5109C69.5835 15.4432 69.5555 15.4273 69.5176 15.4134ZM81.6028 18.093C81.3134 18.5545 80.9841 19.4397 81.94 18.8887C83.1034 18.2183 84.7618 15.7118 84.7618 15.7118H85.5121C85.5121 15.7118 84.5223 17.2694 83.2332 18.6918C82.0538 19.9947 80.615 21.1784 79.6012 21.061C78.4178 20.9237 78.789 19.3741 78.789 19.3741C78.789 19.3741 77.0888 21.1724 75.9214 21.0431C74.3389 20.868 74.8218 18.9185 74.8218 18.9185C74.8218 18.9185 73.0318 21.1127 71.8125 21.0411C69.9008 20.9317 70.3817 18.6062 70.9125 16.979C71.1979 16.1057 71.4613 15.4194 71.4613 15.4194C71.4613 15.4194 71.2717 15.4691 70.8646 15.5288C70.6511 15.5586 70.264 15.5805 70.264 15.5805C70.264 15.5805 69.4677 16.981 68.8311 17.8224C68.1945 18.6659 65.4866 21.5643 63.8941 20.9834C62.4214 20.4463 62.9083 18.1984 63.7664 16.412C65.0176 13.808 68.5378 10.0662 70.5673 10.5575C72.6726 11.0668 70.6152 14.8942 70.6152 14.8942C70.6152 14.8942 70.6152 14.9081 70.6371 14.9181C70.679 14.934 70.7888 14.9459 71.0422 14.8962C71.4473 14.8186 71.8125 14.6674 71.8125 14.6674C71.8125 14.6674 73.9278 10.2512 76.2646 7.36272C78.6014 4.47426 83.2631 -0.498975 85.093 0.704549C85.54 1.00095 85.3365 2.01947 84.7338 3.25681C84.4664 3.34037 84.191 3.41397 83.9077 3.47166C84.3108 2.74159 84.5782 2.1269 84.658 1.69721C84.9334 0.205236 81.4371 3.35031 78.9387 6.73609C76.4402 10.1219 74.9396 13.1874 74.9396 13.1874C74.9396 13.1874 75.4425 12.9029 76.2287 12.2723C77.0489 11.6138 78.1784 10.5814 79.4017 9.32019C80.2258 8.47076 81.1957 7.4045 82.1017 6.21291C82.3731 6.19898 82.6385 6.17312 82.8959 6.13135C81.8841 7.48805 80.8205 8.72738 79.9165 9.64046C78.9227 10.6451 77.8411 11.7252 76.9032 12.513C75.4105 13.7623 74.2611 14.4705 74.2611 14.4705C74.2611 14.4705 72.0759 18.8628 73.2653 19.1453C73.9637 19.3124 75.3447 17.1938 75.3447 17.1938C75.3447 17.1938 77.1447 14.4546 78.2303 13.2232C79.711 11.5442 80.9861 10.5754 82.2593 10.5555C83.0017 10.5416 83.4387 11.3314 83.4387 11.3314L83.7879 10.7923H85.9371C85.9371 10.7923 81.9241 17.5817 81.6028 18.093ZM87.5935 2.29599C86.0808 3.26278 83.9875 4.14006 81.9759 3.9471C81.4671 4.47227 80.9223 5.07901 80.3755 5.74144C83.8638 6.42974 86.919 4.27533 88.5434 2.4412C89.5591 1.29736 90.06 0.274861 90.06 0.274861C90.06 0.274861 89.0901 1.33714 87.5935 2.29599ZM57.4185 5.62607H55.375L54.2196 7.48606H56.2631L57.4185 5.62607ZM47.742 12.0674C48.612 10.8798 51.0107 6.7162 51.0107 6.7162C51.0107 6.7162 50.9708 6.42377 50.6914 6.41184C50.3602 6.39592 49.8094 6.50732 48.7058 7.87994C47.6023 9.25056 46.7522 10.3447 46.1296 11.4806C45.4471 12.7199 45.1497 13.5952 45.5409 13.8319C45.6506 13.8976 45.8163 13.9075 45.952 13.8737C46.2074 13.81 46.5406 13.5554 46.9976 13.0302C47.2132 12.7855 47.4566 12.4553 47.742 12.0674ZM36.7763 6.4377C36.2116 6.01199 34.7748 7.00664 34.7668 8.02317C34.7588 9.06556 36.0639 9.36395 36.2335 9.37191C36.2335 9.37191 36.3812 9.4117 36.4391 9.28836C36.475 9.21078 36.6526 8.88453 36.8522 8.36732C37.0497 7.8501 37.3012 6.83556 36.7763 6.4377ZM35.9242 10.0284C35.8863 10.0145 35.3455 9.85929 34.8167 9.52111C34.2879 9.18492 34.0444 8.68361 34.0264 8.64781C34.0065 8.61399 33.9845 8.63985 33.9646 8.66969C33.9426 8.69953 33.8289 8.84276 33.0606 9.96671C32.2923 11.0887 31.1528 13.3903 32.2204 13.7842C32.9029 14.0368 34.0504 12.8412 34.671 12.0515C35.2457 11.3174 35.9322 10.1895 35.9621 10.1239C35.9881 10.0562 35.9621 10.0403 35.9242 10.0284ZM52.6211 10.7207H53.3695C53.3695 10.7207 49.6178 16.1256 47.4965 15.8789C46.3132 15.7416 46.6644 14.2855 46.6644 14.2855C46.6644 14.2855 44.9981 16.225 43.4774 15.8371C42.0925 15.483 42.9865 13.1894 42.9865 13.1894C42.8289 13.253 39.8335 16.6189 37.7282 15.8113C35.5251 14.9638 36.6686 12.145 37.0876 11.2975C37.4428 10.5834 37.836 9.88714 37.836 9.88714C37.836 9.88714 37.4987 9.98262 37.2872 10.0304C37.0777 10.0781 36.7584 10.1398 36.7584 10.1398C36.7584 10.1398 35.7167 11.8287 35.0801 12.6702C34.4435 13.5136 31.7355 16.408 30.1411 15.8312C28.5466 15.2523 28.9417 13.0302 29.8377 11.2637C31.2905 8.39914 34.7389 4.87809 36.8142 5.40724C38.9116 5.94037 37.1754 9.33212 37.1754 9.33212C37.1754 9.33212 37.5925 9.38583 38.5923 8.70549C40.0351 7.72676 41.9329 5.09293 43.9903 5.40128C44.9562 5.54649 45.8562 6.53517 44.6249 8.41108C44.2298 9.01384 43.5692 9.55294 43.0624 9.0198C42.7471 8.69157 43.0225 8.08484 43.3537 7.67106C43.8207 7.08422 44.4653 7.16578 44.4653 7.16578C44.4653 7.16578 44.8045 6.38797 43.9404 6.40388C43.24 6.41781 41.4679 8.04306 40.4681 9.68622C39.5502 11.1941 38.1613 13.7643 39.5562 14.3253C40.8353 14.8405 43.2699 11.96 44.3974 10.4501C45.5249 8.94222 48.0912 5.51864 50.2464 5.38138C50.9888 5.33364 51.4298 6.00801 51.4298 6.00801L51.6792 5.61413H53.8305C53.8305 5.61413 49.7715 12.3678 49.4542 12.879C49.2047 13.2789 48.8735 14.178 49.7914 13.6748C50.7134 13.1695 52.6211 10.7207 52.6211 10.7207ZM51.4477 21.5424C49.8194 20.3986 47.8338 19.8953 46.0318 19.9669C44.2078 20.0385 43.3896 21.3952 43.3896 21.3952C42.5675 19.9649 40.9431 19.0876 38.4307 19.1075C34.3717 19.1533 30.3426 21.0192 27.1557 21.0172C24.0945 21.0153 21.8654 19.0996 21.9393 15.6959C22.071 9.72799 27.1317 4.35292 30.9133 1.93393C33.0865 0.543416 34.9065 0.131632 36.0978 0.264914C36.9659 0.360401 38.0096 1.36102 37.3511 2.83508C36.3832 4.99347 35.0462 4.81244 35.0961 3.78199C35.124 3.1116 35.571 2.68987 35.9083 2.45911C36.1218 2.3119 36.4989 2.27012 36.6965 2.26615C36.8881 2.10501 37.0338 0.92536 35.4772 1.31327C33.9187 1.70119 32.0448 3.22499 30.2568 5.19041C28.4688 7.15384 25.687 10.8798 24.9985 14.7868C24.6772 16.599 24.8907 19.9032 29.1972 19.8674C32.8471 19.8376 38.2391 17.4425 43.1901 17.4882C45.1118 17.5061 46.7841 18.0234 48.0872 18.825C49.3684 19.6108 50.903 20.7586 51.4477 21.5424Z" fill="#1B1A1A"></path></g><path d="M12.2875 13.8031H16.6079L16.4662 12.8263H13.415V11.6387H15.4705V10.654H13.415V9.6375H16.3944L16.5381 8.66075H12.2895V13.8031H12.2875ZM5.9037 13.7991H7.0272V11.5214H9.66534V13.7991H10.7888L10.7928 8.65677H9.66734V10.5207H7.03119V8.65479H5.90769L5.9037 13.7971V13.7991ZM0.238281 9.66137H1.95846L1.95647 13.7971H3.08197V9.66137H4.80414V8.65479H0.238281V9.66137Z" fill="#1B1A1A"></path><mask id="mask1_1719_19228" maskUnits="userSpaceOnUse" x="0" y="0" width="134" height="22" style="mask-type: luminance;" fill="none"><path d="M133.143 0.236328H0.238281V21.5417H133.143V0.236328Z" fill="#FFFFFF"></path></mask><g mask="url(#mask1_1719_19228)" fill="none"><path d="M133.144 8.67104H131.905L130.556 11.0761L129.189 8.66905H127.922L129.983 12.1066V13.8134H131.107V12.0847L133.144 8.67104ZM125.936 8.66706V12.1523L123.466 8.66508H122.3V13.8074H123.394V10.2645L125.9 13.8074H127.032V8.66508H125.936V8.66706ZM117.804 11.6908L118.572 9.65574L119.339 11.6928H117.804V11.6908ZM120.131 13.8054H121.314L119.269 8.66309H117.886L115.832 13.8034H117.008L117.437 12.6616H119.702L120.131 13.8054ZM113.979 10.9309H112.482V9.65177H113.979C114.202 9.65177 114.378 9.70747 114.501 9.81688C114.625 9.92629 114.687 10.0834 114.687 10.2883C114.687 10.4932 114.625 10.6524 114.499 10.7618C114.378 10.8752 114.202 10.9309 113.979 10.9309ZM114.009 8.6611H111.356L111.354 13.8014H112.48V11.9235H114.009C114.4 11.9235 114.733 11.8519 115.004 11.7107C115.276 11.5675 115.481 11.3725 115.619 11.1258C115.759 10.8792 115.826 10.6007 115.826 10.2903C115.826 9.98 115.759 9.7015 115.619 9.45284C115.481 9.20616 115.276 9.01121 115.004 8.87196C114.733 8.73072 114.4 8.6611 114.009 8.6611ZM109.86 8.65712H108.349L106.834 12.2279L105.29 8.65513H103.779V13.7975H104.867V10.1193L106.435 13.7258H107.188L108.772 10.0258V13.7975H109.86V8.65712ZM99.7981 12.8724C99.4928 12.8724 99.2194 12.8028 98.9779 12.6616C98.7364 12.5203 98.5469 12.3254 98.4112 12.0747C98.2755 11.8241 98.2076 11.5416 98.2076 11.2213C98.2076 10.901 98.2755 10.6166 98.4132 10.3679C98.5489 10.1173 98.7384 9.92231 98.9799 9.78306C99.2194 9.64381 99.4928 9.57219 99.8001 9.57219C100.107 9.57219 100.379 9.64381 100.62 9.78306C100.862 9.9243 101.051 10.1173 101.185 10.3699C101.321 10.6186 101.389 10.905 101.389 11.2233C101.389 11.5416 101.321 11.8261 101.185 12.0767C101.049 12.3274 100.86 12.5223 100.618 12.6616C100.379 12.8048 100.105 12.8724 99.7981 12.8724ZM99.7981 13.887C100.329 13.887 100.804 13.7736 101.221 13.5488C101.64 13.322 101.965 13.0077 102.203 12.6019C102.438 12.1981 102.558 11.7385 102.558 11.2253C102.558 10.7121 102.44 10.2525 102.205 9.84672C101.969 9.44289 101.642 9.12659 101.223 8.89981C100.806 8.67303 100.331 8.55964 99.8001 8.55964C99.2693 8.55964 98.7963 8.67303 98.3772 8.89782C97.9582 9.1246 97.6309 9.4409 97.3954 9.84473C97.1579 10.2505 97.0402 10.7081 97.0402 11.2233C97.0402 11.7385 97.1579 12.1961 97.3954 12.6019C97.6309 13.0077 97.9582 13.322 98.3752 13.5488C98.7963 13.7736 99.2673 13.887 99.7981 13.887ZM94.3821 13.885C94.8032 13.885 95.1943 13.8173 95.5615 13.6821C95.9267 13.5468 96.226 13.3439 96.4615 13.0714L95.759 12.3075C95.3859 12.6835 94.9369 12.8704 94.4061 12.8704C94.0708 12.8704 93.7695 12.7988 93.5001 12.6516C93.2287 12.5064 93.0211 12.3095 92.8695 12.0588C92.7198 11.8082 92.644 11.5277 92.644 11.2193C92.644 10.911 92.7198 10.6305 92.8735 10.3798C93.0251 10.1292 93.2347 9.93226 93.5001 9.78704C93.7655 9.64182 94.0628 9.56822 94.3921 9.56822C94.6455 9.56822 94.881 9.61596 95.0985 9.70747C95.316 9.80096 95.5256 9.94817 95.7251 10.1491L96.4276 9.37127C96.1981 9.10471 95.9047 8.9018 95.5435 8.76454C95.1823 8.62529 94.7892 8.55566 94.3641 8.55566C93.8154 8.55566 93.3205 8.67104 92.8814 8.9018C92.4424 9.13256 92.0972 9.45085 91.8497 9.85865C91.6003 10.2665 91.4766 10.72 91.4766 11.2193C91.4766 11.7186 91.6003 12.1722 91.8477 12.58C92.0952 12.9858 92.4404 13.3061 92.8814 13.5369C93.3225 13.7696 93.8234 13.885 94.3821 13.885Z" fill="#1B1A1A"></path></g></g><defs><clipPath id="clip0_1719_19228"><rect width="132.905" height="21.3054" fill="white" transform="translate(0.238281 0.236328)"></rect></clipPath></defs></svg>