<svg xmlns:xlink="http://www.w3.org/1999/xlink" class="aspect-[226/50] h-fit" width="224" height="50" viewBox="0 0 224 50" fill="none" xmlns="http://www.w3.org/2000/svg"><path d="M83.3584 25.3238C83.3584 21.5431 81.7341 19.6527 78.4856 19.6527C76.8431 19.6507 75.2532 20.2308 73.9989 21.2897C73.3752 21.765 72.8517 22.3588 72.4586 23.0368C72.0654 23.7148 71.8105 24.4638 71.7083 25.2406V38.9456H67.0664V5.56958H71.7083L71.678 17.63L71.2047 20.7756L71.7234 20.957L73.2871 18.1707C74.0487 17.3143 74.9743 16.6188 76.0094 16.1253C77.0408 15.6017 78.1804 15.326 79.3375 15.32C82.013 15.32 84.1283 16.2186 85.6831 18.0157C87.238 19.8128 88.0167 22.2488 88.0192 25.3238V38.9343H83.3584V25.3238Z" fill="#FFFFFF"></path><path d="M101.804 39.3049C98.1769 39.3049 95.3372 38.2564 93.2851 36.1594C91.233 34.0624 90.2056 31.0983 90.2031 27.2672C90.2031 23.5898 91.2595 20.6598 93.3722 18.477C95.4849 16.2943 98.2614 15.2042 101.702 15.2067C105.102 15.2067 107.814 16.3233 109.838 18.5564C111.863 20.7896 112.872 23.6881 112.867 27.2521C112.867 28.1443 112.867 28.7643 112.822 29.1084H95.0267C95.2539 31.0567 95.972 32.5765 97.1811 33.6679C98.4548 34.7857 100.11 35.373 101.804 35.3087C104.629 35.3087 106.592 34.109 107.695 31.7095L112.386 32.5261C111.585 34.5663 110.157 36.3011 108.309 37.4826C106.366 38.7135 104.104 39.3472 101.804 39.3049ZM95.0722 25.6377H108.195C107.983 23.6793 107.295 22.1116 106.132 20.9345C105.557 20.3516 104.868 19.8938 104.107 19.5899C103.347 19.2861 102.532 19.1427 101.713 19.1689C100.893 19.1421 100.076 19.2828 99.3124 19.5825C98.5486 19.8822 97.8543 20.3346 97.272 20.9118C96.1109 22.0561 95.3776 23.6314 95.0722 25.6377Z" fill="#FFFFFF"></path><path d="M115.356 47.0001V42.6561H117.397C117.836 42.6782 118.275 42.6013 118.681 42.4311C119.086 42.261 119.449 42.0019 119.74 41.6731C120.404 40.8365 120.9 39.8803 121.202 38.8565L121.247 38.675L112.047 15.7753H117.147L122.584 30.7431L123.197 33.8886H123.742L124.307 30.7431L129.77 15.7639H134.908L125.552 38.9472C124.922 40.6327 124.181 42.2746 123.334 43.8621C122.592 45.1876 121.374 46.1823 119.926 46.6447C118.983 46.9106 118.006 47.038 117.026 47.0228L115.356 47.0001Z" fill="#FFFFFF"></path><path d="M145.313 39.3048C142.17 39.3048 139.655 38.2525 137.767 36.1479C135.879 34.0433 134.943 31.1586 134.958 27.4939C134.927 23.7712 135.89 20.792 137.847 18.5563C139.803 16.3206 142.443 15.2041 145.767 15.2066C147.821 15.1569 149.815 15.8942 151.341 17.2671L153.078 19.9363L153.574 19.7548L152.919 16.6092V5.56958H157.565V38.9456H154.158L153.635 34.87H153.154C151.463 37.8265 148.849 39.3048 145.313 39.3048ZM139.694 27.4939C139.694 29.8959 140.286 31.7699 141.47 33.1158C142.654 34.4617 144.274 35.1372 146.331 35.1422C148.404 35.1422 150.017 34.4491 151.17 33.0629C152.324 31.6766 152.902 29.7447 152.904 27.267C152.904 24.8096 152.322 22.8902 151.159 21.509C149.995 20.1278 148.386 19.4385 146.331 19.441C145.409 19.4062 144.49 19.5874 143.65 19.9701C142.81 20.3528 142.071 20.9264 141.493 21.6451C140.294 23.1171 139.694 25.0667 139.694 27.4939Z" fill="#FFFFFF"></path><path d="M171.851 39.305C168.224 39.305 165.383 38.2565 163.328 36.1595C161.273 34.0624 160.246 31.0983 160.246 27.2672C160.246 23.5899 161.304 20.6598 163.419 18.4771C165.534 16.2944 168.311 15.2043 171.749 15.2068C175.144 15.2068 177.854 16.3234 179.881 18.5565C181.908 20.7896 182.918 23.6882 182.91 27.2521C182.91 28.1444 182.91 28.7644 182.865 29.1084H165.07C165.297 31.0568 166.015 32.5766 167.224 33.668C168.498 34.7858 170.152 35.3731 171.847 35.3088C174.672 35.3088 176.635 34.109 177.738 31.7096L182.429 32.5262C181.627 34.5674 180.199 36.3026 178.348 37.4827C176.408 38.7121 174.148 39.3458 171.851 39.305ZM165.119 25.6378H178.238C178.026 23.6793 177.34 22.1116 176.178 20.9346C175.603 20.3522 174.914 19.8948 174.154 19.5909C173.394 19.2871 172.578 19.1435 171.76 19.169C170.94 19.1421 170.123 19.2829 169.359 19.5826C168.595 19.8823 167.901 20.3346 167.319 20.9119C166.155 22.0562 165.422 23.6315 165.119 25.6378Z" fill="#FFFFFF"></path><path d="M189.802 38.9473L182.09 15.7753H187.19L191.695 30.3235L192.305 33.469H192.85L193.418 30.3235L197.962 15.7753H203.058L195.368 38.9473H189.802Z" fill="#FFFFFF"></path><path d="M213.75 39.2601C210.35 39.2601 207.778 38.5557 206.034 37.1467C204.29 35.7378 203.335 33.6975 203.168 31.0258L207.814 30.7535C208.053 33.7403 210.243 35.2337 214.383 35.2337C215.955 35.2337 217.21 34.9363 218.146 34.3414C218.573 34.1049 218.928 33.7585 219.175 33.3382C219.422 32.918 219.552 32.4393 219.551 31.952C219.551 31.0636 219.021 30.3679 217.964 29.8726C216.908 29.3774 215.132 28.9804 212.641 28.6931C209.468 28.3503 207.149 27.642 205.682 26.5683C204.215 25.4946 203.483 23.9823 203.486 22.0315C203.486 20.189 204.339 18.5935 206.045 17.2451C207.752 15.8966 210.085 15.2211 213.046 15.2186C216.295 15.2186 218.749 15.8903 220.41 17.2337C222.071 18.5772 223.068 20.6742 223.401 23.5248L218.858 23.8424C218.752 22.1688 218.2 20.988 217.203 20.2999C216.206 19.6118 214.633 19.2652 212.482 19.2602C211.077 19.2602 209.976 19.4946 209.184 19.9596C208.826 20.1383 208.526 20.413 208.316 20.7529C208.106 21.0929 207.995 21.4846 207.995 21.884C207.982 22.3062 208.096 22.7227 208.322 23.0798C208.548 23.4368 208.876 23.7183 209.264 23.8878C210.109 24.3137 211.8 24.6918 214.337 25.022C217.871 25.4757 220.36 26.2028 221.804 27.2035C223.247 28.2041 223.977 29.792 223.992 31.9671C224.008 32.984 223.783 33.9903 223.334 34.9032C222.885 35.8161 222.226 36.6097 221.41 37.2185C219.688 38.5821 217.135 39.2626 213.75 39.2601Z" fill="#FFFFFF"></path><path d="M19.5338 23.9384H43.5092V31.462C43.5287 32.5326 43.2774 33.5924 42.7759 34.5542C42.3135 35.4344 41.5953 36.1738 40.7042 36.6871C39.7315 37.2141 38.621 37.4748 37.4985 37.4395H37.1259C35.9987 37.4664 34.8867 37.191 33.9202 36.6457C33.0293 36.1257 32.3115 35.3815 31.8485 34.4978C31.3557 33.5483 31.1086 32.503 31.1272 31.4469V26.8575H19.5338V23.9384ZM33.9322 26.8575V31.1497C33.8842 32.0406 34.1914 32.9164 34.7937 33.6062C35.0903 33.9136 35.4558 34.1554 35.864 34.3141C36.2721 34.4729 36.7127 34.5446 37.1539 34.5241H37.4425C37.8875 34.5464 38.3322 34.4756 38.7445 34.3168C39.1568 34.1581 39.5265 33.9154 39.8267 33.6062C40.4322 32.9178 40.7411 32.0414 40.6922 31.1497V26.8575H33.9322Z" fill="#FFFFFF"></path><path d="M43.9102 49.3095V45.3439H50.6422C51.4011 45.3439 51.7237 44.9645 51.7237 44.1144V28.9846C51.6756 27.8704 52.045 26.7784 52.7597 25.9222C53.1299 25.5265 53.5824 25.2168 54.0853 25.0149C54.5882 24.8129 55.1292 24.7237 55.6703 24.7534H55.7613V24.5903H55.6779C55.1352 24.6189 54.5929 24.5273 54.0897 24.322C53.5865 24.1166 53.135 23.8027 52.7673 23.4025C52.051 22.5472 51.6814 21.4546 51.7313 20.3401V5.19891C51.7313 4.34888 51.3973 3.9694 50.6498 3.9694H44.7399V0.00384546H51.9362C52.4839 -0.00701591 53.0281 0.0936959 53.5357 0.29985C54.0432 0.506004 54.5035 0.813287 54.8886 1.203C55.2811 1.59525 55.5895 2.06339 55.795 2.57882C56.0005 3.09426 56.0988 3.64618 56.0839 4.20088V20.2756C56.0839 21.7935 56.8429 22.4993 58.5088 22.4993H63.0625V26.814H58.5088C56.8542 26.814 56.0839 27.5198 56.0839 29.034V45.1125C56.0988 45.6672 56.0005 46.2191 55.795 46.7345C55.5895 47.25 55.2811 47.7181 54.8886 48.1103C54.5035 48.5001 54.0432 48.8073 53.5357 49.0135C53.0281 49.2196 52.4839 49.3204 51.9362 49.3095H43.9102Z" fill="#FFFFFF"></path><path d="M19.1523 49.3095V45.3439H12.4203C11.6614 45.3439 11.3388 44.9645 11.3388 44.1144V28.9846C11.3869 27.8704 11.0175 26.7784 10.3028 25.9222C9.93259 25.5265 9.4801 25.2168 8.97723 25.0149C8.47435 24.8129 7.93332 24.7237 7.39224 24.7534H7.30116V24.5903H7.38465C7.92734 24.6189 8.46966 24.5273 8.97283 24.322C9.47599 24.1166 9.92757 23.8027 10.2953 23.4025C11.0115 22.5472 11.3811 21.4546 11.3312 20.3401V5.19891C11.3312 4.34888 11.6652 3.9694 12.4127 3.9694H18.3226V0.00384546H11.1263C10.5786 -0.00701591 10.0344 0.0936959 9.52684 0.29985C9.01928 0.506004 8.55898 0.813287 8.17396 1.203C7.78147 1.59525 7.47304 2.06339 7.26752 2.57882C7.062 3.09426 6.96369 3.64618 6.97861 4.20088V20.2756C6.97861 21.7935 6.21965 22.4993 4.55374 22.4993H0V26.814H4.55374C6.20827 26.814 6.97861 27.5198 6.97861 29.034V45.1125C6.96369 45.6672 7.062 46.2191 7.26752 46.7345C7.47304 47.25 7.78147 47.7181 8.17396 48.1103C8.55898 48.5001 9.01928 48.8073 9.52684 49.0135C10.0344 49.2196 10.5786 49.3204 11.1263 49.3095H19.1523Z" fill="#FFFFFF"></path><path d="M30.2998 17.0514C30.3015 16.9487 30.298 16.8459 30.2892 16.7432C30.2517 16.3048 30.1194 15.8783 29.9004 15.4896C29.6814 15.1009 29.3803 14.7582 29.0154 14.4824C28.086 13.8199 26.9397 13.482 25.7737 13.5269C23.9197 13.5286 22.1302 14.1653 20.7407 15.3175C19.4042 16.4342 18.5823 17.9949 18.4487 19.6699H21.0613C21.1753 18.9433 21.5219 18.2663 22.0551 17.7288C22.4956 17.2877 23.0578 16.9731 23.676 16.8181C23.6672 16.9166 23.6627 17.0164 23.6627 17.1172C23.6627 18.9502 25.1487 20.4361 26.9816 20.4361C28.8146 20.4361 30.3005 18.9502 30.3005 17.1172C30.3005 17.0952 30.3003 17.0733 30.2998 17.0514Z" fill="#FFFFFF"></path><path d="M43.5101 17.1157C43.5101 18.9486 42.0242 20.4346 40.1912 20.4346C38.3583 20.4346 36.8723 18.9486 36.8723 17.1157C36.8723 15.2827 38.3583 13.7968 40.1912 13.7968C42.0242 13.7968 43.5101 15.2827 43.5101 17.1157Z" fill="#FFFFFF"></path></svg>