<svg xmlns:xlink="http://www.w3.org/1999/xlink" width="92" height="18" viewBox="0 0 92 18" fill="none" xmlns="http://www.w3.org/2000/svg" class="text-[#1B1A1A]"><g clip-path="url(#clip0_1719_19061)" fill="none"><path d="M41.8193 4.06855C41.9046 4.06855 41.9692 4.06855 42.0334 4.06855C42.6728 4.06855 43.3118 4.06463 43.9509 4.07141C44.0965 4.07283 44.1471 4.03538 44.1453 3.88414C44.1374 3.27916 44.1403 2.67382 44.1424 2.06885C44.1449 1.37683 44.5814 0.935229 45.2807 0.924528C45.7583 0.917394 46.2367 0.916681 46.7144 0.924528C47.4019 0.9363 47.8394 1.37362 47.8473 2.05779C47.8545 2.651 47.8491 3.2442 47.8491 3.83741C47.8491 3.90696 47.8491 3.97652 47.8491 4.05714H55.6099C55.6131 3.99293 55.6192 3.93051 55.6192 3.86773C55.62 3.26275 55.6182 2.65742 55.6203 2.05244C55.6225 1.39931 56.0646 0.94165 56.7252 0.925955C57.2269 0.914184 57.729 0.913827 58.2307 0.925955C58.8902 0.942007 59.3313 1.39824 59.3352 2.05422C59.3388 2.65349 59.336 3.25241 59.336 3.85168C59.336 3.91553 59.336 3.97973 59.336 4.06035H64.022C64.0274 4.1267 64.0346 4.17771 64.0349 4.22836C64.036 4.54262 64.0367 4.85723 64.0349 5.17149C64.0317 5.83925 63.5669 6.30262 62.8974 6.30333C61.7921 6.30476 60.6869 6.30369 59.5816 6.30369C59.5102 6.30369 59.4389 6.30369 59.3446 6.30369C59.3413 6.36718 59.336 6.42318 59.336 6.47954C59.336 8.45499 59.3352 10.4304 59.3381 12.4062C59.3388 12.8725 59.4041 13.3294 59.6056 13.756C59.9295 14.4416 60.5226 14.7801 61.2262 14.9581C61.9015 15.129 62.59 15.1775 63.2861 15.1426C63.5526 15.129 63.8201 15.1404 64.093 15.1404C64.093 15.5966 64.1285 16.0372 64.084 16.4699C64.0288 17.0024 63.6164 17.3816 63.0641 17.392C61.7333 17.4169 60.3985 17.4497 59.086 17.1626C58.102 16.9475 57.2287 16.5202 56.5319 15.7814C56.0058 15.2235 55.7462 14.5436 55.6594 13.7956C55.6246 13.496 55.616 13.1924 55.6157 12.8903C55.6121 10.7782 55.6139 8.66652 55.6139 6.55445V6.31617H47.8444C47.8415 6.38466 47.8362 6.4478 47.8362 6.51093C47.8355 8.36796 47.8308 10.2246 47.8387 12.0816C47.8401 12.4419 47.8609 12.8068 47.9244 13.1607C48.1058 14.1755 48.7797 14.7181 49.7454 14.9631C50.3874 15.1261 51.0429 15.1529 51.7003 15.1604C52.004 15.164 52.3074 15.1611 52.6531 15.1611C52.6334 15.6637 52.6531 16.152 52.5839 16.6279C52.5176 17.0823 52.0689 17.4123 51.6013 17.4134C50.491 17.4162 49.3793 17.4558 48.2737 17.3046C47.1118 17.1455 46.051 16.7624 45.1899 15.938C44.5875 15.3612 44.2862 14.6378 44.189 13.8259C44.1539 13.5324 44.1453 13.2345 44.1449 12.9385C44.1413 10.8146 44.1431 8.69078 44.1431 6.56694C44.1431 6.33044 44.1431 6.33258 43.8978 6.32973C43.5216 6.3258 43.1437 6.3415 42.7703 6.30725C42.2471 6.2591 41.8505 5.82891 41.8254 5.30633C41.8085 4.95711 41.8207 4.60647 41.82 4.25654C41.82 4.20375 41.82 4.1506 41.82 4.06784L41.8193 4.06855Z" fill="#1B1A1A"></path><path d="M80.6309 15.1716C80.6309 15.6457 80.6621 16.0926 80.6227 16.5332C80.5775 17.0425 80.0711 17.4381 79.5228 17.4435C79.0032 17.4485 78.4832 17.4449 77.9635 17.4446C75.6634 17.4438 73.3636 17.4478 71.0634 17.4406C70.1238 17.4378 69.1882 17.3707 68.2877 17.0764C66.5875 16.521 65.5414 15.3799 65.1928 13.626C64.9518 12.4125 64.9669 11.1847 64.997 9.95654C65.0146 9.23242 65.0705 8.51223 65.2441 7.80559C65.6045 6.33881 66.5391 5.3707 67.9104 4.78392C68.7571 4.42186 69.6497 4.24136 70.5602 4.14434C72.1389 3.97633 73.7222 4.00201 75.3037 4.0812C76.3795 4.13506 77.4403 4.29594 78.4462 4.71151C80.0367 5.36856 80.9494 6.53357 81.1405 8.24292C81.2033 8.80437 81.2424 9.36655 81.143 9.92693C80.9659 10.9271 80.2712 11.5717 79.2564 11.6784C79.0136 11.7041 78.7683 11.7176 78.5241 11.718C75.3636 11.7205 72.2034 11.7197 69.0429 11.7197C68.8034 11.7197 68.7923 11.7208 68.8127 11.948C68.8525 12.3904 68.8826 12.8359 68.9587 13.2725C69.1272 14.241 69.7652 14.766 70.6883 14.9993C71.2603 15.1441 71.8448 15.1698 72.4304 15.1705C75.0831 15.1734 77.7355 15.1716 80.3881 15.1716C80.4645 15.1716 80.5413 15.1716 80.6313 15.1716H80.6309ZM68.7661 10.6236C68.7887 10.6236 68.8116 10.6239 68.8342 10.6243C68.9841 10.1666 69.346 9.92551 69.7591 9.74359C70.2938 9.5078 70.8626 9.45644 71.4396 9.45679C73.0939 9.45751 74.7482 9.45715 76.4025 9.45679C76.5101 9.45679 76.618 9.45679 76.7245 9.44609C77.1007 9.40971 77.3227 9.18676 77.3489 8.81329C77.4034 8.03816 77.0548 7.44995 76.457 6.99408C75.9359 6.59671 75.322 6.39588 74.6804 6.35165C73.8007 6.29065 72.916 6.2771 72.0338 6.2828C71.4966 6.28601 70.9648 6.39124 70.4631 6.59778C69.6669 6.92595 69.0228 7.4314 68.8973 8.32246C68.7905 9.08082 68.8048 9.85595 68.7654 10.6239L68.7661 10.6236Z" fill="#1B1A1A"></path><path d="M28.6162 11.7193C28.6453 12.0978 28.6596 12.4463 28.7019 12.7916C28.7349 13.0609 28.7787 13.3338 28.8601 13.5917C29.1122 14.3918 29.7222 14.7974 30.5007 14.9975C31.0778 15.1459 31.6691 15.1698 32.2605 15.1705C34.9132 15.173 37.5655 15.1716 40.2182 15.1716C40.2946 15.1716 40.371 15.1716 40.49 15.1716C40.4692 15.6688 40.4936 16.1532 40.4172 16.6212C40.3358 17.1195 39.8452 17.4434 39.3023 17.4438C37.6892 17.4456 36.0762 17.4445 34.4631 17.4445C33.2625 17.4445 32.0615 17.4499 30.8608 17.4406C29.9273 17.4334 28.9978 17.3682 28.1034 17.0753C26.3878 16.5135 25.3481 15.3549 25.0035 13.5871C24.7966 12.5259 24.7977 11.4529 24.8084 10.3792C24.8163 9.57838 24.854 8.77935 25.0207 7.99174C25.3732 6.32484 26.4276 5.27898 27.9886 4.68434C28.8758 4.34618 29.804 4.18709 30.7464 4.10897C32.1898 3.98948 33.6354 4.00303 35.0796 4.07865C36.2519 4.14001 37.4066 4.3098 38.4875 4.80919C39.9399 5.48016 40.7597 6.60379 40.9527 8.18187C41.0247 8.77257 41.0692 9.36507 40.958 9.95364C40.7708 10.9474 40.0769 11.5756 39.067 11.6794C38.8239 11.7044 38.579 11.7179 38.3347 11.7183C35.1864 11.7208 32.0378 11.7201 28.8895 11.7201H28.6169L28.6162 11.7193ZM28.599 10.62C28.6144 10.6246 28.6298 10.6296 28.6453 10.6342C28.8231 10.1266 29.233 9.87694 29.6996 9.69467C30.1794 9.50704 30.6833 9.45781 31.1932 9.45745C32.9078 9.45603 34.622 9.45924 36.3365 9.45531C36.9781 9.45389 37.2428 9.13927 37.1735 8.50469C37.1079 7.90399 36.8192 7.42993 36.3598 7.05253C35.8205 6.60985 35.1739 6.40082 34.4961 6.35088C33.6225 6.28668 32.7432 6.27205 31.8671 6.2824C31.2449 6.28989 30.6334 6.41795 30.0672 6.69689C29.2642 7.09212 28.7299 7.69532 28.6646 8.61241C28.6173 9.27981 28.6191 9.95042 28.599 10.6196V10.62Z" fill="#1B1A1A"></path><path d="M0.476562 4.07472C1.33868 4.07472 2.17139 4.03405 2.99836 4.08542C3.93866 4.14392 4.58417 4.67969 4.98331 5.51403C5.60802 6.81958 6.23058 8.12621 6.8535 9.43247C7.56105 10.9153 8.26681 12.3992 8.97759 13.8803C9.05935 14.0504 9.15546 14.2174 9.26807 14.3682C9.40972 14.558 9.546 14.5609 9.68837 14.3754C9.80277 14.2259 9.89816 14.0583 9.97885 13.8881C11.2986 11.1069 12.615 8.32382 13.9308 5.54043C14.3131 4.73177 14.9235 4.21704 15.8283 4.09112C16.0692 4.05759 16.3167 4.06259 16.5613 4.0608C17.111 4.05688 17.6604 4.05938 18.2102 4.05938C18.2737 4.05938 18.3371 4.05938 18.4293 4.05938C18.3852 4.15034 18.3565 4.21383 18.3246 4.27554C16.2672 8.235 14.1983 12.1888 12.1607 16.1582C11.7271 17.0029 11.1045 17.4841 10.1589 17.5369C9.52161 17.5725 8.88148 17.6075 8.25175 17.4509C7.62596 17.295 7.16083 16.9383 6.86282 16.3654C4.7581 12.3161 2.65158 8.26818 0.545776 4.2199C0.524617 4.17923 0.506328 4.13714 0.476562 4.07472Z" fill="#1B1A1A"></path><path d="M91.7807 15.1657C91.7807 15.6323 91.8069 16.0717 91.7739 16.5069C91.7369 16.9963 91.2898 17.4073 90.7992 17.4122C89.5939 17.4244 88.3864 17.4661 87.1886 17.2696C86.2856 17.1215 85.4515 16.8126 84.7159 16.259C83.8685 15.6212 83.4382 14.7608 83.3356 13.7267C83.3059 13.4264 83.299 13.1228 83.2987 12.8211C83.2962 9.23828 83.2969 5.6555 83.2973 2.07273C83.2973 1.51377 83.6078 1.09428 84.1181 0.961582C84.1866 0.943747 84.2591 0.932689 84.3297 0.932332C84.8791 0.930192 85.4289 0.925198 85.9783 0.932689C86.5793 0.940893 87.0617 1.50735 86.9985 2.0738C86.9899 2.15013 86.996 2.2279 86.996 2.30495C86.995 5.53779 86.9903 8.77064 86.9978 12.0035C86.9989 12.4223 87.0211 12.8492 87.105 13.2577C87.3026 14.2218 87.9747 14.7273 88.8938 14.9634C89.5354 15.1282 90.191 15.155 90.8479 15.165C91.1517 15.1696 91.4558 15.1657 91.7796 15.1657H91.7807Z" fill="#1B1A1A"></path><path d="M18.9764 10.7564C18.9764 8.9236 18.9907 7.09048 18.9688 5.25771C18.9606 4.5607 19.4842 4.02885 20.1792 4.06524C20.626 4.08878 21.075 4.0688 21.5229 4.06987C22.1917 4.07166 22.6232 4.46511 22.6816 5.12537C22.6874 5.19029 22.687 5.25557 22.687 5.32085C22.687 8.945 22.6899 12.5695 22.6813 16.1937C22.6805 16.423 22.635 16.6727 22.5357 16.8771C22.352 17.2545 22.0038 17.4289 21.5853 17.4368C21.0836 17.4461 20.5815 17.4461 20.0802 17.4372C19.4297 17.4257 18.9778 16.9613 18.9771 16.3082C18.9749 14.4576 18.9764 12.6066 18.9764 10.756V10.7564Z" fill="#1B1A1A"></path><path d="M18.9794 3.93618C18.9794 3.03335 18.9715 2.17975 18.9822 1.3265C18.9887 0.814982 19.4341 0.352332 19.9498 0.334497C20.534 0.314164 21.1196 0.315948 21.7041 0.333783C22.1832 0.348408 22.6143 0.765043 22.6584 1.24089C22.6792 1.46348 22.6846 1.69569 22.6437 1.91364C22.5472 2.42766 22.1061 2.76582 21.5657 2.77795C21.2021 2.78615 20.8341 2.76154 20.4759 2.81005C19.7956 2.90208 19.2763 3.24381 18.9794 3.93653V3.93618Z" fill="#1B1A1A"></path></g><defs><clipPath id="clip0_1719_19061"><rect width="91.3087" height="17.2472" fill="white" transform="translate(0.476562 0.319824)"></rect></clipPath></defs></svg>