<svg xmlns:xlink="http://www.w3.org/1999/xlink" width="76" height="44" viewBox="0 0 76 44" fill="none" xmlns="http://www.w3.org/2000/svg" class="text-[#1B1A1A]"><path d="M54.0356 39.6209C53.6564 39.4489 53.2442 39.3268 52.9035 39.0938C51.9362 38.4391 51.48 37.2074 51.7548 36.0533C52.0516 34.8216 52.8375 34.0559 54.0576 33.8063C55.6845 33.4734 57.1904 34.3666 57.5971 35.8536C58.0423 37.4903 57.1409 39.0882 55.5251 39.5487C55.4646 39.5654 55.4097 39.5931 55.3547 39.6153C54.915 39.6209 54.4753 39.6209 54.0356 39.6209ZM56.3989 36.708C56.3989 35.6816 55.657 34.8993 54.6842 34.8993C53.7059 34.8993 52.9859 35.6538 52.9859 36.6803C52.9859 37.7067 53.7279 38.4946 54.6952 38.4946C55.6625 38.5001 56.3989 37.7233 56.3989 36.708Z" fill="#1B1A1A"></path><path d="M40.9121 39.621C40.6373 39.51 40.346 39.4212 40.0822 39.277C39.005 38.6944 38.4224 37.4738 38.6203 36.2476C38.8181 35.0048 39.7469 34.0339 40.9616 33.8064C42.6598 33.4846 44.1878 34.4278 44.5395 36.0201C44.8912 37.6069 43.9844 39.1272 42.4345 39.5544C42.3631 39.571 42.2971 39.5988 42.2312 39.621C41.7915 39.621 41.3518 39.621 40.9121 39.621ZM41.5991 34.9049C40.6263 34.8994 39.8953 35.654 39.8843 36.6748C39.8734 37.6902 40.6263 38.4891 41.5881 38.5002C42.5444 38.5113 43.2919 37.7346 43.3029 36.7192C43.3139 35.7039 42.5719 34.9105 41.5991 34.9049Z" fill="#1B1A1A"></path><path d="M61.5073 39.6209C61.2325 39.5099 60.9412 39.4267 60.6774 39.2824C59.5946 38.6999 59.0615 37.507 59.2594 36.1809C59.4407 35.0047 60.3916 34.0116 61.5677 33.8063C62.6065 33.6287 63.5683 33.7896 64.4147 34.5276C64.1509 34.8438 63.898 35.1545 63.6947 35.4042C63.255 35.2322 62.8648 34.9992 62.4471 34.9326C61.2984 34.7495 60.3751 35.7371 60.529 36.93C60.7268 38.489 62.2162 38.8275 63.255 38.2615C63.3319 38.2227 63.3924 38.1006 63.4034 38.0063C63.4254 37.8066 63.4089 37.6013 63.4089 37.3738C62.9967 37.3738 62.5955 37.3738 62.1778 37.3738C62.1778 37.0021 62.1778 36.6581 62.1778 36.2753C62.5735 36.2753 62.9747 36.2753 63.3704 36.2753C63.7716 36.2753 64.1728 36.2753 64.618 36.2753C64.618 36.4417 64.618 36.586 64.618 36.7247C64.618 37.3128 64.607 37.9065 64.6235 38.4946C64.629 38.6943 64.5741 38.8386 64.3982 38.9218C63.909 39.1548 63.4144 39.3878 62.9252 39.6153C62.4581 39.6209 61.9799 39.6209 61.5073 39.6209Z" fill="#1B1A1A"></path><path d="M19.9912 39.621C19.6889 39.4823 19.3647 39.3769 19.0844 39.1993C17.9962 38.528 17.507 37.1687 17.8588 35.8648C18.1885 34.6498 19.2822 33.7953 20.5408 33.7454C21.4477 33.7121 22.2556 33.934 22.9371 34.6331C22.6788 34.9327 22.4205 35.2323 22.1512 35.5486C21.651 35.0992 21.0959 34.8217 20.4199 34.9327C20.0187 34.9993 19.6835 35.2046 19.4306 35.5319C18.8645 36.2643 18.9305 37.3961 19.579 38.0453C20.255 38.7222 21.1784 38.6612 22.1512 37.8788C22.4095 38.1396 22.6623 38.3948 22.9371 38.6722C22.5469 39.166 21.9918 39.449 21.3652 39.6265C20.9036 39.621 20.4474 39.621 19.9912 39.621Z" fill="#1B1A1A"></path><path d="M5.43128 33.8614C5.99737 33.8558 6.56346 33.8448 7.12956 33.8448C8.01442 33.8392 8.90478 33.8448 9.78964 33.8448C9.88857 33.8448 9.9875 33.8448 10.1084 33.8448C10.1084 34.2331 10.1084 34.5938 10.1084 34.9932C9.55331 34.9932 8.99821 34.9932 8.41563 34.9932C8.41563 36.5246 8.41563 38.0226 8.41563 39.5428C7.99244 39.5428 7.59672 39.5428 7.16803 39.5428C7.16803 38.0503 7.16803 36.5523 7.16803 35.0265C6.56896 35.0265 5.99737 35.0265 5.42578 35.0265C5.43128 34.6326 5.43128 34.2442 5.43128 33.8614Z" fill="#1B1A1A"></path><path d="M24.9336 3.35143C25.3623 3.35143 25.7305 3.35143 26.0933 3.35143C27.8135 3.35143 29.5338 3.35698 31.254 3.34588C31.4959 3.34588 31.6333 3.4291 31.7762 3.60665C33.9031 6.3142 36.0301 9.01066 38.1571 11.7127C38.212 11.7848 38.2725 11.8514 38.3604 11.9512C38.4484 11.8514 38.5253 11.7626 38.5968 11.6738C40.7182 8.97737 42.8452 6.28091 44.9557 3.58446C45.0986 3.40691 45.236 3.34033 45.4613 3.34033C47.4564 3.35143 49.4515 3.34588 51.4465 3.34588C51.5345 3.34588 51.6279 3.34588 51.7763 3.34588C51.6938 3.46239 51.6444 3.54007 51.5894 3.6122C48.3687 7.71237 45.1481 11.8014 41.9274 15.8961C41.6361 16.2623 41.6086 16.1513 41.9219 16.5508C45.1426 20.6398 48.3577 24.7345 51.5784 28.8235C51.6334 28.8901 51.6829 28.9678 51.7653 29.0787C51.6114 29.0787 51.518 29.0787 51.419 29.0787C49.435 29.0787 47.4454 29.0732 45.4613 29.0843C45.225 29.0843 45.0766 29.0177 44.9337 28.8291C42.8177 26.1271 40.6963 23.4306 38.5748 20.7342C38.5143 20.6565 38.4484 20.5788 38.3604 20.4734C38.2835 20.5622 38.2175 20.6287 38.1571 20.7064C36.0246 23.414 33.8867 26.1271 31.7597 28.8402C31.6278 29.0066 31.5014 29.0843 31.2815 29.0843C29.27 29.0732 27.2529 29.0787 25.2414 29.0787C25.1589 29.0787 25.0765 29.0787 24.9391 29.0787C25.0215 28.9622 25.0765 28.8846 25.1315 28.8124C28.3466 24.7289 31.5618 20.6454 34.7715 16.5619C35.0903 16.1568 35.0683 16.2733 34.7605 15.885C31.5618 11.7903 28.3466 7.70682 25.1369 3.62329C25.082 3.55117 25.027 3.47904 24.9336 3.35143Z" fill="#1B1A1A"></path><path d="M5.52344 3.35166C5.63885 3.35166 5.73229 3.35166 5.82022 3.35166C8.65618 3.35166 11.4976 3.32392 14.3336 3.35721C19.9506 3.42378 25.0014 6.83042 26.8536 12.7282C26.98 13.1333 27.0569 13.5494 27.1559 13.9599C27.1724 14.0376 27.1559 14.1208 27.1559 14.2152C27.0569 14.2207 26.9745 14.2318 26.8976 14.2318C25.3037 14.2318 23.7099 14.2263 22.1215 14.2374C21.9072 14.2374 21.8302 14.1597 21.7643 13.9655C20.786 11.0859 18.8733 9.23837 15.8835 8.61141C15.4493 8.52264 14.9931 8.47826 14.5479 8.47826C11.657 8.46716 8.76611 8.47271 5.86969 8.47271C5.75977 8.47271 5.65534 8.47271 5.52344 8.47271C5.52344 6.75829 5.52344 5.07717 5.52344 3.35166Z" fill="#1B1A1A"></path><path d="M71.2022 3.35159C71.2022 5.07155 71.2022 6.74713 71.2022 8.46709C71.0868 8.46709 70.9768 8.46709 70.8724 8.46709C68.0364 8.46709 65.2005 8.46709 62.3645 8.46709C58.869 8.47264 56.0001 10.6032 54.9613 13.9654C54.9009 14.1652 54.8184 14.2373 54.6041 14.2373C53.0102 14.2262 51.4219 14.2317 49.828 14.2317C49.7456 14.2317 49.6687 14.2262 49.5312 14.2151C49.6082 13.8545 49.6522 13.5105 49.7511 13.1831C50.9932 8.91095 53.6038 5.8816 57.7369 4.23931C59.2593 3.63455 60.8421 3.35714 62.4744 3.35159C65.2719 3.34604 68.0749 3.35159 70.8724 3.35159C70.9713 3.35159 71.0703 3.35159 71.2022 3.35159Z" fill="#1B1A1A"></path><path d="M27.2181 18.2047C27.0917 18.7374 27.0202 19.2312 26.8608 19.6917C25.1735 24.7073 21.788 27.8144 16.6107 28.8519C15.8357 29.0072 15.0333 29.0627 14.2419 29.0683C11.4499 29.096 8.65791 29.0794 5.86592 29.0794C5.756 29.0794 5.65157 29.0794 5.51417 29.0794C5.50868 28.9573 5.49768 28.863 5.49768 28.7631C5.49768 27.2873 5.50318 25.8114 5.49219 24.33C5.49219 24.0637 5.56364 23.986 5.82745 23.986C8.60845 23.9971 11.3894 23.9916 14.1759 23.9916C15.4345 23.9916 16.6492 23.7697 17.7868 23.2037C19.7819 22.2217 21.046 20.6016 21.744 18.5099C21.8264 18.2602 21.9309 18.1881 22.1837 18.1937C23.7281 18.2047 25.278 18.1992 26.8223 18.1992C26.9268 18.2047 27.0257 18.2047 27.2181 18.2047Z" fill="#1B1A1A"></path><path d="M49.5469 18.2048C49.6788 18.2048 49.7667 18.2048 49.8602 18.2048C51.432 18.2048 53.0094 18.2103 54.5813 18.1992C54.8066 18.1992 54.889 18.2713 54.9605 18.4822C55.9827 21.4727 57.9943 23.3314 61.1106 23.8862C61.5942 23.9694 62.0944 23.9916 62.5835 23.9916C65.326 24.0027 68.0741 23.9972 70.8166 23.9972C71.2123 23.9972 71.2123 23.9972 71.2123 24.4077C71.2123 25.8503 71.2123 27.2873 71.2123 28.7298C71.2123 28.8352 71.2123 28.9462 71.2123 29.0683C71.0859 29.0738 70.9979 29.0849 70.9045 29.0849C68.0246 29.0849 65.1392 29.1681 62.2592 29.0683C56.9446 28.8796 53.0204 26.3885 50.5966 21.5781C50.102 20.5961 49.7502 19.5585 49.5689 18.4711C49.5634 18.3934 49.5579 18.3213 49.5469 18.2048Z" fill="#1B1A1A"></path><path d="M32.9662 35.9474C32.9662 37.1846 32.9662 38.3498 32.9662 39.5426C32.554 39.5426 32.1583 39.5426 31.7461 39.5426C31.7461 37.6507 31.7461 35.7643 31.7461 33.8446C32.1033 33.8446 32.4496 33.8335 32.7958 33.8557C32.8783 33.8612 32.9717 33.9722 33.0322 34.0554C33.7961 35.0596 34.5491 36.0639 35.3075 37.0737C35.3625 37.1458 35.4175 37.2179 35.5164 37.34C35.5164 36.1527 35.5164 35.0208 35.5164 33.8668C35.9451 33.8668 36.3353 33.8668 36.7475 33.8668C36.7475 35.7643 36.7475 37.6507 36.7475 39.5648C36.4232 39.5648 36.1154 39.5759 35.8077 39.5593C35.7307 39.5537 35.6373 39.465 35.5823 39.3928C34.7744 38.3331 33.972 37.2679 33.1696 36.2026C33.1201 36.1305 33.0596 36.0639 32.9662 35.9474Z" fill="#1B1A1A"></path><path d="M13.0608 34.9548C13.0608 35.3543 13.0608 35.7205 13.0608 36.1144C13.9402 36.1144 14.8031 36.1144 15.6879 36.1144C15.6879 36.4917 15.6879 36.8468 15.6879 37.2352C14.8196 37.2352 13.9512 37.2352 13.0608 37.2352C13.0608 37.6513 13.0608 38.0341 13.0608 38.4502C14.0831 38.4502 15.0889 38.4502 16.1166 38.4502C16.1166 38.8331 16.1166 39.1771 16.1166 39.5488C14.6877 39.5488 13.2697 39.5488 11.8242 39.5488C11.8242 37.6679 11.8242 35.7704 11.8242 33.8618C13.2312 33.8618 14.6327 33.8618 16.0617 33.8618C16.0617 34.2114 16.0617 34.5664 16.0617 34.9604C15.0724 34.9548 14.0721 34.9548 13.0608 34.9548Z" fill="#1B1A1A"></path><path d="M25.9616 36.0864C26.7365 36.0864 27.484 36.0864 28.2589 36.0864C28.2589 35.3484 28.2589 34.6161 28.2589 33.8615C28.6821 33.8615 29.0778 33.8615 29.4955 33.8615C29.4955 35.759 29.4955 37.6454 29.4955 39.5429C29.0943 39.5429 28.7041 39.5429 28.2809 39.5429C28.2809 38.7939 28.2809 38.0449 28.2809 37.2792C27.5005 37.2792 26.753 37.2792 25.9836 37.2792C25.9836 38.0283 25.9836 38.7717 25.9836 39.5374C25.5549 39.5374 25.1537 39.5374 24.7305 39.5374C24.7305 37.6454 24.7305 35.759 24.7305 33.856C25.1427 33.856 25.5384 33.856 25.9616 33.856C25.9616 34.605 25.9616 35.3373 25.9616 36.0864Z" fill="#1B1A1A"></path><path d="M65.7305 33.8281C66.2196 33.8281 66.6428 33.817 67.0605 33.8392C67.143 33.8448 67.2419 33.9447 67.2913 34.0279C67.6596 34.6326 68.0113 35.2485 68.3741 35.8588C68.418 35.9365 68.473 36.0086 68.5444 36.1196C68.8797 35.5592 69.2424 35.0432 69.5117 34.4884C69.7646 33.9613 70.1053 33.7227 70.6824 33.8281C70.8748 33.8614 71.0781 33.8337 71.3309 33.8337C71.2485 33.9724 71.1935 34.0556 71.1441 34.1388C70.5285 35.1209 69.902 36.0974 69.2919 37.085C69.2095 37.2181 69.1655 37.3901 69.16 37.5455C69.1435 38.2057 69.1545 38.8715 69.1545 39.554C68.7423 39.554 68.3521 39.554 67.9179 39.554C67.9179 39.3709 67.9179 39.1822 67.9179 38.9936C67.9124 38.4332 68.0168 37.8395 67.8684 37.318C67.72 36.8076 67.3188 36.3692 67.0275 35.9032C66.6538 35.3095 66.2856 34.7214 65.9118 34.1277C65.8569 34.039 65.8129 33.9613 65.7305 33.8281Z" fill="#1B1A1A"></path><path d="M46.4258 33.856C46.8325 33.856 47.2282 33.856 47.6514 33.856C47.6514 35.3706 47.6514 36.8687 47.6514 38.4C48.5967 38.4 49.5146 38.4 50.4544 38.4C50.4544 38.7939 50.4544 39.1546 50.4544 39.5429C49.1243 39.5429 47.7833 39.5429 46.4258 39.5429C46.4258 37.6565 46.4258 35.7646 46.4258 33.856Z" fill="#1B1A1A"></path></svg>