<svg xmlns:xlink="http://www.w3.org/1999/xlink" width="63" height="62" viewBox="0 0 63 62" fill="none" xmlns="http://www.w3.org/2000/svg" class="text-[#1B1A1A]"><g clip-path="url(#clip0_1719_19153)" fill="none"><path d="M32.9775 9.78528C33.3057 9.23853 33.6214 8.71247 33.9619 8.14618C33.282 8.19675 32.6473 8.24426 31.9743 8.29407C32.2365 7.98372 32.4772 7.69828 32.7184 7.41322C32.9985 7.08256 33.2767 6.74961 33.5606 6.4224C33.8614 6.07565 33.9539 5.64116 34.0693 5.21855C34.2749 4.46759 34.5924 3.77984 35.1607 3.23309C35.9193 2.50319 36.8517 2.23652 37.879 2.2074C39.4309 2.16334 40.6358 2.84075 41.6245 3.98214C41.9207 4.32429 42.1908 4.69134 42.5096 5.01089C42.9357 5.4381 43.3939 5.8335 43.844 6.23657C45.2676 7.5113 46.6953 8.78182 48.1158 10.06C48.2235 10.1569 48.2885 10.1585 48.4074 10.088C50.0537 9.10979 51.123 7.65728 51.8448 5.91435C52.1594 5.15495 52.3833 4.37486 52.4154 3.54765C52.4162 3.52964 52.425 3.51202 52.4379 3.46451C53.568 3.5603 54.6999 3.65647 55.8575 3.75455C55.8277 3.80704 55.8078 3.8488 55.7822 3.88674C55.1379 4.84958 54.5772 5.85496 54.2643 6.97873C54.2008 7.20632 54.1836 7.45766 54.2008 7.69406C54.2257 8.03008 54.4439 8.16763 54.763 8.05997C54.9521 7.99598 55.1333 7.89177 55.2991 7.77797C55.9515 7.33007 56.4231 6.70899 56.8763 6.07527C57.2615 5.53657 57.6276 4.98368 58.0025 4.43732C58.0491 4.3695 58.0954 4.3013 58.1538 4.21509C59.0122 4.9105 59.8602 5.59787 60.7135 6.28906C60.31 6.53045 59.9053 6.75459 59.5208 7.00938C59.2732 7.17375 59.0393 7.36724 58.8326 7.58027C58.7401 7.67529 58.6724 7.86035 58.695 7.98602C58.7263 8.16074 58.9185 8.21246 59.089 8.23238C59.5969 8.29216 60.0807 8.16035 60.5435 7.98679C61.1014 7.77759 61.6387 7.51284 62.1848 7.27145C62.2291 7.25191 62.2712 7.22701 62.3274 7.19789V10.5945C60.5167 10.6485 58.7542 10.942 56.9776 11.4619C57.0773 11.5608 57.148 11.6458 57.2325 11.7121C57.6593 12.0458 58.1653 12.198 58.6793 12.3259C58.9992 12.4056 59.3232 12.4688 59.6813 12.547C59.5533 13.4554 59.4249 14.3662 59.2927 15.3057C59.0038 15.1888 58.7351 15.0823 58.4687 14.9716C56.6848 14.2313 54.826 13.8551 52.8973 13.8118C52.7483 13.8083 52.6424 13.8455 52.5549 13.965C52.4234 14.1447 52.2782 14.3152 52.1517 14.4984C52.1238 14.539 52.1261 14.6332 52.1548 14.6754C53.4656 16.6087 54.6174 18.6371 55.6756 20.7161C56.8461 23.0157 57.9823 25.3337 59.0821 27.6683C60.0975 29.8238 61.0502 32.0097 62.0178 34.1875C62.2058 34.6105 62.3358 35.0595 62.5131 35.5534C61.015 34.7266 59.6213 33.8258 58.2058 32.922C58.2448 33.0446 58.2822 33.1676 58.3235 33.2894C58.8413 34.8162 59.363 36.3415 59.8735 37.8707C59.9473 38.0918 59.9939 38.3282 60.0103 38.5604C60.0321 38.8646 59.8831 39.0711 59.5816 39.0922C59.1337 39.1232 58.6774 39.1293 58.2322 39.0795C57.6876 39.0186 57.2546 39.1393 56.8901 39.5703C56.5121 40.0175 56.102 40.4385 55.6886 40.8539C55.2292 41.3156 54.6537 41.1884 54.411 40.5857C54.3755 40.4975 54.348 40.4041 54.3323 40.3106C54.0227 38.4619 53.717 36.6124 53.4079 34.7638C53.1094 32.9779 52.8079 31.1928 52.5083 29.407C52.4525 29.0736 52.4078 28.738 52.3393 28.407C52.3168 28.2974 52.256 28.1786 52.1773 28.1001C51.1898 27.1142 50.1699 26.1594 49.2156 25.1422C48.8025 24.7019 48.3401 24.4058 47.7967 24.195C47.6033 24.1199 47.4134 24.0372 47.1772 23.9395C47.1772 24.3728 47.1531 24.7671 47.1829 25.1575C47.2288 25.7598 47.314 26.359 47.3748 26.9602C47.3805 27.0173 47.3457 27.0939 47.3052 27.1384C47.0473 27.4207 46.7908 27.705 46.5161 27.9706C46.3686 28.1135 46.3238 28.2633 46.333 28.4629C46.3586 29.0238 46.3567 29.5863 46.3838 30.1472C46.3934 30.3445 46.3376 30.5051 46.2012 30.6273C45.7414 31.0388 45.2966 31.4718 44.8032 31.8392C43.5719 32.7564 42.3177 33.6503 40.9355 34.3239C40.1329 34.7151 39.2731 34.989 38.4346 35.3044C38.1136 35.4251 37.7758 35.5002 37.4544 35.6201C37.0302 35.7787 36.5923 35.8385 36.1455 35.84C34.7335 35.8454 33.3214 35.853 31.9093 35.8438C31.0694 35.8385 30.2286 35.7687 29.3902 35.7937C28.7638 35.8124 28.134 35.9032 27.5168 36.0205C26.5683 36.2002 25.634 36.458 24.6839 36.6255C24.2609 36.6998 23.8095 36.6688 23.377 36.6255C22.4678 36.5347 21.6244 36.2082 20.8081 35.8109C20.6881 35.7527 20.5887 35.7358 20.4737 35.8147C19.6857 36.353 18.8725 36.8573 18.1124 37.4328C16.9197 38.3358 15.7472 39.2669 14.5958 40.2221C13.6156 41.0351 12.4657 41.3899 11.2489 41.5876C10.9015 41.6439 10.5407 41.6328 10.1865 41.6278C9.95719 41.6244 9.77375 41.511 9.6144 41.3293C8.84932 40.4569 7.88552 40.0569 6.72568 40.155C6.54875 40.17 6.37372 40.209 6.19678 40.2244C6.13373 40.2297 6.0615 40.2098 6.00379 40.1807C5.37859 39.8642 4.94178 39.3569 4.60014 38.7604C3.87137 37.4883 3.57596 36.1094 3.59889 34.6511C3.60921 33.9787 3.68831 33.3231 3.85379 32.6668C4.03072 31.9649 4.50001 31.648 5.14203 31.5495C6.26939 31.3771 7.3379 31.0124 8.40029 30.6204C8.97772 30.407 9.54866 30.1752 10.1418 29.9445C9.88381 29.674 9.63159 29.4323 9.40574 29.1679C8.90932 28.5867 8.42704 27.9936 7.9375 27.4062C7.62298 27.0288 7.4598 26.5836 7.45178 26.1039C7.44184 25.52 7.22287 25.0161 6.97103 24.5127C6.72033 24.0115 6.48531 23.5023 6.23844 22.9989C6.17538 22.8701 6.20098 22.7697 6.28812 22.6667C6.41537 22.5157 6.54454 22.3655 6.65881 22.205C6.81243 21.9889 6.8388 21.7647 6.67983 21.5299C6.50518 21.2712 6.34276 21.0042 6.17538 20.7406C6.03895 20.5256 6.05729 20.3931 6.28315 20.2682C6.81778 19.9724 6.95918 19.5161 6.87816 18.9417C6.78033 18.249 6.89612 17.8409 7.6998 17.3566C8.51302 16.8662 9.42599 16.6459 10.3462 16.4739C11.1082 16.3313 11.8787 16.2371 12.6445 16.1152C12.7194 16.1034 12.8096 16.067 12.8558 16.0114C13.1692 15.634 13.473 15.2482 13.7791 14.8647C13.7933 14.847 13.8001 14.8233 13.841 14.7405C12.278 14.8999 10.7605 15.0547 9.20931 15.2129C9.36752 14.9122 9.5051 14.6409 9.65452 14.3765C9.67707 14.3371 9.75809 14.3083 9.80968 14.3114C10.7861 14.3715 11.7568 14.2853 12.7255 14.185C13.2311 14.1328 13.7333 14.0443 14.2392 13.9945C14.4651 13.9723 14.6233 13.8861 14.7337 13.6551C14.5904 13.4895 14.4414 13.3018 14.2763 13.129C13.1665 11.9684 12.0552 10.809 10.9378 9.65577C10.8266 9.54121 10.8029 9.45156 10.8728 9.31324C10.9989 9.06458 11.114 8.80979 11.2451 8.53354C12.3376 10.3121 13.7619 11.7324 15.3326 13.0616C15.7388 12.6493 16.1141 12.2516 16.5081 11.873C18.0688 10.3726 19.74 9.00749 21.551 7.82203C22.2286 7.37873 22.72 6.80133 23.0758 6.07833C23.5203 5.17449 23.9903 4.28138 24.6354 3.49861C25.5537 2.38442 26.7181 1.94572 28.1371 2.25453C28.6878 2.37446 29.0978 2.7304 29.4765 3.12887C29.5468 3.20282 29.6431 3.26642 29.7395 3.29822C30.4457 3.53233 31.155 3.75723 31.8631 3.98597C31.9154 4.00283 31.9655 4.0262 32.0431 4.05724C31.5165 4.35609 31.0151 4.64 30.4671 4.95112C31.0101 5.17373 31.5104 5.37871 32.0331 5.59289C31.5807 5.78446 31.1477 5.95726 30.7235 6.1496C29.6332 6.64462 28.6025 7.2339 27.761 8.1071C27.278 8.60825 26.9023 9.17799 26.6921 9.83087C27.0009 9.98796 27.2994 10.1397 27.5975 10.2918C27.6089 10.2975 27.6219 10.3021 27.6303 10.311C28.1226 10.8182 28.794 10.9612 29.4204 11.196C29.7039 11.3025 29.9879 11.4075 30.3035 11.5251C29.7681 11.8286 29.2618 12.1152 28.7195 12.4225C29.206 12.6937 29.6611 12.9482 30.1499 13.2206C28.5395 13.7156 27.0888 14.4129 25.9148 15.5957C25.9183 15.6149 25.9217 15.634 25.9252 15.6532C26.0616 15.6532 26.1976 15.6543 26.3341 15.6532C28.04 15.6352 29.746 15.5907 31.4511 15.606C33.0279 15.6198 34.6062 15.6639 36.1799 15.7582C37.2893 15.8244 38.3922 15.9972 39.4982 16.1218C39.541 16.1267 39.5849 16.1225 39.6415 16.1225C39.4993 15.8218 39.3575 15.5317 39.2245 15.2378C38.7461 14.1838 38.49 13.0696 38.3123 11.9305C38.2466 11.5102 38.1331 11.0968 38.0253 10.6841C37.8427 9.98413 37.347 9.66267 36.663 9.55692C35.7958 9.42282 34.9368 9.50673 34.0773 9.61554C33.7192 9.66076 33.3634 9.72474 32.9782 9.78451L32.9775 9.78528ZM8.40526 32.694C8.40449 32.6848 8.40373 32.6752 8.40296 32.666C8.78932 32.545 9.17339 32.4162 9.56319 32.3078C9.67783 32.276 9.81503 32.2771 9.93082 32.3066C10.3313 32.4078 10.7268 32.5277 11.1239 32.6411C11.8328 32.8438 12.5513 33.0181 13.2472 33.2584C13.9182 33.4902 14.5385 33.8362 15.0341 34.3641C15.2428 34.5864 15.4411 34.8143 15.3632 35.1691C15.1748 36.0278 15.0016 36.8902 14.8213 37.7508C14.741 38.1335 14.6581 38.5155 14.5709 38.9228C14.618 38.8991 14.6367 38.8941 14.6493 38.883C14.9871 38.5849 15.3142 38.2734 15.6643 37.9906C16.231 37.5331 16.8864 37.178 17.2972 36.5289C17.6469 36.732 17.9668 36.6094 18.2458 36.4082C18.5954 36.1557 18.9264 35.8741 19.2428 35.5802C19.6269 35.2235 20.004 34.8676 20.5093 34.6818C20.6824 34.6182 20.8264 34.622 20.9973 34.6998C21.7692 35.0507 22.5607 35.3469 23.4006 35.4925C23.9166 35.5822 24.4179 35.6032 24.9109 35.3595C25.1406 35.2461 25.402 35.1756 25.6569 35.1369C27.2948 34.8887 28.9461 34.7534 30.5997 34.7285C32.3114 34.7028 34.0246 34.7618 35.7366 34.7952C36.1008 34.8021 36.4482 34.7913 36.8028 34.6707C37.6745 34.3737 38.5745 34.1549 39.4347 33.83C41.3199 33.1178 42.9437 31.9936 44.3622 30.5618C44.7314 30.189 45.0513 29.8005 45.1728 29.2744C45.2339 29.0093 45.1961 28.8924 44.9404 28.7978C44.7872 28.7407 44.6233 28.6985 44.4605 28.6828C43.5811 28.597 42.748 28.7744 41.9757 29.1943C41.7483 29.3181 41.5607 29.2874 41.2905 29.1924C41.5507 28.9993 41.7655 28.8097 42.0078 28.6652C42.9425 28.1073 43.9652 27.784 45.0283 27.5855C45.2179 27.5503 45.3467 27.4851 45.4426 27.3081C45.983 26.3115 46.3537 25.2617 46.474 24.1295C46.5107 23.7842 46.3698 23.5416 46.0514 23.4019C46.0174 23.387 45.9837 23.3713 45.9371 23.3502C45.777 23.5448 45.6176 23.7341 45.4625 23.9268C45.0138 24.4835 44.5514 25.0276 43.9854 25.4705C43.499 25.851 42.7518 25.7717 42.4052 25.2866C42.0685 24.8154 41.7414 24.3349 41.4468 23.8364C40.8113 22.7621 40.2006 21.6732 39.5754 20.5931C39.5211 20.4996 39.434 20.4249 39.3468 20.3233C39.0392 20.7444 38.9777 21.205 38.9135 21.6793C38.7277 21.6119 38.5642 21.5433 38.3949 21.4939C38.2711 21.4575 38.2504 21.3812 38.2795 21.277C38.3884 20.8854 38.5004 20.4942 38.6116 20.1034C38.6253 20.0551 38.6582 20.0034 38.6502 19.9594C38.6081 19.726 38.4736 19.5513 38.2695 19.4375C38.0865 19.3356 37.9122 19.3877 37.7513 19.5011C37.4796 19.6923 37.3665 19.9827 37.2679 20.282C37.2484 20.341 37.2358 20.4264 37.193 20.4494C36.9786 20.5643 36.7554 20.6624 36.5059 20.7801C36.5556 20.1452 36.64 19.5624 36.9694 19.0452C37.3027 18.5226 37.8297 18.3084 38.4373 18.4444C39.0354 18.5781 39.4382 18.9754 39.7813 19.4502C40.4455 20.3697 41.1063 21.2916 41.7701 22.2111C41.9019 22.3935 42.041 22.5701 42.1981 22.7778C42.4545 22.1996 42.6899 21.6575 42.9372 21.1207C42.9972 20.99 42.9785 20.9092 42.8875 20.8011C42.0162 19.7662 41.2144 18.6793 40.4883 17.5371C40.397 17.3934 40.2957 17.3072 40.126 17.2662C38.9654 16.9838 37.7827 16.8494 36.5961 16.7758C35.1301 16.685 33.6611 16.608 32.1929 16.5938C29.882 16.5716 27.5707 16.6076 25.2598 16.6145C25.1349 16.6145 25.0638 16.6524 25.0023 16.7601C24.6048 17.454 24.306 18.1911 24.0461 18.9452C23.9013 19.3659 23.7664 19.79 23.6208 20.2306C23.3823 20.1823 23.1503 20.1352 22.91 20.0862C22.9214 20.0279 22.9256 19.9969 22.9337 19.967C23.2543 18.8022 23.6559 17.6701 24.2593 16.6175C25.0802 15.1869 26.2083 14.093 27.7305 13.4321C28.0201 13.3064 28.3171 13.1976 28.6415 13.0688C28.3087 12.8646 27.9976 12.6734 27.6689 12.4719C28.0687 12.219 28.4455 11.9803 28.8475 11.7259C28.7837 11.696 28.7569 11.6788 28.7279 11.6707C28.1669 11.5198 27.6598 11.2788 27.1698 10.9477C26.4193 10.4412 25.5984 10.3849 24.7963 10.8795C24.3385 11.1619 24.0419 11.5949 23.7836 12.0543C23.615 12.3539 23.4794 12.6754 23.2856 12.957C22.8007 13.6623 22.1281 14.1735 21.4303 14.6455C19.3269 16.0685 17.2158 17.4808 15.1071 18.8961C15.0559 18.9306 14.9906 18.977 14.9378 18.9701C14.6623 18.9352 14.3887 18.8854 14.0768 18.8344C14.1632 18.7708 14.2175 18.7291 14.2732 18.69C15.7575 17.6459 17.2399 16.5992 18.7277 15.5597C19.5886 14.9581 20.4435 14.3459 21.329 13.7826C22.026 13.3393 22.5744 12.8006 22.9356 12.0432C23.1469 11.6002 23.4457 11.1895 23.758 10.8075C24.2318 10.2278 24.8544 9.88911 25.616 9.83241C25.6833 9.82742 25.7746 9.75233 25.804 9.68681C26.576 7.95958 27.8478 6.72509 29.5216 5.88791C29.7746 5.76147 30.0429 5.66684 30.3417 5.54155C29.9424 5.37143 29.5702 5.21242 29.1731 5.04307C29.5782 4.77027 29.9508 4.51969 30.365 4.24076C30.0383 4.14115 29.757 4.04996 29.4723 3.97065C29.2904 3.92007 29.1441 3.83233 29.0061 3.69708C28.3958 3.09975 27.6754 2.83883 26.8248 3.04688C26.1632 3.20857 25.6737 3.62811 25.2545 4.14038C24.6851 4.83617 24.2613 5.62316 23.889 6.43504C23.5004 7.28218 22.9398 7.95958 22.1579 8.47223C21.5086 8.89791 20.8792 9.35615 20.2628 9.82857C18.7066 11.0202 17.2713 12.3478 15.9276 13.775C14.6554 15.1267 13.4738 16.5539 12.3835 18.057C12.0812 18.4739 11.7812 18.8919 11.4713 19.3218C11.2821 19.2107 11.0975 19.1026 10.8912 18.9816C11.2703 18.38 11.6402 17.7923 12.0315 17.1716C11.6624 17.2183 11.328 17.2536 10.9963 17.3038C10.2728 17.4133 9.54905 17.5306 8.87875 17.8448C8.16182 18.1808 8.07698 18.6693 8.62538 19.2383C9.11759 19.749 9.73363 20.0613 10.3703 20.3463C10.9397 20.6011 11.4973 20.6283 12.061 20.3413C12.1683 20.2866 12.2837 20.249 12.393 20.1981C13.1493 19.8459 13.9274 19.7862 14.7379 19.9843C16.3036 20.3666 17.7532 21.0191 19.1281 21.8498C19.2497 21.9234 19.3651 22.0065 19.5023 22.0977C19.229 22.2107 18.9864 22.3031 18.7506 22.4111C18.5977 22.4808 18.4697 22.4678 18.3203 22.3904C17.3924 21.9126 16.4519 21.4655 15.4495 21.159C14.3512 20.823 13.2995 20.8716 12.2742 21.4318C11.8917 21.641 11.4701 21.7801 11.0624 21.9406C10.997 21.9663 10.8984 21.9571 10.8335 21.9257C10.4956 21.7621 10.1632 21.587 9.82955 21.4142C9.29338 21.1364 8.73658 20.8927 8.27494 20.4881C8.18208 20.4069 8.08577 20.3295 7.98603 20.2467C7.91495 20.505 7.84807 20.7368 7.78922 20.9709C7.77776 21.0161 7.78234 21.0789 7.80565 21.1176C8.00552 21.4483 8.17558 21.8054 8.42283 22.0969C8.90015 22.6598 9.52765 23.0314 10.1953 23.3314C11.1935 23.7801 12.2318 24.0104 13.332 23.9C13.3847 23.8946 13.4585 23.9142 13.494 23.9502C13.6538 24.1119 13.8032 24.2839 13.9649 24.4613C13.5387 24.8065 13.0905 25.0774 12.5375 25.0383C12.1213 25.0088 11.7059 24.9372 11.297 24.851C10.1036 24.5989 9.03467 24.0916 8.13889 23.2456C7.95775 23.0747 7.77279 22.908 7.5905 22.7402C7.42121 23.0958 7.43114 23.4395 7.62986 23.7694C7.74145 23.9548 7.86183 24.1356 7.99023 24.31C8.46105 24.9495 9.06142 25.451 9.70726 25.9C10.6714 26.5702 11.6391 27.2127 12.8723 27.3039C13.8097 27.3732 14.7399 27.4453 15.6647 27.2338C16.2807 27.0932 16.8631 26.8797 17.2651 26.3453C17.4673 26.0767 17.7551 25.987 18.0719 25.987C18.3 25.987 18.5312 25.9985 18.7555 26.0376C19.8302 26.2253 20.8639 26.5617 21.8873 26.9303C22.2056 27.0449 22.5186 27.1748 22.8679 27.3112C22.6921 27.4016 22.5572 27.4594 22.4334 27.5365C22.1311 27.7242 21.8277 27.7139 21.5013 27.5951C21.042 27.4276 20.5765 27.2736 20.1072 27.1368C19.5745 26.9817 19.0311 26.851 18.4708 26.9276C17.8938 27.0066 17.457 27.2916 17.2644 27.8713C17.1616 28.1809 17.2334 28.3836 17.5101 28.5583C17.6484 28.6457 17.8009 28.7188 17.9565 28.7694C18.7399 29.0238 19.5508 29.0886 20.3679 29.0859C21.9248 29.0809 23.4637 28.871 25.0038 28.6725C25.0787 28.6629 25.1876 28.6606 25.23 28.7043C25.4096 28.8905 25.5705 29.0951 25.7429 29.2985C25.7131 29.3173 25.6993 29.3311 25.6829 29.3353C25.6336 29.3484 25.5839 29.3587 25.5338 29.3687C23.9697 29.6855 22.3864 29.8254 20.7943 29.8602C19.6486 29.8855 18.5049 29.8487 17.3664 29.6863C16.9319 29.6242 16.5968 29.4572 16.3881 29.0553C16.2765 28.8403 16.0877 28.7039 15.8653 28.6001C15.3284 28.3491 14.7609 28.3257 14.1846 28.3338C13.6828 28.3407 13.1803 28.348 12.6789 28.3326C12.1225 28.3158 11.5806 28.2288 11.0845 27.9411C10.7987 27.7752 10.4849 27.6583 10.2014 27.4889C9.63465 27.1502 9.04346 26.8387 8.62652 26.2997C8.58067 26.2403 8.54551 26.1725 8.50538 26.1085C8.48169 26.1292 8.45761 26.1499 8.43392 26.1702C8.60627 26.7299 8.74385 27.2993 9.21504 27.7223C9.57885 28.0491 9.92547 28.3997 10.2438 28.7706C10.5522 29.13 10.9221 29.3296 11.3842 29.3353C11.6287 29.3384 11.8867 29.3208 12.1164 29.2449C12.8574 29.0001 13.5697 29.0886 14.2805 29.356C15.187 29.6974 16.0201 30.1721 16.7897 30.7564C17.4104 31.2277 18.081 31.4246 18.8633 31.307C20.147 31.1135 21.2128 31.4993 21.9695 32.5982C22.276 33.043 22.4991 33.5281 22.5939 34.0645C22.6031 34.117 22.5943 34.2021 22.5607 34.2281C22.3665 34.3791 22.1621 34.5166 21.9465 34.6691C21.9271 34.6082 21.9137 34.5676 21.9007 34.5266C21.7283 33.9737 21.4822 33.4588 21.1096 33.0109C20.4493 32.2174 19.4373 31.9323 18.595 32.343C18.3199 32.4771 18.0948 32.7151 17.8059 32.9369C17.7998 32.9273 17.7734 32.8649 17.7291 32.8208C17.0427 32.143 16.3132 31.5193 15.4904 31.0101C14.3852 30.3261 13.2177 29.9648 11.91 30.2886C11.571 30.3725 11.216 30.4039 10.8893 30.5189C10.3802 30.6978 9.89375 30.9396 9.38931 31.1334C8.04718 31.6488 6.69893 32.1461 5.27884 32.4116C5.22381 32.422 5.15273 32.481 5.13401 32.5331C4.83898 33.3572 4.58905 34.1959 4.52523 35.0733C4.46218 35.9369 4.71937 36.7373 5.09617 37.5017C5.33731 37.9906 5.63425 38.4427 6.04468 38.8094C6.18188 38.932 6.31601 39.024 6.53231 38.9991C7.81635 38.8519 8.89671 39.2489 9.75732 40.2351C9.87426 40.3692 10.0596 40.4968 10.2293 40.5232C11.1396 40.6661 11.9933 40.4489 12.7626 39.9688C12.9846 39.8301 13.1237 39.5335 13.2617 39.2872C13.9125 38.1251 14.2908 36.9029 14.1693 35.5404C14.1028 34.7979 13.6943 34.3381 13.0832 34.0814C12.4836 33.8296 11.8313 33.7044 11.1992 33.5323C11.1052 33.5066 10.9928 33.5109 10.8977 33.5354C10.4792 33.6427 10.063 33.7591 9.64803 33.8787C9.11224 34.0331 8.57799 34.1932 8.04335 34.3511L8.02998 34.3266C8.67506 33.8883 9.32014 33.4503 10.0126 32.9798C9.43325 32.8771 8.91811 32.7859 8.40296 32.6944L8.40526 32.694ZM60.9023 33.6879C60.9142 33.6733 60.9264 33.6588 60.9382 33.6442C60.308 32.3292 59.6794 31.0139 59.0443 29.7012C59.0118 29.6338 58.9346 29.5805 58.8673 29.5384C58.5112 29.3158 58.1447 29.1093 57.7942 28.8779C55.9752 27.6763 54.3193 26.2767 52.8014 24.7111C51.3152 23.1778 49.9818 21.5253 48.8935 19.6812C48.7723 19.4758 48.6623 19.2639 48.5262 19.0176C48.7872 19.0471 49.0031 19.0613 49.2141 19.1007C49.2875 19.1145 49.37 19.177 49.4124 19.2413C49.6654 19.6241 49.8928 20.0241 50.1561 20.3992C51.5429 22.3762 53.1694 24.1376 54.9777 25.7322C55.9587 26.5974 56.9825 27.4062 58.15 28.0119C58.1901 28.0326 58.2345 28.0453 58.3067 28.0729C58.2673 27.9805 58.2452 27.9219 58.2184 27.8656C57.5894 26.5564 56.9638 25.2456 56.3298 23.9391C55.1948 21.5992 54.0067 19.2873 52.6711 17.0543C51.8586 15.6957 50.9819 14.385 49.9077 13.2118C47.9541 11.0784 45.8454 9.11171 43.6426 7.24272C42.8516 6.57144 42.0487 5.9155 41.3669 5.12238C40.9572 4.64613 40.525 4.17601 40.0404 3.78022C38.9823 2.91508 37.4208 2.83883 36.3049 3.54918C35.5318 4.04153 35.0743 4.77104 34.8156 5.6335C34.6853 6.06722 34.5114 6.46646 34.1866 6.79558C33.9795 7.00555 33.8021 7.24578 33.5721 7.51897C34.224 7.45383 34.8168 7.39483 35.4553 7.33122C35.0839 7.84349 34.7449 8.31093 34.3769 8.81822C34.4927 8.80174 34.5485 8.79484 34.6043 8.78603C35.2929 8.67607 35.9827 8.64695 36.6779 8.72626C37.801 8.85461 38.5584 9.43661 38.8626 10.5366C39.0354 11.1615 39.15 11.8029 39.275 12.4405C39.6063 14.1282 40.2694 15.675 41.2182 17.1038C42.0582 18.3681 42.9265 19.6107 43.9591 20.7279C44.0386 20.8138 43.9996 20.8712 43.9633 20.9448C43.6182 21.6486 43.3029 22.369 42.9177 23.0498C42.7029 23.4295 42.7622 23.7307 42.9636 24.0567C43.0239 24.1544 43.0866 24.2506 43.1542 24.3429C43.3354 24.592 43.5039 24.6314 43.7279 24.4253C44.2419 23.9517 44.7448 23.4651 45.2381 22.9694C45.4151 22.7916 45.5515 22.5728 45.7101 22.3682C46.2975 22.6333 46.8753 22.8935 47.4527 23.154C47.3503 22.9536 47.2273 22.7923 47.1023 22.6329C45.6321 20.7544 44.2671 18.8022 43.0388 16.7559C42.3364 15.5857 41.6711 14.3949 41.1693 13.1225C41.0837 12.9052 41.0711 12.6539 41.0555 12.4163C41.0459 12.273 41.1204 12.1106 41.2752 12.0983C41.4036 12.0884 41.5767 12.1347 41.6638 12.2221C41.798 12.357 41.8908 12.5409 41.9749 12.7167C42.2745 13.3432 42.5436 13.9849 42.8596 14.6026C43.6358 16.1191 44.5266 17.5689 45.4655 18.9888C46.5424 20.6172 47.6771 22.2027 48.968 23.669C50.1442 25.005 51.4161 26.2476 52.7291 27.4476C54.9697 29.4955 57.2886 31.4446 59.8594 33.0714C60.2007 33.2875 60.5545 33.4833 60.9027 33.6883L60.9023 33.6879ZM51.5662 13.7539C51.7092 13.5961 51.8601 13.4148 52.0264 13.2489C52.96 12.3175 54.0992 11.7144 55.3053 11.2332C57.2493 10.4569 59.2736 10.0056 61.354 9.80214C61.5115 9.78681 61.5802 9.73317 61.5768 9.57033C61.5703 9.25117 61.5776 8.93201 61.5753 8.61285C61.5749 8.54657 61.5581 8.48066 61.5462 8.39714C61.3326 8.45997 61.1446 8.51706 60.9554 8.5707C60.2649 8.76726 59.5793 8.99216 58.8459 8.94427C58.5257 8.92358 58.2272 8.84963 58.0243 8.57109C57.7961 8.25767 57.8072 7.81092 58.1091 7.43544C58.3422 7.14578 58.6296 6.89865 58.9036 6.64386C59.0213 6.53466 59.1658 6.4542 59.3141 6.34922C58.9491 6.03619 58.6044 5.7404 58.2536 5.43963C58.1974 5.50936 58.1565 5.55764 58.1187 5.60821C57.714 6.14922 57.3188 6.69788 56.9034 7.23007C56.4185 7.85115 55.8781 8.41706 55.1772 8.80212C54.9158 8.9458 54.635 9.05385 54.3376 9.00404C53.7029 8.89791 53.2737 8.50174 53.3261 7.75422C53.3849 6.91628 53.6712 6.13734 53.9864 5.3699C54.1137 5.0607 54.2593 4.75916 54.4034 4.43962C54.1129 4.39977 53.8431 4.36222 53.5726 4.32659C53.4969 4.31663 53.4189 4.32046 53.3448 4.30437C53.2248 4.27831 53.1831 4.31203 53.1606 4.44115C53.1052 4.76108 53.0505 5.08522 52.9496 5.39212C52.2316 7.57529 51.0117 9.396 49.0929 10.7048C49.0436 10.7385 48.9985 10.7784 48.971 10.7999C49.8465 11.7964 50.7068 12.7757 51.5666 13.7543L51.5662 13.7539ZM53.2126 29.0334C53.2126 29.1066 53.2065 29.1503 53.2133 29.1913C53.37 30.102 53.5279 31.0124 53.6861 31.9231C53.8821 33.053 54.0785 34.1829 54.2753 35.3128C54.5169 36.6998 54.7557 38.0876 55.003 39.4734C55.0733 39.8673 55.3691 39.9975 55.6928 39.7692C56.065 39.5067 56.3252 39.1389 56.493 38.7209C56.5545 38.5676 56.5392 38.3669 56.5087 38.1964C56.4303 37.758 56.3222 37.3251 56.2285 36.8895C55.7692 34.7534 55.3118 32.6174 54.847 30.4825C54.8276 30.3936 54.7611 30.3001 54.69 30.2396C54.4722 30.0537 54.239 29.8863 54.017 29.7055C53.7529 29.4901 53.4938 29.2683 53.213 29.033L53.2126 29.0334ZM55.6977 31.0683C55.7126 31.1606 55.7168 31.2085 55.7283 31.2549C56.0524 32.566 56.3764 33.8772 56.702 35.1879C56.9111 36.0285 57.119 36.8699 57.3345 37.709C57.4274 38.0711 57.6628 38.2948 58.0384 38.3439C58.2272 38.3684 58.4194 38.3818 58.6094 38.378C59.0703 38.3684 59.2365 38.132 59.1085 37.6852C59.0997 37.6546 59.0882 37.6251 59.0783 37.5944C58.5769 36.0362 58.0637 34.4814 57.5814 32.917C57.448 32.484 57.273 32.1181 56.8549 31.9074C56.8102 31.8848 56.7731 31.8469 56.7318 31.817C56.399 31.5756 56.0657 31.3342 55.6985 31.0683H55.6977ZM58.815 13.1769C58.6308 13.1344 58.4695 13.1029 58.3117 13.0593C57.4767 12.8275 56.6902 12.5029 56.06 11.875C56.0233 11.8382 55.9148 11.8378 55.8582 11.8627C55.3408 12.0891 54.8222 12.3148 54.3147 12.5623C54.074 12.6796 53.8557 12.8432 53.6272 12.9857C53.6314 13.0029 53.6356 13.0202 53.6398 13.0374C55.3821 13.1179 57.0517 13.5037 58.6617 14.2374C58.7141 13.8742 58.763 13.5374 58.815 13.1765V13.1769Z" fill="#1B1A1A"></path><path d="M6.72128 51.454C6.72128 51.6356 6.72052 51.8176 6.72128 51.9992C6.72931 53.8759 6.7358 55.7525 6.74574 57.6292C6.75109 58.63 6.76332 59.6304 6.76943 60.6311C6.77364 61.3028 6.41365 61.666 5.75022 61.6675C5.38718 61.6683 5.02413 61.671 4.66108 61.6687C4.07294 61.6649 3.69308 61.2871 3.6927 60.6951C3.69079 56.2702 3.69117 51.8448 3.6927 47.4199C3.6927 46.8869 4.04658 46.4693 4.57433 46.4524C5.29775 46.429 6.02461 46.4298 6.74688 46.4719C7.32317 46.5057 7.76036 46.8221 8.04239 47.3333C8.65155 48.4379 9.25764 49.5444 9.86451 50.6502C10.9044 52.5437 11.9442 54.4372 12.9837 56.3307C13.0536 56.4583 13.1228 56.5866 13.1919 56.715C13.2103 56.7135 13.2286 56.7123 13.247 56.7108C13.247 56.6422 13.247 56.5736 13.247 56.505C13.2328 53.9977 13.2187 51.4904 13.2049 48.9831C13.2026 48.5616 13.203 48.1402 13.2019 47.7187C13.2 47.0819 13.5699 46.7011 14.2046 46.6992C15.2491 46.6957 16.2935 46.698 17.3383 46.698C23.9049 46.698 30.4711 46.698 37.0377 46.698C37.1206 46.698 37.2035 46.6949 37.2861 46.7022C37.6273 46.7325 37.8719 46.9919 37.878 47.3363C37.8834 47.6428 37.8841 47.9494 37.8795 48.2559C37.8738 48.654 37.6189 48.9141 37.2215 48.9229C36.8966 48.9302 36.5718 48.9252 36.247 48.9252C29.6361 48.9252 23.0252 48.9252 16.4139 48.9252C16.2213 48.9252 16.1247 49.021 16.1242 49.2126C16.1242 53.0057 16.1242 56.7985 16.1242 60.5917C16.1242 61.3262 15.7818 61.6691 15.0484 61.6691C14.5643 61.6691 14.0797 61.6553 13.5963 61.6721C12.8308 61.6993 12.2878 61.3825 11.9155 60.7074C10.6388 58.3916 9.34707 56.0839 8.06188 53.7728C7.65603 53.0433 7.25362 52.3115 6.84892 51.5816C6.82293 51.5345 6.7893 51.4912 6.7595 51.446C6.74688 51.4486 6.73427 51.4517 6.72166 51.4544L6.72128 51.454Z" fill="#1B1A1A"></path><path d="M52.5873 56.9611C52.6152 57.4347 52.7573 57.8508 52.9977 58.2332C53.6187 59.2217 54.7262 59.642 55.9258 59.3612C56.5487 59.2152 57.0478 58.893 57.4131 58.3669C57.5855 58.1186 57.8106 57.9845 58.1186 57.9864C58.6685 57.9903 59.2188 57.9807 59.7691 57.9861C60.1211 57.9895 60.3489 58.3025 60.2686 58.6677C60.1134 59.3704 59.7451 59.9501 59.2219 60.4321C58.3727 61.2145 57.3489 61.6187 56.2239 61.7827C55.823 61.8409 55.4122 61.9056 55.0113 61.8807C52.8192 61.7451 50.9371 60.6658 50.049 58.2447C49.5067 56.7665 49.4972 55.2615 50.0643 53.7887C50.8129 51.8438 52.2174 50.6733 54.2959 50.3741C55.4733 50.2044 56.6186 50.3381 57.7082 50.8381C58.8886 51.3795 59.6908 52.286 60.1926 53.4699C60.5353 54.2791 60.6825 55.1301 60.6825 56.0075C60.6825 56.642 60.3764 56.9477 59.7424 56.9477C57.4498 56.9485 55.1569 56.9477 52.8643 56.9485C52.7772 56.9485 52.6901 56.9558 52.588 56.9604L52.5873 56.9611ZM57.6948 54.8148C57.6818 53.5335 56.3481 52.476 54.9142 52.594C53.7143 52.6929 52.525 53.8603 52.663 54.8148H57.6948Z" fill="#1B1A1A"></path><path d="M23.7738 56.9485C22.6209 56.9485 21.4683 56.9485 20.3153 56.9485C20.1403 56.9485 20.0673 57.0318 20.0964 57.1984C20.3658 58.7363 21.6922 59.6589 23.2285 59.3984C23.9473 59.2765 24.5095 58.9321 24.9234 58.3367C25.0758 58.1175 25.2807 57.9945 25.5486 57.9918C26.1172 57.9861 26.6862 57.9777 27.2549 57.9853C27.6107 57.9899 27.8381 58.3079 27.7563 58.662C27.5308 59.6367 26.9427 60.3493 26.1291 60.8881C25.2665 61.4593 24.305 61.731 23.2812 61.8409C22.1997 61.957 21.1763 61.7773 20.2076 61.308C18.9977 60.7218 18.1527 59.7719 17.6483 58.534C16.9562 56.8355 16.9398 55.1194 17.6957 53.4408C18.4844 51.6887 19.8495 50.6538 21.7591 50.3776C22.9369 50.2071 24.0857 50.3301 25.1733 50.8282C26.5471 51.4573 27.402 52.5493 27.8606 53.9703C28.0735 54.6301 28.1732 55.3098 28.169 56.0045C28.1652 56.6436 27.8514 56.9539 27.2125 56.9528C26.066 56.9512 24.9195 56.9524 23.7731 56.9524V56.9493L23.7738 56.9485ZM25.2287 54.8136C25.1882 53.8236 24.1774 52.509 22.4795 52.5929C21.0624 52.663 20.1327 53.8408 20.1434 54.8136H25.2287Z" fill="#1B1A1A"></path><path d="M29.9475 58.0018C30.2303 58.0018 30.5135 57.9926 30.7959 58.0045C31.0473 58.0152 31.2587 58.1202 31.3512 58.3708C31.5365 58.875 31.9255 59.1581 32.399 59.3336C33.1653 59.6179 33.9464 59.6049 34.7229 59.3739C35.0172 59.2865 35.2625 59.1137 35.4035 58.8267C35.6344 58.357 35.4907 57.9029 35.0065 57.7003C34.6213 57.539 34.2154 57.4206 33.8107 57.3129C33.0124 57.1006 32.2011 56.9351 31.4092 56.7014C30.6224 56.4688 29.9146 56.0715 29.4045 55.4045C28.5725 54.3171 28.6914 52.6768 29.6582 51.6592C30.3174 50.9653 31.1501 50.6109 32.0708 50.4412C33.4274 50.191 34.76 50.2626 36.041 50.809C36.8248 51.1435 37.5069 51.6224 37.8879 52.4167C38.0167 52.6849 38.0729 52.9971 38.1142 53.2956C38.1551 53.5922 37.93 53.8351 37.6292 53.8393C37.0885 53.8466 36.5473 53.8332 36.0066 53.8217C35.7811 53.8171 35.6347 53.6991 35.5407 53.4883C35.3432 53.045 34.974 52.7876 34.5303 52.6435C33.8921 52.4358 33.2394 52.4228 32.592 52.5952C32.1556 52.7117 31.8487 52.9719 31.7803 53.4539C31.741 53.7293 31.8166 53.9757 32.0566 54.0949C32.4231 54.2769 32.8079 54.4355 33.2004 54.5489C34.238 54.8485 35.2965 55.0795 36.3222 55.4133C37.1313 55.6765 37.779 56.2045 38.1424 57.0037C38.7313 58.2995 38.4978 60.1582 36.7181 61.1264C35.9974 61.5187 35.2201 61.7114 34.413 61.8229C33.2497 61.9835 32.1292 61.811 31.0439 61.4015C30.1634 61.0693 29.3983 60.5689 28.8954 59.7371C28.6669 59.3589 28.5771 58.947 28.6016 58.5095C28.6176 58.2198 28.8614 57.9911 29.1591 57.9853C29.4217 57.9803 29.6846 57.9842 29.9471 57.9842C29.9471 57.9895 29.9471 57.9953 29.9471 58.0007L29.9475 58.0018Z" fill="#1B1A1A"></path><path d="M8.76465 8.29647C8.7486 8.42252 8.7337 8.54206 8.71497 8.69073C8.52963 8.69073 8.34505 8.67425 8.16467 8.69379C7.66252 8.74858 7.26813 9.01372 6.95553 9.39342C6.79999 9.58231 6.63643 9.65127 6.39071 9.65051C5.54958 9.64859 4.74323 9.80645 4.04045 10.3072C3.49932 10.693 3.16608 11.2114 3.12786 11.8892C3.11831 12.0563 3.0606 12.1245 2.89972 12.1666C2.22751 12.3433 1.79796 12.8433 1.70892 13.5276C1.61835 14.2241 2.05515 14.9441 2.73424 15.2176C3.37932 15.4774 4.14057 15.2613 4.53916 14.659C4.69738 14.4199 4.84412 14.3644 5.12654 14.382C6.30625 14.4559 7.53832 13.672 7.71449 12.2846C9.00656 12.3111 9.77545 11.6728 9.98984 10.3831C10.1675 10.403 10.3166 10.4199 10.4679 10.4367C10.5165 10.9636 10.4836 11.4662 10.2715 11.9348C9.92908 12.6912 9.31763 13.0364 8.49906 13.0138C8.32403 13.0088 8.26747 13.0452 8.24913 13.2341C8.12454 14.5034 7.00215 15.3828 5.74142 15.2111C5.52207 15.1812 5.30538 15.1326 5.07915 15.0912C4.97941 15.2337 4.88081 15.39 4.76693 15.5337C4.04848 16.441 2.84354 16.6452 1.87745 16.0119C1.26104 15.6077 0.803214 15.0793 0.663345 14.3234C0.46386 13.2437 1.05849 12.1548 2.07999 11.7651C2.24279 11.703 2.29744 11.6256 2.30929 11.4544C2.37808 10.4812 2.78048 9.70032 3.66479 9.22866C4.27127 8.90529 4.92285 8.90069 5.58283 9.01295C5.67646 9.02904 5.76894 9.05127 5.87862 9.07425C6.09377 8.65816 6.40141 8.34589 6.93222 8.26505C6.77439 8.17999 6.66127 8.12329 6.55274 8.0593C6.29555 7.90796 6.10715 7.69454 6.03339 7.4022C5.99976 7.26925 5.94014 7.25201 5.81862 7.26849C4.53534 7.4409 3.41716 6.70373 3.10914 5.45314C3.03653 5.1585 3.0606 4.83589 3.06672 4.52707C3.06939 4.39987 3.06672 4.32515 2.94328 4.25121C2.35209 3.89794 1.91681 3.41595 1.77886 2.7167C1.59389 1.78029 2.06585 0.82396 2.94519 0.368016C3.86542 -0.109002 4.71992 0.067629 5.51289 0.671851C5.64474 0.772236 5.73378 0.781048 5.87938 0.709399C7.38622 -0.0308397 9.1128 0.568018 9.77927 2.05922C9.95851 2.46038 10.0365 2.88529 10.0197 3.32552C10.0151 3.44315 10.0254 3.51442 10.1786 3.51135C11.4558 3.48376 12.2958 4.50408 12.2404 5.72862C12.2377 5.79107 12.2404 5.85391 12.2587 5.93399C12.4685 5.45582 12.8117 5.14585 13.3448 5.06348C13.1568 4.60102 13.0532 4.15465 13.0807 3.67993C13.1675 2.19218 14.4725 1.1504 15.9274 1.42473C16.0558 1.44887 16.1051 1.41516 16.1643 1.31247C16.5759 0.595605 17.1847 0.141959 18.0059 0.0293143C18.9678 -0.102871 19.783 0.219355 20.3581 1.00021C20.9264 1.77148 21.0158 2.63701 20.5901 3.5102C20.4655 3.76576 20.2465 3.9807 20.0459 4.19029C19.9557 4.28454 19.9385 4.35044 19.9702 4.46807C20.1689 5.20218 20.1326 5.91138 19.6939 6.5589C19.2158 7.26427 18.5188 7.56313 17.6922 7.60565C17.5416 7.61332 17.3502 7.56581 17.2519 7.64129C17.1652 7.70795 17.1877 7.91141 17.1533 8.0524C16.968 8.80797 16.5985 9.42867 15.8448 9.73059C15.1283 10.0176 14.419 9.92254 13.7361 9.60376C12.7142 9.12675 12.1616 8.2685 11.8655 7.21868C11.7478 6.8022 11.6778 6.37154 11.554 5.95697C11.3729 5.34969 11.0809 4.79566 10.4824 4.5129C10.1389 4.35044 9.74947 4.28531 9.36043 4.17075C9.3333 3.9991 9.31763 3.77572 9.26107 3.56269C8.9649 2.44505 8.29804 1.68374 7.14432 1.41822C6.66739 1.30864 6.19351 1.36726 5.73378 1.52282C5.62334 1.56037 5.55111 1.54887 5.45748 1.47952C5.04361 1.17186 4.59305 0.997526 4.06491 1.12281C3.49855 1.2573 3.04341 1.7439 2.94978 2.32628C2.84965 2.94927 3.07895 3.47342 3.61626 3.79143C3.76644 3.88032 3.81613 3.97496 3.82453 4.14814C3.88415 5.37229 4.70273 6.25315 5.94358 6.43093C6.23822 6.47307 6.53898 6.47461 6.85082 6.49568C7.07629 7.50029 7.7764 8.03401 8.76312 8.29685L8.76465 8.29647ZM16.6229 6.9363C16.6527 6.93247 16.6714 6.92825 16.6902 6.92825C18.2215 6.93553 19.2724 5.41444 19.1711 4.21941C19.1577 4.05925 19.2074 3.9535 19.3022 3.82821C19.4344 3.65388 19.5529 3.45541 19.6213 3.24851C19.8162 2.65923 19.7669 2.07915 19.3247 1.6232C18.8723 1.15691 18.2979 0.933157 17.6375 1.09599C17.1537 1.21515 16.8526 1.57378 16.6118 1.98451C16.5534 2.08451 16.4937 2.12321 16.3757 2.12857C16.1418 2.1393 15.9041 2.15616 15.6767 2.20865C14.6743 2.44084 13.9643 3.28414 13.9207 4.30906C13.9062 4.6493 13.9543 4.99221 13.9753 5.3585C13.5546 5.55965 13.1667 5.85084 12.9236 6.30027C12.676 6.75813 12.6481 7.2363 12.8243 7.7229C13.1216 8.54475 13.9964 9.0915 14.8405 8.99111C15.9155 8.86314 16.4865 8.20911 16.6229 6.93553V6.9363Z" fill="#1B1A1A"></path><path d="M42.5311 50.7119C42.8035 50.7119 43.0443 50.7119 43.2851 50.7119C43.6672 50.7119 44.0494 50.7073 44.4315 50.7119C44.8725 50.7172 45.0724 50.9195 45.0758 51.3571C45.0781 51.6253 45.0785 51.8935 45.0743 52.1617C45.0682 52.5521 44.8469 52.7805 44.456 52.7847C43.877 52.7912 43.2981 52.7897 42.7191 52.7839C42.5842 52.7828 42.5273 52.8153 42.528 52.9644C42.5345 54.5989 42.5269 56.2334 42.5402 57.8679C42.5479 58.7832 43.2086 59.4216 44.1224 59.433C44.1923 59.4338 44.2626 59.4311 44.3326 59.4315C44.7789 59.4334 45.0269 59.6829 45.0285 60.1327C45.0296 60.4262 45.0327 60.7197 45.0269 61.0131C45.0189 61.4005 44.7449 61.6706 44.3566 61.6668C43.8094 61.6614 43.2606 61.6722 42.716 61.63C41.1492 61.5089 39.8422 60.2101 39.689 58.6453C39.6699 58.4487 39.6599 58.2507 39.6599 58.053C39.6576 56.3801 39.6588 54.7073 39.6584 53.0345C39.6584 52.8697 39.5751 52.787 39.4085 52.7862C39.2812 52.7858 39.154 52.7878 39.0267 52.7858C38.7046 52.7812 38.4401 52.5632 38.4164 52.2445C38.3923 51.9207 38.3874 51.5931 38.4053 51.269C38.4237 50.9395 38.6686 50.7264 39 50.7138C39.1524 50.708 39.3064 50.7015 39.4582 50.7138C39.6221 50.7272 39.6619 50.6609 39.6611 50.5061C39.6557 49.4973 39.6588 48.4885 39.6588 47.4796C39.6588 46.8727 39.9794 46.5501 40.589 46.5471C40.9329 46.5451 41.2768 46.5459 41.6208 46.5471C42.2036 46.549 42.5292 46.8731 42.5307 47.4616C42.5334 48.4578 42.5315 49.4536 42.5315 50.4498C42.5315 50.5253 42.5315 50.6011 42.5315 50.7119H42.5311Z" fill="#1B1A1A"></path><path d="M48.7304 54.1295C48.7304 56.3257 48.7197 58.5223 48.7376 60.7185C48.7422 61.279 48.2939 61.6848 47.7948 61.6714C47.4005 61.6607 47.0053 61.6714 46.6105 61.6676C46.1095 61.6633 45.7625 61.3112 45.7606 60.807C45.7549 59.3396 45.7511 57.8725 45.7453 56.405C45.7343 53.4437 45.7216 50.4824 45.7109 47.521C45.7087 46.8923 46.048 46.5517 46.6744 46.549C47.0561 46.5474 47.4383 46.5451 47.8201 46.549C48.3639 46.5536 48.7296 46.9222 48.73 47.4639C48.7307 49.6858 48.73 51.9077 48.73 54.1295H48.7304Z" fill="#1B1A1A"></path><path d="M55.2577 48.8748C53.8185 48.8748 52.3797 48.8748 50.9405 48.8748C50.5247 48.8748 50.3642 48.7139 50.3623 48.2963C50.3615 48.1239 50.3562 47.9514 50.3623 47.779C50.3737 47.4645 50.5423 47.2767 50.851 47.2445C51.8886 47.1361 52.9265 47.0334 53.9641 46.9265C55.1598 46.8032 56.3552 46.6763 57.551 46.5541C58.2278 46.4848 58.9054 46.4177 59.5829 46.3568C60.0396 46.3158 60.3747 46.6131 60.387 47.0714C60.3965 47.4285 60.3958 47.7863 60.387 48.1438C60.3767 48.5637 60.0453 48.8741 59.612 48.8748C58.1601 48.8767 56.7083 48.8756 55.2565 48.8756L55.2577 48.8748Z" fill="#1B1A1A"></path><path d="M5.15234 3.15255C5.27693 3.03531 5.38737 2.93148 5.51845 2.80811C6.97828 3.71195 8.23672 4.8725 9.4256 6.14225C9.31784 6.27865 9.21542 6.39895 9.12446 6.52731C9.05491 6.62539 8.99377 6.62156 8.90587 6.55183C8.38194 6.13688 7.83431 5.74952 7.3356 5.30622C6.67485 4.71886 6.05079 4.09011 5.41488 3.47516C5.31973 3.38321 5.24597 3.26903 5.15234 3.15255Z" fill="#1B1A1A"></path><path d="M4.25172 13.3807C4.13554 13.2271 4.04421 13.1064 3.94141 12.9704C4.94036 11.9428 6.07345 11.1202 7.36322 10.478C7.42513 10.5953 7.49698 10.6903 7.52258 10.7964C7.53596 10.852 7.48475 10.9481 7.43354 10.9903C6.80107 11.5129 6.17434 12.0432 5.52315 12.5409C5.12571 12.8443 4.68814 13.0953 4.25133 13.3807H4.25172Z" fill="#1B1A1A"></path><path d="M43.452 26.7456C43.2839 26.9962 43.1428 27.2238 42.9812 27.4357C42.943 27.4859 42.8379 27.4989 42.7618 27.5047C42.1408 27.5533 41.5183 27.5867 40.8981 27.646C40.673 27.6675 40.4529 27.7472 40.2312 27.802C39.8127 27.9058 39.5498 28.2173 39.3045 28.5338C38.8952 29.0622 38.5081 29.6085 38.1114 30.1468C37.9452 30.3721 37.7785 30.597 37.5974 30.8423C37.6838 30.9032 37.7709 30.9733 37.8657 31.0308C38.8879 31.648 39.9431 31.6258 41.0131 31.1779C41.5408 30.9568 42.0029 30.6265 42.4217 30.2407C42.5551 30.1181 42.6609 30.1089 42.8016 30.1978C42.8803 30.2476 42.9663 30.2855 43.0989 30.3549C42.8077 30.6641 42.5494 30.9691 42.2597 31.2403C41.6723 31.7905 40.9577 32.1243 40.2037 32.3737C40.0795 32.4147 39.9262 32.4024 39.7936 32.3775C38.9067 32.2101 38.0208 32.0365 37.1365 31.8549C36.9642 31.8197 36.8174 31.8484 36.6584 31.9101C35.0522 32.5312 33.4506 33.1664 31.8303 33.7496C31.4359 33.8917 30.9788 33.8952 30.5501 33.8975C29.4972 33.9032 28.444 33.8691 27.3908 33.8565C27.2188 33.8545 27.0916 33.7971 26.975 33.6695C26.795 33.4726 26.5974 33.2917 26.3895 33.0856C26.7209 33.1266 27.0224 33.1844 27.3262 33.1982C28.4566 33.2488 29.5763 33.1488 30.6827 32.9109C31.0354 32.835 31.1145 32.6603 30.9762 32.325C30.6827 31.6143 30.2012 31.0606 29.592 30.6047C29.3738 30.4411 29.1468 30.4066 28.8904 30.4671C28.225 30.6239 27.6411 30.9672 27.0434 31.2771C26.62 31.4967 26.2038 31.7308 25.7873 31.9637C25.4043 32.1779 25.0016 32.2465 24.5728 32.1495C23.5241 31.912 22.5367 31.5154 21.5469 30.9928C21.7903 30.8898 21.994 30.7909 22.2072 30.7208C22.2718 30.6993 22.3628 30.7557 22.4411 30.7783C22.923 30.9166 23.4019 31.0691 23.888 31.1905C24.4371 31.3277 24.9515 31.2016 25.4598 30.966C26.6188 30.4288 27.7836 29.902 28.9576 29.3986C29.2725 29.2637 29.6283 29.2208 29.9684 29.1491C30.1435 29.1123 30.2592 29.2074 30.3613 29.3545C31.0194 30.3016 31.6881 31.2411 32.347 32.1875C32.4398 32.3208 32.527 32.3469 32.6802 32.2951C33.6765 31.9584 34.6514 31.5771 35.5475 31.0147C36.2155 30.5955 36.7349 30.0173 37.2515 29.4365C37.7258 28.9035 38.2004 28.3702 38.6556 27.8211C39.1379 27.2395 39.7432 26.905 40.4926 26.8598C41.4251 26.8035 42.359 26.7694 43.2927 26.7273C43.3347 26.7253 43.3775 26.7372 43.452 26.7472V26.7456Z" fill="#1B1A1A"></path><path d="M12.8602 25.9663C13.1525 25.7881 13.4151 25.6233 13.6837 25.4689C13.7204 25.4479 13.793 25.4636 13.837 25.4862C14.0556 25.5969 14.27 25.5919 14.5012 25.5168C15.1814 25.2958 15.7543 24.9057 16.2683 24.4191C16.4525 24.2448 16.4884 24.0099 16.3176 23.8402C15.8922 23.4176 15.455 22.9953 14.8207 22.9145C14.3154 22.8501 13.8114 22.8927 13.339 23.0869C13.1319 23.172 12.9806 23.1574 12.8224 23.0183C12.7796 22.9808 12.7287 22.9528 12.6328 22.8865C12.9947 22.6689 13.3241 22.4482 13.6738 22.2658C14.4194 21.8769 15.1447 21.9769 15.8536 22.3892C16.3814 22.6961 16.9156 22.9969 17.5133 23.1467C17.7197 23.1984 17.9459 23.2333 18.1534 23.2049C18.6781 23.1333 19.1803 23.2103 19.6805 23.3498C19.76 23.372 19.8414 23.3877 19.922 23.4038C20.1445 23.4486 20.3218 23.3839 20.4498 23.1896C21.0983 22.2068 22.0816 21.8654 23.186 21.7516C23.8498 21.6831 24.5079 21.7229 25.1641 21.8325C25.2195 21.8417 25.2745 21.8555 25.3513 21.872C25.1832 22.0873 25.0345 22.2938 24.866 22.4827C24.8224 22.5314 24.7177 22.5367 24.6397 22.5413C24.0627 22.5731 23.4818 22.5723 22.909 22.6394C22.6082 22.6746 22.2933 22.7781 22.0334 22.9333C21.4652 23.2724 21.4885 23.9773 22.0579 24.3157C22.5192 24.59 23.0297 24.7099 23.5579 24.7873C24.347 24.903 25.1033 24.7287 25.8604 24.5636C26.8712 24.3429 27.8777 24.1049 28.9077 23.8693C29.012 24.0498 29.1354 24.2636 29.2722 24.5003C29.1236 24.5502 28.9883 24.595 28.8534 24.641C27.4543 25.118 26.0296 25.4923 24.566 25.7065C23.6859 25.8352 22.8421 25.6831 22.0308 25.3452C21.4442 25.1007 20.8652 24.8364 20.2901 24.5655C19.3629 24.1287 18.4851 24.2731 17.6306 24.7647C17.0628 25.0915 16.5075 25.4425 15.9258 25.7421C15.3278 26.0498 14.6823 26.2337 14.0051 26.2536C13.6176 26.2651 13.229 26.2329 12.8606 25.967L12.8602 25.9663Z" fill="#1B1A1A"></path><path d="M33.2595 30.6323C33.1663 30.4258 33.0936 30.2645 33.0172 30.0959C33.4357 29.8273 33.8511 29.5699 34.2569 29.2982C35.0717 28.7526 35.8929 28.2089 36.5816 27.5055C36.88 27.2005 37.1017 26.817 37.3405 26.4576C37.4651 26.2702 37.5522 26.058 37.6566 25.8568C37.6432 25.8434 37.6298 25.8296 37.6168 25.8162C37.4945 25.8717 37.37 25.9239 37.25 25.984C35.9988 26.6093 34.7488 27.2377 33.4968 27.861C33.1036 28.0568 32.705 28.24 32.254 28.2587C31.7454 28.2802 31.3751 28.0442 31.1569 27.6047C30.8833 27.0538 30.4499 26.8051 29.8522 26.7664C28.2884 26.666 26.8164 26.9718 25.4387 27.7243C25.4165 27.7365 25.3905 27.7457 25.373 27.763C25.1058 28.0254 24.8318 27.981 24.5399 27.8005C24.374 27.6978 24.1894 27.6246 23.9766 27.5197C25.1169 26.9836 26.2527 26.5097 27.4435 26.215C28.6373 25.9196 29.8556 25.7258 31.0675 25.4867C31.1764 25.6729 31.27 25.853 31.3816 26.0208C31.6606 26.44 31.9972 26.797 32.5273 26.8606C32.7153 26.8833 32.9282 26.8633 33.1032 26.7951C33.7123 26.5576 34.3142 26.2997 34.9116 26.0327C36.0725 25.5143 37.2278 24.984 38.3869 24.4618C38.4641 24.4269 38.568 24.3802 38.633 24.4058C38.7969 24.4702 38.949 24.5675 39.0965 24.666C39.1214 24.6825 39.1118 24.7763 39.095 24.8265C38.8493 25.5491 38.6169 26.2771 38.346 26.9905C38.1392 27.535 37.6833 27.8871 37.2469 28.2384C36.3699 28.9442 35.3763 29.4657 34.4025 30.0174C34.0334 30.2266 33.6554 30.4201 33.2595 30.6327V30.6323Z" fill="#1B1A1A"></path><path d="M35.9859 20.9452C36.0401 21.1602 36.0997 21.3743 36.1444 21.5916C36.1536 21.636 36.1204 21.7188 36.0825 21.7395C35.1902 22.2242 34.2765 22.6709 33.2542 22.7839C32.7211 22.8429 32.1735 22.8364 31.6377 22.795C30.6747 22.7207 29.7166 22.5835 28.7539 22.5C28.167 22.4491 27.5979 22.5981 27.0652 22.8291C26.654 23.0077 26.2741 23.2583 25.8775 23.4717C25.8221 23.5016 25.7475 23.5238 25.6883 23.5131C25.5072 23.4813 25.3291 23.4318 25.0898 23.3747C25.3558 23.1077 25.5878 22.8494 25.8454 22.6211C26.659 21.8992 27.6167 21.5398 28.6978 21.4295C29.7426 21.3226 30.7771 21.2923 31.8131 21.4858C32.2312 21.564 32.6489 21.677 33.07 21.6969C33.7984 21.7314 34.4867 21.4916 35.1707 21.2697C35.4417 21.182 35.7011 21.0598 35.9859 20.9448V20.9452Z" fill="#1B1A1A"></path><path d="M39.583 23.7353C39.0255 23.4544 38.4652 23.3579 37.8767 23.3433C37.3646 23.3307 36.9569 23.4997 36.5827 23.8391C35.9598 24.4043 35.2211 24.7583 34.3899 24.8774C33.5423 24.9989 32.6909 24.9721 31.8452 24.8296C31.6889 24.8031 31.5345 24.7564 31.377 24.7453C31.2016 24.7326 31.1256 24.6522 31.0916 24.4832C31.051 24.2797 30.9811 24.082 30.9219 23.874C31.3717 23.769 31.8081 23.8487 32.243 23.8813C33.0459 23.9414 33.8511 23.9905 34.6158 23.6866C34.9288 23.5621 35.2479 23.387 35.4867 23.1548C36.1899 22.4701 37.0291 22.3222 37.9409 22.4659C38.4461 22.5456 38.9383 22.7069 39.4363 22.8311C39.5872 22.8686 39.6518 22.9456 39.622 23.118C39.5888 23.31 39.5957 23.5088 39.5834 23.7357L39.583 23.7353Z" fill="#1B1A1A"></path><path d="M20.1738 19.9159C20.1011 19.8266 20.0255 19.7335 19.9414 19.6301C20.131 19.4209 20.3515 19.1944 20.5525 18.9515C21.0172 18.391 21.4536 17.8105 21.7001 17.1124C21.7276 17.0346 21.7444 16.953 21.7658 16.8729C21.8426 16.586 22.0884 16.4388 22.3631 16.5151C22.5871 16.5771 22.7254 16.8273 22.6165 17.0898C22.4686 17.4457 22.3024 17.8044 22.0803 18.1162C21.5805 18.8174 20.9358 19.3791 20.2445 19.8864C20.2299 19.8971 20.2104 19.9009 20.1745 19.9155L20.1738 19.9159Z" fill="#1B1A1A"></path><path d="M28.0221 4.4953C28.0221 4.81599 27.7638 5.07921 27.4466 5.08228C27.121 5.08496 26.8482 4.81407 26.8516 4.49185C26.8554 4.16081 27.1034 3.91406 27.4329 3.91406C27.7871 3.91406 28.0221 4.14587 28.0221 4.4953Z" fill="#1B1A1A"></path><path d="M25.5078 12.1167C25.5078 11.78 25.7497 11.5324 26.078 11.5332C26.3967 11.534 26.6699 11.7957 26.6768 12.106C26.6833 12.4068 26.3864 12.7053 26.0791 12.7072C25.7661 12.7091 25.5078 12.4416 25.5078 12.1167Z" fill="#1B1A1A"></path><path d="M37.1183 4.96941C37.5078 4.97707 37.8391 5.29049 37.8322 5.6449C37.8246 6.04299 37.494 6.34644 37.0744 6.33992C36.6896 6.33418 36.3991 6.02536 36.4064 5.62995C36.4136 5.23991 36.7136 4.96136 37.1183 4.96941Z" fill="#1B1A1A"></path><path d="M15.0905 6.58921C14.9567 6.47311 14.8333 6.36583 14.6953 6.24591C14.9204 5.91679 15.1226 5.58383 15.3618 5.27961C16.0306 4.42826 16.7146 3.58879 17.3926 2.74433C17.3964 2.73935 17.3994 2.73322 17.404 2.72901C17.7441 2.41023 17.6173 2.40218 18.0182 2.70602C17.2947 4.1842 16.3241 5.47617 15.0908 6.58882L15.0905 6.58921Z" fill="#1B1A1A"></path></g><defs><clipPath id="clip0_1719_19153"><rect width="61.887" height="61.887" fill="white" transform="translate(0.625)"></rect></clipPath></defs></svg>