<svg xmlns:xlink="http://www.w3.org/1999/xlink" width="67" height="38" viewBox="0 0 67 38" fill="none" xmlns="http://www.w3.org/2000/svg" class="text-[#1B1A1A]"><path d="M52.7981 32.452C52.5138 32.3787 52.2393 32.2662 51.9501 32.2369C50.6511 32.1001 49.5335 31.5624 48.5384 30.7413C47.1805 29.622 46.21 28.2534 45.8668 26.5134C45.7394 25.8633 45.6463 25.1937 45.6414 24.5338C45.6168 21.2834 45.6119 18.038 45.6414 14.7876C45.6561 13.0427 46.1266 11.4151 47.2541 10.0269C48.5482 8.43841 50.1805 7.40709 52.2491 7.13338C52.6952 7.07473 53.1461 7.06495 53.5971 7.06006C56.048 7.05518 58.499 7.05518 60.9548 7.05518C61.3666 7.05518 61.396 7.08939 61.396 7.4853C61.3911 8.79033 61.3813 10.0954 61.3911 11.4004C61.3911 11.6888 61.3078 11.7865 61.0088 11.7865C58.7588 11.7816 56.5137 11.7914 54.2638 11.8061C53.6902 11.811 53.102 11.811 52.5383 11.9087C51.4746 12.0896 50.5089 13.2284 50.4648 14.2988C50.4452 14.7094 50.4599 15.1249 50.4599 15.5354C50.4599 18.3264 50.4599 21.1173 50.4599 23.9131C50.4599 24.2845 50.4501 24.656 50.4599 25.0226C50.4942 26.2152 51.3373 27.271 52.5089 27.5544C52.9305 27.6571 53.3716 27.7157 53.8079 27.7206C54.8128 27.7353 55.8226 27.75 56.8225 27.6718C58.2882 27.5593 59.4892 26.5427 59.5137 24.9199C59.5284 24.0841 59.5382 23.2434 59.5627 22.4076C59.5725 22.0753 59.3568 22.0948 59.1313 22.0948C57.4206 22.1144 55.7049 22.129 53.9942 22.1486C53.9108 22.1486 53.8226 22.1486 53.7393 22.1486C53.455 22.1486 53.3324 22.0459 53.3373 21.7282C53.3569 20.4037 53.352 19.0742 53.3373 17.7496C53.3324 17.4661 53.4059 17.3586 53.7099 17.3586C57.1265 17.3684 60.5431 17.3684 63.9597 17.3635C64.2587 17.3635 64.342 17.4612 64.342 17.7496C64.3322 19.9589 64.3518 22.1681 64.3322 24.3725C64.3126 26.1908 63.945 27.9064 62.7685 29.3776C61.6999 30.7168 60.3715 31.6699 58.7049 32.1196C58.3274 32.2223 57.9255 32.2174 57.5235 32.3151C57.6608 32.3542 57.8029 32.3933 57.9402 32.4373C56.2245 32.452 54.5089 32.452 52.7981 32.452Z" fill="#1B1A1A"></path><path d="M24.1994 32.4516C24.1651 32.2561 24.1063 32.0606 24.1063 31.865C24.0965 23.8833 24.0965 15.9016 24.0916 7.9199C24.0916 7.74883 24.0866 7.57776 24.0572 7.41157C24.0131 7.17696 24.1112 7.09876 24.3268 7.09387C24.7435 7.08409 25.1602 7.05966 25.5768 7.05966C28.7042 7.05477 31.8267 7.06943 34.9541 7.05477C37.2923 7.04499 39.2139 7.92479 40.7677 9.62573C41.8413 10.7988 42.5079 12.1576 42.6207 13.7559C42.6697 14.4206 42.7334 15.0854 42.7334 15.755C42.7432 20.8725 42.7383 25.9851 42.7383 31.1026C42.7383 31.5522 42.7187 32.0019 42.704 32.4565C41.1403 32.4565 39.5766 32.4565 38.0129 32.4565C37.9982 32.3098 37.9737 32.1632 37.9737 32.0166C37.9688 31.2541 37.9639 30.4867 37.9639 29.7242C37.9639 24.768 37.9688 19.8118 37.9639 14.8605C37.9639 14.0345 37.7531 13.2818 37.1404 12.6561C36.4541 11.9572 35.5914 11.8057 34.6747 11.8057C32.8316 11.7959 30.9934 11.8057 29.1503 11.8008C28.8807 11.8008 28.7826 11.9181 28.7974 12.1674C28.8219 12.5291 28.8513 12.8859 28.8513 13.2476C28.8562 19.2448 28.8562 25.2372 28.8513 31.2345C28.8513 31.6402 28.8317 32.0508 28.817 32.4565C27.2827 32.4516 25.7435 32.4516 24.1994 32.4516Z" fill="#1B1A1A"></path><path d="M2.41506 7.03516C2.518 7.0596 2.61604 7.10358 2.71897 7.10358C4.11111 7.09381 5.49834 7.08403 6.89047 7.0596C7.2091 7.05471 7.27772 7.20134 7.27772 7.49461C7.26792 14.0442 7.27282 20.5938 7.26792 27.1385C7.26792 27.6371 7.26792 27.642 7.76301 27.6273C9.74337 27.5686 11.4639 26.8355 12.9737 25.594C14.2188 24.5724 15.155 23.3163 15.758 21.8353C16.1305 20.9262 16.3217 19.9731 16.3217 18.9857C16.3217 15.1635 16.3266 11.3462 16.3168 7.52393C16.3168 7.22089 16.3805 7.08403 16.7187 7.08892C18.0766 7.09381 19.4393 7.07426 20.7971 7.0596C21.0422 7.05471 21.1598 7.1378 21.1598 7.41151C21.15 11.1702 21.2432 14.9289 21.1255 18.6827C21.003 22.6564 19.6207 26.1414 16.4638 28.771C14.5129 30.3987 12.2825 31.474 9.78749 32.0116C8.67966 32.2511 7.55713 32.2071 6.4346 32.1973C6.30715 32.1973 6.165 32.168 6.05225 32.212C5.9199 32.2609 5.81206 32.3733 5.68951 32.4564C4.59639 32.4564 3.50818 32.4564 2.41016 32.4564C2.41506 23.9761 2.41506 15.5056 2.41506 7.03516Z" fill="#1B1A1A"></path></svg>