<svg xmlns:xlink="http://www.w3.org/1999/xlink" width="92" height="23" viewBox="0 0 92 23" fill="none" xmlns="http://www.w3.org/2000/svg" class="text-[#1B1A1A]"><g clip-path="url(#clip0_1719_19260)" fill="none"><path d="M72.3828 4.45472C73.974 2.72295 75.8721 1.59138 78.1259 1.08277C78.9443 0.897872 79.7739 0.794898 80.6147 0.813103C82.6286 0.85691 84.5053 1.38202 86.2263 2.45328C86.9418 2.89874 87.5955 3.42328 88.2031 4.00812C88.4689 4.26413 88.4644 4.27153 88.3144 4.60093C87.3881 6.63594 86.885 8.75969 87.0396 11.0132C87.1127 12.0725 87.3375 13.1005 87.7068 14.0978C88.184 15.3858 88.8697 16.5424 89.7763 17.567C89.8021 17.5961 89.8184 17.633 89.8488 17.6803C89.4441 18.3015 89.0304 18.9125 88.4751 19.4729C88.4318 19.2823 88.397 19.131 88.3627 18.9797C88.1592 18.0961 87.7326 17.3378 87.1307 16.6682C86.3809 15.8341 85.5013 15.1651 84.5795 14.5416C83.7859 14.0051 82.9703 13.4965 82.2587 12.8434C81.74 12.3672 81.3072 11.8347 81.165 11.1213C80.9879 10.2337 81.2954 9.24782 82.0907 8.66866C82.922 8.06334 83.792 8.06562 84.7009 8.40241C84.9802 8.50596 85.2421 8.65615 85.5119 8.78529C85.5524 8.80463 85.594 8.8217 85.6828 8.86153C85.6423 8.75116 85.6272 8.68573 85.5962 8.62941C84.9594 7.46484 84.1776 6.4169 83.1563 5.56638C82.6038 5.10613 81.9828 4.76705 81.2796 4.61003C80.5596 4.4496 79.8593 4.51844 79.1792 4.82963C78.8088 4.99917 78.4306 5.17724 78.0366 5.26372C76.7213 5.55272 75.5955 5.19658 74.7052 4.15376C74.6732 4.11622 74.6591 4.06388 74.6226 3.98935C74.2876 4.79948 74.4782 6.38334 75.8097 6.90276C75.7968 7.07855 75.7821 7.26629 75.7687 7.45403C75.6765 8.76879 75.7226 10.0688 76.1464 11.3335C76.3976 12.0839 76.786 12.7614 77.2041 13.4242C77.5953 14.0438 77.9944 14.6605 78.208 15.3722C78.4592 16.2096 78.5862 17.063 78.4204 17.9329C78.2327 18.9182 77.6454 19.5531 76.6842 19.7938C75.7057 20.039 74.7817 19.672 74.2028 18.8812C73.7469 18.2588 73.535 17.5676 73.5232 16.7979C73.5097 15.9638 73.6592 15.156 73.8638 14.355C74.0729 13.5369 74.2938 12.7216 74.4967 11.9012C74.7221 10.9904 74.8626 10.0693 74.8176 9.12323C74.7738 8.20898 74.5057 7.36471 74.0898 6.56311C73.707 5.82466 73.2079 5.1761 72.5762 4.63507C72.516 4.58386 72.4609 4.52697 72.3834 4.45358L72.3828 4.45472Z" fill="#1B1A1A"></path><path d="M78.7584 7.95132C79.0254 8.61865 79.5987 8.68692 80.1445 8.82688C80.1091 9.06013 80.0708 9.28542 80.0416 9.51128C79.8578 10.925 80.2726 12.163 81.1669 13.236C81.621 13.781 82.1325 14.2776 82.6237 14.7902C83.274 15.4695 83.9519 16.1243 84.5774 16.8258C85.1457 17.463 85.6043 18.181 85.9022 18.9968C86.1596 19.7011 86.2237 20.4242 86.1815 21.1649C86.1726 21.3191 86.1085 21.4215 85.9697 21.4989C84.7635 22.1673 83.4949 22.6407 82.1263 22.8415C79.6768 23.2011 77.3679 22.7812 75.2023 21.5808C73.8944 20.8554 72.7877 19.8843 71.8642 18.6981C70.68 17.1768 69.9482 15.4547 69.6649 13.5472C69.3878 11.6823 69.5671 9.85377 70.2151 8.07989C70.3489 7.71408 70.508 7.35737 70.6637 6.97677C70.7508 7.01887 70.8137 7.04106 70.8683 7.0769C71.6417 7.58551 72.2745 8.23179 72.7062 9.06013C73.2896 10.182 73.411 11.3767 73.1811 12.609C73.0249 13.4487 72.8091 14.2771 72.6635 15.1185C72.5145 15.9821 72.4499 16.8571 72.5696 17.7338C72.7023 18.7066 73.0148 19.5919 73.7887 20.2461C74.3075 20.6847 74.9162 20.9095 75.5766 21.0215C76.7187 21.215 77.826 21.1478 78.8461 20.5442C79.8679 19.9395 80.5458 19.0622 80.7375 17.8601C80.8313 17.2707 80.7892 16.679 80.6228 16.097C80.3384 15.1003 79.8252 14.2412 79.1502 13.4675C78.4774 12.6972 77.8502 11.8899 77.3246 11.007C77.2015 10.8004 77.0813 10.5899 76.9851 10.3698C76.4461 9.13693 76.5203 7.93766 77.2369 6.80097C77.6591 6.13136 78.2526 5.6256 78.9827 5.34171C79.6577 5.07944 80.3654 5.06237 81.0556 5.33887C81.3299 5.44867 81.5536 5.63299 81.7373 5.86397C82.1707 6.40842 82.0819 7.1207 81.5294 7.54113C81.132 7.84322 80.6689 7.96213 80.1861 7.98147C79.7898 7.9974 79.3919 7.96213 78.9945 7.94961C78.9366 7.9479 78.8782 7.94961 78.7568 7.94961L78.7584 7.95132Z" fill="#1B1A1A"></path><path d="M90.1948 17.0077C88.3984 13.9714 88.2793 10.0254 90.242 6.93848C90.591 7.26219 91.2486 9.30118 91.3919 10.6546C91.655 13.1362 91.0266 15.5871 90.1948 17.0077Z" fill="#1B1A1A"></path><path d="M44.387 17.6455C44.6119 17.7331 44.8204 17.8002 45.016 17.8935C45.5392 18.1433 45.8074 18.5814 45.8714 19.1497C45.9973 20.2636 45.3774 20.9691 44.3027 21.2695C43.8289 21.402 43.3405 21.4072 42.8509 21.3855C42.2253 21.3577 41.5987 21.3474 40.9725 21.3298C40.9129 21.3281 40.8483 21.3446 40.7949 21.3258C40.7488 21.3099 40.6864 21.2592 40.6836 21.2194C40.6802 21.1745 40.7241 21.1073 40.7662 21.0817C40.8135 21.0533 40.8815 21.0618 40.9405 21.0533C41.3845 20.9884 41.5402 20.8166 41.5638 20.3587C41.57 20.238 41.5694 20.1174 41.5694 19.9968C41.5694 18.5285 41.5694 17.0595 41.5694 15.5912C41.5694 15.5411 41.57 15.4905 41.5683 15.4404C41.5554 15.1002 41.4059 14.9295 41.0675 14.8766C40.9416 14.8567 40.814 14.8453 40.6797 14.8288V14.6149C40.7241 14.6024 40.7522 14.5882 40.7809 14.5876C41.5863 14.5688 42.3912 14.5478 43.1966 14.5341C43.6457 14.5267 44.0914 14.5626 44.5214 14.7105C45.1475 14.9255 45.5061 15.3698 45.546 15.9814C45.5887 16.6311 45.2858 17.154 44.6978 17.447C44.609 17.4913 44.5197 17.5351 44.432 17.5824C44.4168 17.5909 44.4089 17.6131 44.3859 17.6461L44.387 17.6455ZM42.4187 17.9368C42.3985 17.9829 42.3833 18.0011 42.3833 18.0193C42.3822 18.855 42.3765 19.6907 42.385 20.5259C42.3878 20.7979 42.5362 20.9674 42.8054 20.9867C43.1218 21.0095 43.4473 21.0288 43.757 20.9771C44.1791 20.9065 44.5652 20.7131 44.7602 20.2955C45.0767 19.6185 45.0272 18.4317 43.8733 18.0534C43.5091 17.9339 43.1336 17.8981 42.7537 17.9061C42.6368 17.9083 42.5204 17.9265 42.4187 17.9356V17.9368ZM42.3973 17.53C42.8363 17.5431 43.2416 17.571 43.6429 17.4771C44.2336 17.3383 44.595 16.8979 44.6107 16.3034C44.6287 15.6116 44.3303 15.1537 43.7058 14.9961C43.4315 14.9267 43.1359 14.9227 42.8504 14.9261C42.4738 14.9306 42.3794 15.045 42.3782 15.421C42.3765 16.0332 42.3777 16.6459 42.3788 17.2581C42.3788 17.3366 42.3889 17.4145 42.3973 17.53Z" fill="#1B1A1A"></path><path d="M32.4741 4.00321C32.446 4.68079 32.419 5.32082 32.3926 5.95572C32.1082 6.03822 32.0959 6.03594 32.0515 5.76684C31.9621 5.22467 31.7401 4.75702 31.255 4.48281C31.0004 4.33887 30.7053 4.2285 30.4175 4.19152C29.7976 4.11074 29.1844 4.19209 28.6055 4.45152C27.877 4.77807 27.3588 5.32139 27.089 6.07406C26.6304 7.35582 26.6844 8.6336 27.2801 9.85506C28.035 11.4025 29.7616 11.7421 31.0049 11.2569C31.4107 11.0987 31.7047 10.7943 31.9244 10.4257C32.1088 10.1168 32.2639 9.7902 32.441 9.45397C32.518 9.46137 32.6034 9.4699 32.6978 9.47901C32.6978 9.56434 32.7074 9.63375 32.6961 9.69975C32.6062 10.2453 32.5078 10.7892 32.4224 11.3359C32.4022 11.4639 32.3561 11.526 32.2285 11.5595C31.3865 11.7814 30.5356 11.9361 29.6627 11.9026C28.7555 11.8679 27.9175 11.6067 27.1801 11.0612C26.4157 10.4962 25.9385 9.73729 25.7592 8.79745C25.5524 7.71139 25.667 6.67085 26.2589 5.71678C26.7979 4.84805 27.5943 4.32123 28.5448 4.02142C29.6031 3.68746 30.6828 3.69315 31.7671 3.86383C31.9924 3.8991 32.215 3.95087 32.4736 4.00207L32.4741 4.00321Z" fill="#1B1A1A"></path><path d="M3.81253 11.8814C3.53037 11.1037 3.25553 10.3385 2.9745 9.57557C2.42649 8.08672 1.87567 6.59958 1.32485 5.11187C1.29338 5.0271 1.25741 4.94404 1.21919 4.86212C1.06237 4.52475 0.801578 4.33417 0.432305 4.29662C0.344624 4.28752 0.257505 4.27386 0.155772 4.26021C0.151838 4.16861 0.148466 4.09238 0.144531 4.00647C0.191182 3.98997 0.226592 3.96665 0.262001 3.96665C0.699845 3.97063 1.13769 3.98315 1.57553 3.98315C1.97347 3.98315 2.37141 3.97006 2.76878 3.9638C2.83848 3.96267 2.91492 3.94901 2.97562 3.97348C3.02902 3.99453 3.09815 4.05881 3.1004 4.1066C3.10265 4.1561 3.04194 4.22664 2.99136 4.25509C2.93403 4.28752 2.85646 4.28126 2.78845 4.29548C2.69122 4.31596 2.59342 4.33417 2.49843 4.36261C2.33993 4.40983 2.27361 4.52703 2.30003 4.68632C2.32476 4.83424 2.35511 4.98387 2.40513 5.12496C3.00204 6.81008 3.60232 8.4935 4.20316 10.1769C4.22901 10.2486 4.27116 10.314 4.32568 10.4233C4.37908 10.3197 4.41955 10.2566 4.4454 10.1872C5.05186 8.55949 5.65776 6.93126 6.26198 5.30246C6.31762 5.15227 6.37439 5.00037 6.41092 4.84448C6.47612 4.56458 6.39631 4.42633 6.12146 4.34725C5.99893 4.31141 5.86741 4.30572 5.73982 4.28922C5.52568 4.26135 5.51669 4.24769 5.56502 3.96324C5.65664 3.96324 5.75388 3.96324 5.85167 3.96324C6.52839 3.96324 7.20455 3.9621 7.88127 3.9621C7.9504 3.9621 8.02684 3.95186 8.08754 3.97689C8.13082 3.99453 8.17635 4.06223 8.17916 4.11058C8.18197 4.1561 8.13925 4.21697 8.09878 4.24826C8.06337 4.27557 8.00436 4.27955 7.95546 4.28069C7.51031 4.29264 7.24614 4.5623 7.06403 4.93437C6.93645 5.1955 6.82122 5.46346 6.71443 5.73426C5.94273 7.69588 5.17439 9.65863 4.4055 11.6214C4.29927 11.8928 4.2543 11.9144 3.8114 11.8814H3.81253Z" fill="#1B1A1A"></path><path d="M58.9235 19.766C58.9235 19.556 58.9235 19.3467 58.9235 19.1367C58.9235 18.0393 58.9246 16.9419 58.9229 15.8444C58.9229 15.7039 58.9156 15.5622 58.8959 15.4234C58.8493 15.0992 58.729 14.9746 58.4058 14.9057C58.3091 14.8852 58.2035 14.8938 58.113 14.8596C58.0663 14.842 58.0236 14.7624 58.018 14.7066C58.0146 14.6742 58.0837 14.6184 58.1304 14.6019C58.1838 14.5831 58.2484 14.5962 58.308 14.5962C58.8453 14.5968 59.3827 14.5979 59.9206 14.5991C59.9503 14.5991 59.9807 14.5974 60.0099 14.5996C60.0948 14.6065 60.2117 14.5763 60.2179 14.7077C60.2235 14.8295 60.1038 14.8278 60.0228 14.8528C59.9661 14.8705 59.9048 14.8733 59.8469 14.8875C59.5895 14.9507 59.4231 15.1094 59.3832 15.3779C59.3568 15.556 59.3416 15.738 59.3411 15.9184C59.3377 17.5995 59.3383 19.2812 59.3377 20.9624C59.3377 21.0813 59.3377 21.2008 59.3377 21.3066C59.0342 21.4499 59.0089 21.4448 58.8555 21.2571C58.0112 20.2256 57.1687 19.1931 56.32 18.1656C55.7967 17.5318 55.2645 16.9055 54.7356 16.2768C54.6754 16.2051 54.6091 16.1386 54.5006 16.0202C54.4821 16.1698 54.4646 16.2449 54.4646 16.32C54.4646 17.6189 54.4669 18.9177 54.4686 20.2165C54.4686 20.2467 54.4686 20.2768 54.4697 20.307C54.4956 20.848 54.6254 20.9874 55.1644 21.0551C55.1942 21.0591 55.2302 21.0506 55.2527 21.0648C55.3044 21.0989 55.3797 21.1365 55.3904 21.1854C55.4117 21.2804 55.3409 21.3276 55.247 21.3322C55.2369 21.3322 55.2274 21.3339 55.2172 21.3339C54.5417 21.3339 53.8661 21.3339 53.1848 21.3339C53.1264 21.1848 53.1112 21.0801 53.295 21.0619C53.3349 21.058 53.3748 21.0551 53.4136 21.0483C53.825 20.9743 53.9779 20.8196 54.0296 20.3946C54.0549 20.1852 54.0617 19.973 54.0617 19.762C54.0633 18.5439 54.0611 17.3253 54.0583 16.1073C54.0583 15.9764 54.0555 15.845 54.0403 15.7153C53.9908 15.2909 53.6755 14.9535 53.2618 14.8693C53.1764 14.8517 53.0927 14.8278 53.0134 14.8079C52.9831 14.6742 53.0258 14.6031 53.1359 14.6014C53.5344 14.5951 53.9335 14.5843 54.3303 14.6059C54.427 14.611 54.5338 14.7203 54.6074 14.8067C55.2128 15.5156 55.8097 16.2307 56.4116 16.9424C57.149 17.8151 57.8881 18.6862 58.6278 19.5572C58.702 19.6448 58.7841 19.7256 58.8628 19.8098C58.883 19.7955 58.9027 19.7819 58.9229 19.7677L58.9235 19.766Z" fill="#1B1A1A"></path><path d="M62.5674 18.0817C62.5595 18.2051 62.5471 18.3127 62.5466 18.4208C62.5432 19.0551 62.5421 19.6889 62.5421 20.3232C62.5421 20.4034 62.5471 20.4842 62.5584 20.5639C62.5977 20.8449 62.6882 20.9462 62.9636 21.011C63.0603 21.0338 63.1592 21.0509 63.2581 21.056C63.4256 21.0645 63.4633 21.1476 63.4088 21.3091C63.3666 21.3171 63.32 21.333 63.2727 21.333C62.5657 21.333 61.8592 21.3313 61.1521 21.3296C61.1021 21.3296 61.0476 21.3438 61.0043 21.3273C60.9571 21.3091 60.8829 21.2545 60.8874 21.2289C60.898 21.172 60.9413 21.0947 60.9891 21.0776C61.0998 21.0378 61.2218 21.0315 61.3381 21.0076C61.586 20.9564 61.7119 20.7914 61.7394 20.5457C61.7541 20.4159 61.7625 20.2851 61.7625 20.1542C61.7647 18.6443 61.7647 17.1344 61.7647 15.6246C61.7647 15.554 61.7664 15.4835 61.7608 15.4135C61.735 15.0841 61.6175 14.9504 61.2932 14.8861C61.1577 14.8594 61.0211 14.8412 60.875 14.8178V14.6016H63.3829C63.4346 14.716 63.4324 14.7951 63.3093 14.8252C63.1935 14.8542 63.0771 14.8798 62.9614 14.9106C62.7214 14.9743 62.582 15.1307 62.5735 15.3828C62.5578 15.8453 62.5488 16.3078 62.5421 16.7703C62.5376 17.069 62.5409 17.3677 62.5409 17.6812C62.8405 17.6834 63.0367 17.5458 63.2081 17.3836C63.5493 17.0605 63.8843 16.7294 64.2063 16.3863C64.4874 16.0876 64.7476 15.7691 65.0146 15.4567C65.073 15.3885 65.1281 15.3151 65.1708 15.2366C65.272 15.0517 65.2388 14.9612 65.0399 14.8969C64.8999 14.852 64.7532 14.8281 64.611 14.7956C64.5644 14.5982 64.6717 14.5817 64.8072 14.5834C65.2355 14.5891 65.6632 14.5925 66.0915 14.5937C66.3405 14.5942 66.5895 14.5846 66.8379 14.5903C66.934 14.5925 67.0835 14.5174 67.1054 14.6875C67.1268 14.8514 66.9722 14.8434 66.8744 14.8565C66.3348 14.9282 65.906 15.2132 65.5244 15.5779C65.1191 15.9648 64.7285 16.3676 64.3317 16.7635C64.1754 16.9188 64.0169 17.0719 63.864 17.2306C63.7752 17.3228 63.6954 17.424 63.6032 17.5304C63.6533 17.6118 63.6864 17.6846 63.7359 17.7432C64.4514 18.5943 65.168 19.4442 65.8886 20.2914C66.0049 20.4279 66.1426 20.5462 66.2696 20.6742C66.4737 20.8802 66.7159 21.007 67.0026 21.0474C67.0976 21.0605 67.2235 21.0486 67.2145 21.1971C67.2066 21.3325 67.0964 21.3382 66.9919 21.337C66.5737 21.3325 66.1555 21.3262 65.7374 21.3268C65.6233 21.3268 65.5586 21.271 65.4917 21.1874C64.751 20.2663 64.0079 19.347 63.2626 18.4287C63.0963 18.2239 62.9164 18.035 62.5662 18.0828L62.5674 18.0817Z" fill="#1B1A1A"></path><path d="M49.4339 14.4829C49.584 14.4664 49.7211 14.4511 49.8695 14.4346C49.8954 14.4818 49.9263 14.521 49.9409 14.566C50.2826 15.6065 50.6188 16.6488 50.9644 17.6876C51.2179 18.4505 51.4826 19.2095 51.744 19.9701C51.8024 20.1413 51.8676 20.3097 51.9295 20.4798C52.0503 20.8127 52.2718 21.0163 52.6326 21.0431C52.6725 21.0459 52.7119 21.0533 52.7512 21.0584C52.8389 21.0698 52.908 21.1005 52.8934 21.2092C52.8799 21.3099 52.808 21.3361 52.7209 21.3361C52.6613 21.3361 52.6011 21.3332 52.5416 21.3332C51.934 21.3332 51.3264 21.3332 50.7188 21.3332C50.6491 21.3332 50.5794 21.3332 50.5097 21.3344C50.4159 21.3361 50.3417 21.2968 50.358 21.1984C50.3664 21.1483 50.4333 21.088 50.4861 21.0704C50.5884 21.0362 50.7025 21.0391 50.8065 21.0084C51.0307 20.9418 51.0847 20.8587 51.0251 20.6317C50.9436 20.3211 50.8458 20.0145 50.7486 19.7078C50.6789 19.4877 50.5901 19.2732 50.526 19.0513C50.4833 18.9034 50.4102 18.8363 50.2529 18.838C49.5952 18.8431 48.9382 18.8391 48.2806 18.8402C48.2418 18.8402 48.203 18.8539 48.1418 18.8658C47.9467 19.3739 47.7489 19.8876 47.5533 20.4025C47.5319 20.4582 47.5212 20.5185 47.5094 20.5777C47.4549 20.8468 47.51 20.9401 47.7804 21.0106C47.9231 21.0476 48.0704 21.0681 48.2109 21.0954C48.271 21.2405 48.2356 21.3207 48.0861 21.3349C48.0468 21.3383 48.0063 21.3372 47.967 21.3372C47.3892 21.3383 46.8119 21.34 46.2341 21.3383C46.1302 21.3383 45.9801 21.3765 45.9627 21.2285C45.9424 21.0573 46.1049 21.0624 46.2173 21.0527C46.5376 21.0249 46.7591 20.8485 46.8951 20.5731C47.0857 20.1863 47.2633 19.7926 47.4291 19.3938C48.049 17.8998 48.6622 16.403 49.2766 14.9068C49.3294 14.7776 49.3744 14.6445 49.4339 14.4841V14.4829ZM49.4204 15.7647C49.3996 15.763 49.3789 15.7618 49.3581 15.7601C49.1507 16.176 49.0045 16.6192 48.8387 17.0533C48.6695 17.497 48.4773 17.9334 48.3233 18.4244H50.3091C50.0055 17.5175 49.7127 16.6408 49.4193 15.7647H49.4204Z" fill="#1B1A1A"></path><path d="M16.6199 10.3327C16.5227 10.8652 16.43 11.3755 16.3316 11.9154C16.2383 11.9154 16.1512 11.9154 16.0641 11.9154C14.6803 11.9137 13.2965 11.9114 11.9121 11.9097C11.8722 11.9097 11.8267 11.9222 11.7941 11.9068C11.7475 11.8847 11.6705 11.8329 11.6761 11.8101C11.6896 11.7532 11.7312 11.6793 11.7801 11.6599C11.8604 11.6281 11.9565 11.6389 12.0442 11.6235C12.4309 11.557 12.5872 11.3869 12.5883 10.9949C12.5922 9.38486 12.5922 7.77426 12.5883 6.16367C12.5877 5.81094 12.4753 5.68521 12.1274 5.60727C12.0032 5.57939 11.8767 5.56289 11.7559 5.54241C11.7182 5.39165 11.7902 5.34159 11.9082 5.33703C12.0274 5.33248 12.1471 5.33703 12.2668 5.33703C13.1728 5.3359 14.0789 5.3376 14.9849 5.33248C15.3328 5.33021 15.6813 5.31086 16.0292 5.3029C16.1062 5.30119 16.1832 5.31314 16.2844 5.3211C16.2731 5.53672 16.2613 5.7347 16.2524 5.93212C16.2405 6.18301 16.2265 6.43447 16.2198 6.68593C16.2169 6.78719 16.1984 6.86684 16.082 6.87879C15.9651 6.89074 15.9297 6.81564 15.9072 6.71779C15.8735 6.57101 15.8381 6.42423 15.7926 6.28086C15.6892 5.95544 15.4672 5.73982 15.135 5.69545C14.5724 5.62035 14.0064 5.6488 13.4527 5.68123C13.3656 5.92757 13.3386 7.66503 13.4055 8.24248H15.7072V8.80684C14.9422 8.77555 14.1845 8.74426 13.4055 8.7124C13.3937 8.83642 13.3791 8.92347 13.3785 9.00994C13.3774 9.61356 13.3785 10.2177 13.3802 10.8214C13.3802 10.9016 13.383 10.9829 13.3915 11.0626C13.4252 11.3658 13.5595 11.5348 13.863 11.5496C14.3093 11.5712 14.759 11.5701 15.2041 11.5353C15.57 11.5069 15.8589 11.3061 16.0365 10.9698C16.1304 10.7929 16.213 10.6097 16.3024 10.4305C16.3816 10.2718 16.3827 10.2724 16.6188 10.3338L16.6199 10.3327Z" fill="#1B1A1A"></path><path d="M61.14 11.6976C61.1507 11.9183 61.0338 11.9109 60.9213 11.9098C60.5532 11.9069 60.1851 11.9018 59.8169 11.9012C59.4982 11.9012 59.1801 11.9058 58.8614 11.9069C58.7428 11.9075 58.6355 11.8933 58.6703 11.7106C58.8108 11.6771 58.9558 11.6492 59.0969 11.6065C59.3245 11.5371 59.3605 11.47 59.3195 11.2271C59.3094 11.1679 59.2936 11.1093 59.2751 11.0524C59.1295 10.6035 58.98 10.1558 58.8372 9.7058C58.7934 9.56755 58.7316 9.48221 58.568 9.48392C57.9413 9.49018 57.3141 9.48847 56.6874 9.48392C56.5564 9.48278 56.485 9.54309 56.4417 9.65801C56.258 10.1461 56.0607 10.6297 55.8926 11.1235C55.7898 11.4268 55.8982 11.569 56.2152 11.6236C56.34 11.6452 56.4642 11.6708 56.5839 11.6936C56.6255 11.9058 56.5081 11.9115 56.3788 11.9103C55.9213 11.9052 55.4632 11.9012 55.0057 11.8995C54.8466 11.899 54.687 11.9143 54.5285 11.9046C54.4729 11.9012 54.4211 11.8432 54.3672 11.8102C54.4088 11.7647 54.447 11.7158 54.4931 11.6759C54.5133 11.6583 54.5493 11.6566 54.5791 11.6543C54.9911 11.6259 55.2187 11.3602 55.3699 11.0109C55.6565 10.3475 55.9398 9.68304 56.2164 9.01513C56.711 7.81871 57.2 6.61887 57.6901 5.42074C57.7901 5.17667 57.8244 5.16017 58.219 5.20057C58.2561 5.33142 58.2909 5.47535 58.3376 5.61474C58.6293 6.49086 58.921 7.36699 59.2178 8.24141C59.5213 9.13517 59.8293 10.0267 60.1378 10.9187C60.1772 11.0319 60.2261 11.1429 60.2806 11.2504C60.3823 11.4507 60.5436 11.5724 60.7651 11.6145C60.8899 11.6384 61.013 11.6697 61.1411 11.6981L61.14 11.6976ZM58.613 9.0669C58.3196 8.18224 58.0357 7.32774 57.7525 6.47323C57.7255 6.47266 57.6985 6.47152 57.671 6.47095C57.3399 7.32261 57.0089 8.17485 56.6621 9.06747H58.613V9.0669Z" fill="#1B1A1A"></path><path d="M36.9535 5.20016C37.0491 5.50908 37.1396 5.8271 37.2453 6.13944C37.6747 7.4047 38.1086 8.66826 38.5408 9.93239C38.6645 10.2936 38.7937 10.6526 38.9118 11.0156C39.0382 11.4019 39.285 11.6238 39.697 11.638C39.7267 11.6391 39.756 11.6454 39.7852 11.6522C39.8043 11.6568 39.8223 11.6664 39.8588 11.6812V11.902C39.7801 11.9059 39.7222 11.9111 39.6638 11.9111C39.0067 11.9111 38.3497 11.9099 37.6927 11.9088C37.623 11.9088 37.5504 11.9168 37.4858 11.898C37.4493 11.8872 37.4049 11.8297 37.4038 11.7916C37.4026 11.7558 37.4465 11.6954 37.4819 11.6852C37.596 11.6511 37.7168 11.6408 37.832 11.6101C38.067 11.5475 38.1193 11.4793 38.0619 11.2443C37.9928 10.9621 37.8984 10.6856 37.8112 10.408C37.7359 10.1685 37.6516 9.93182 37.5786 9.69174C37.5431 9.57511 37.4926 9.48977 37.3571 9.48977C36.6618 9.48977 35.9666 9.48977 35.2376 9.48977C35.0285 10.0541 34.811 10.6031 34.6232 11.1624C34.5333 11.4292 34.63 11.5521 34.9071 11.6135C35.0139 11.6369 35.1263 11.6374 35.2297 11.6698C35.2707 11.6824 35.3225 11.7552 35.318 11.7944C35.3129 11.8365 35.2522 11.8803 35.2067 11.9059C35.1763 11.923 35.1291 11.9088 35.0892 11.9088C34.5018 11.9088 33.9145 11.9071 33.3271 11.9111C33.1906 11.9122 33.0798 11.9054 33.136 11.6989C33.1928 11.6863 33.2569 11.6664 33.3226 11.659C33.6711 11.6198 33.9128 11.4326 34.0567 11.1157C34.2517 10.6862 34.4507 10.2584 34.6328 9.82259C35.1628 8.55277 35.6861 7.28011 36.2105 6.00802C36.2757 5.85043 36.3375 5.69056 36.3949 5.53013C36.5219 5.17456 36.5466 5.15806 36.9524 5.20073L36.9535 5.20016ZM37.3571 9.06764C37.0648 8.18525 36.7962 7.33188 36.4471 6.49046C36.2454 6.91373 36.0762 7.33871 35.9143 7.76653C35.7536 8.19037 35.5535 8.60113 35.4292 9.06764H37.3571Z" fill="#1B1A1A"></path><path d="M42.8476 11.6834C42.8762 11.8103 42.87 11.8848 42.7621 11.9036C42.7329 11.9087 42.7025 11.9087 42.6728 11.9087C41.9162 11.9076 41.1591 11.9064 40.4026 11.9036C40.3745 11.9036 40.347 11.8865 40.3205 11.8785C40.2756 11.7778 40.2722 11.6976 40.4004 11.6715C40.488 11.6532 40.5774 11.6419 40.664 11.618C40.9163 11.5486 41.0529 11.3898 41.076 11.127C41.0894 10.9768 41.0883 10.8255 41.0883 10.6741C41.0883 9.22455 41.0872 7.77496 41.0861 6.32594C41.0861 6.3157 41.0861 6.30603 41.0861 6.29578C41.0827 5.75247 40.9686 5.62731 40.4341 5.57668C40.3773 5.57156 40.3217 5.55506 40.2733 5.54539C40.2317 5.43729 40.2565 5.37244 40.352 5.34342C40.3801 5.33489 40.411 5.33432 40.4408 5.33318C41.2862 5.3127 42.1321 5.28198 42.9774 5.28027C43.2416 5.28027 43.5142 5.33148 43.7693 5.40657C44.7816 5.70468 45.2431 6.48353 45.0508 7.53602C44.953 8.0725 44.654 8.47359 44.2111 8.76771C43.5889 9.18018 42.8981 9.26267 42.1759 9.17506C42.0905 9.16482 42.0045 9.15458 41.9089 9.14377C41.8954 9.22853 41.8786 9.28656 41.878 9.34459C41.8729 9.90839 41.8623 10.4716 41.8696 11.0354C41.8746 11.4462 41.9927 11.5651 42.3974 11.622C42.5441 11.6424 42.6907 11.6618 42.8476 11.6828V11.6834ZM41.8943 8.75122C42.281 8.89515 42.6548 8.87012 43.0285 8.79901C43.6114 8.68807 43.9481 8.29893 44.1116 7.75334C44.2167 7.40346 44.2167 7.03822 44.1291 6.67753C44.038 6.30546 43.834 6.02271 43.4939 5.8452C43.1292 5.65462 42.7408 5.59374 42.335 5.63186C41.9736 5.66543 41.869 5.78035 41.8685 6.15299C41.8673 6.90794 41.8685 7.66345 41.8707 8.4184C41.8707 8.52706 41.8853 8.63573 41.8937 8.75179L41.8943 8.75122Z" fill="#1B1A1A"></path><path d="M22.6717 5.31738C22.6447 5.88288 22.6189 6.41311 22.5925 6.96723C22.5194 6.97235 22.4469 6.97804 22.3609 6.98373C22.3216 6.78803 22.2946 6.61052 22.2502 6.43814C22.1181 5.9284 21.868 5.70936 21.3436 5.67751C20.9985 5.65646 20.6511 5.67352 20.2802 5.67352C20.2717 5.7782 20.2582 5.86468 20.2582 5.95115C20.2577 7.61238 20.2582 9.27304 20.2588 10.9343C20.2588 10.9843 20.2588 11.035 20.2611 11.085C20.279 11.4122 20.4033 11.5555 20.7253 11.6107C20.8327 11.6289 20.9434 11.6306 21.0524 11.6403C21.1564 11.6494 21.2255 11.6949 21.207 11.8127C21.1896 11.923 21.1047 11.9128 21.0226 11.9122C20.4151 11.9077 19.808 11.9037 19.2004 11.902C19.0414 11.902 18.8818 11.9111 18.7227 11.9156C18.6384 11.9179 18.5456 11.91 18.5569 11.8002C18.5619 11.7529 18.6316 11.6932 18.6845 11.6744C18.7772 11.642 18.8795 11.6397 18.9773 11.6192C19.3067 11.551 19.4146 11.4366 19.4607 11.0987C19.4798 10.9593 19.4955 10.8182 19.4961 10.6783C19.4995 9.0779 19.4995 7.47698 19.5 5.87663C19.5 5.82713 19.4933 5.77763 19.4882 5.71505C19.4393 5.69912 19.3949 5.67125 19.35 5.67125C19.0217 5.67125 18.6918 5.65873 18.3647 5.68263C17.9072 5.71619 17.6402 5.954 17.5148 6.4023C17.4716 6.55648 17.4457 6.71634 17.3951 6.86824C17.3777 6.92001 17.3007 6.99511 17.2658 6.98771C17.2141 6.9769 17.1574 6.9092 17.1366 6.85288C17.1135 6.7903 17.1298 6.71407 17.1276 6.64352C17.1146 6.2413 17.1012 5.83908 17.0899 5.43685C17.0888 5.39931 17.1006 5.36119 17.1073 5.31738H22.6712H22.6717Z" fill="#1B1A1A"></path><path d="M54.3826 5.33252C54.3556 5.86218 54.3314 6.38103 54.2999 6.89931C54.2977 6.93799 54.2437 6.97384 54.2179 7.00569C54.074 6.98408 54.0616 6.87598 54.0369 6.78154C53.9959 6.62623 53.9683 6.46693 53.9189 6.31446C53.8076 5.97027 53.5794 5.72735 53.2185 5.69833C52.8155 5.66533 52.4086 5.69093 51.982 5.69093C51.973 5.76945 51.9562 5.84568 51.9562 5.92191C51.955 7.60249 51.9562 9.28306 51.9578 10.9631C51.9578 11.0433 51.9595 11.1252 51.9747 11.2031C52.018 11.4199 52.1371 11.5695 52.3642 11.6025C52.5306 11.627 52.6981 11.6418 52.8852 11.6634V11.8966H50.2998C50.2947 11.8244 50.2908 11.7692 50.2857 11.7009C50.447 11.6708 50.5937 11.648 50.7376 11.6156C51.022 11.5513 51.1406 11.4148 51.1755 11.1195C51.1828 11.0598 51.1828 10.9989 51.1828 10.9386C51.1856 9.22787 51.1884 7.51715 51.1901 5.80699C51.1901 5.77798 51.1783 5.74896 51.1676 5.70345C51.1063 5.6898 51.0411 5.66363 50.9759 5.66306C50.6971 5.66021 50.4178 5.65509 50.1401 5.66932C49.6287 5.69549 49.333 5.94581 49.2054 6.44475C49.1734 6.57104 49.1537 6.70133 49.1189 6.82649C49.0953 6.91182 49.0644 7.02504 48.9514 6.99489C48.9042 6.98237 48.8564 6.87484 48.853 6.80885C48.8305 6.32755 48.8199 5.84511 48.8047 5.33252H54.382H54.3826Z" fill="#1B1A1A"></path><path d="M64.0095 5.49424C63.8684 5.53577 63.7403 5.57673 63.6099 5.61087C63.2799 5.69677 63.2046 5.77415 63.1574 6.11834C63.1383 6.25715 63.1327 6.39881 63.1321 6.53934C63.1304 7.95821 63.1304 9.37765 63.1304 10.7965C63.1304 11.4075 63.2591 11.5469 63.8555 11.5646C64.1242 11.5725 64.3939 11.5765 64.6615 11.5594C65.1302 11.5293 65.5034 11.337 65.703 10.8767C65.771 10.7203 65.8547 10.5712 65.9233 10.4153C65.9806 10.2862 66.0678 10.2629 66.2195 10.33C66.1268 10.8415 66.0329 11.3586 65.9368 11.8905C65.8632 11.8991 65.7968 11.9133 65.7305 11.9133C64.3962 11.9122 63.0624 11.9099 61.7281 11.9076C61.6882 11.9076 61.6387 11.9218 61.6112 11.9036C61.5685 11.8752 61.523 11.828 61.5123 11.7807C61.505 11.75 61.5488 11.684 61.5837 11.6715C61.6567 11.6442 61.7388 11.6414 61.8175 11.6288C62.1384 11.5782 62.293 11.4269 62.3396 11.1037C62.3554 10.9951 62.3559 10.883 62.3559 10.7726C62.3565 9.35375 62.3559 7.93431 62.3554 6.51544C62.3554 6.38459 62.3554 6.25317 62.3447 6.12346C62.3194 5.8043 62.2132 5.68141 61.8995 5.60973C61.813 5.58982 61.7191 5.59892 61.6348 5.57389C61.578 5.55682 61.496 5.50789 61.4898 5.46352C61.4757 5.36339 61.5623 5.33608 61.6494 5.33438C61.6893 5.33324 61.7292 5.33494 61.7691 5.33494C62.4262 5.33551 63.0832 5.33494 63.7408 5.33779C63.8325 5.33779 63.9471 5.29796 64.0101 5.49538L64.0095 5.49424Z" fill="#1B1A1A"></path><path d="M8.47338 5.55078C8.42392 5.41026 8.46495 5.34028 8.59759 5.33516C8.69708 5.33118 8.79656 5.33288 8.89605 5.33288C9.48284 5.33288 10.0702 5.33231 10.657 5.33345C10.7424 5.33345 10.8284 5.34255 10.9037 5.34711C10.956 5.49275 10.8947 5.54224 10.7924 5.565C10.6856 5.58889 10.5772 5.6071 10.4726 5.63782C10.2607 5.69926 10.1309 5.84035 10.1095 6.06564C10.0932 6.23575 10.0809 6.40642 10.0809 6.5771C10.0775 7.96468 10.0769 9.35283 10.0769 10.7404C10.0769 10.8809 10.0758 11.0226 10.0904 11.162C10.1174 11.4214 10.2439 11.5579 10.499 11.6097C10.5963 11.6296 10.6969 11.6296 10.7952 11.6438C10.9476 11.6655 10.9639 11.7559 10.9099 11.8839C10.8796 11.8942 10.852 11.9112 10.8245 11.9112C10.1084 11.9124 9.39234 11.9124 8.67628 11.9118C8.63694 11.9118 8.58691 11.9243 8.55993 11.905C8.51666 11.8748 8.47057 11.8265 8.46045 11.7781C8.45371 11.7468 8.50204 11.6814 8.53858 11.6683C8.61164 11.6421 8.69427 11.6427 8.77239 11.6291C9.11244 11.5682 9.26082 11.4151 9.28949 11.0687C9.31141 10.8087 9.32321 10.5464 9.32321 10.2853C9.3249 9.03822 9.32152 7.79116 9.31815 6.5441C9.31815 6.40358 9.31253 6.26249 9.29904 6.12254C9.27094 5.82044 9.16302 5.69301 8.87244 5.62246C8.74766 5.59231 8.61951 5.57638 8.47338 5.55021V5.55078Z" fill="#1B1A1A"></path><path d="M48.1565 11.8877C48.1239 11.8945 48.0863 11.9093 48.0486 11.9087C47.3516 11.9076 46.6547 11.9053 45.9577 11.9024C45.9083 11.9024 45.8453 11.915 45.8122 11.8899C45.7683 11.8558 45.7475 11.7909 45.7037 11.7175C45.8774 11.6749 46.0128 11.647 46.1443 11.6089C46.3787 11.54 46.5164 11.3842 46.5355 11.1333C46.5434 11.0331 46.5507 10.9324 46.5507 10.8323C46.5513 9.35257 46.5513 7.8734 46.5507 6.39365C46.5507 6.27304 46.5479 6.15186 46.5344 6.03182C46.5063 5.77922 46.4198 5.68308 46.1691 5.62448C46.0634 5.60002 45.9538 5.58693 45.8453 5.57783C45.7088 5.56588 45.675 5.49704 45.725 5.35254H48.1959C48.156 5.4356 48.143 5.50615 48.1009 5.53857C48.0587 5.57157 47.9879 5.56645 47.9294 5.57783C47.4933 5.66601 47.3573 5.81905 47.3398 6.27361C47.3275 6.60529 47.3303 6.93753 47.3303 7.26978C47.3297 8.45767 47.3303 9.64499 47.3303 10.8329C47.3303 10.9137 47.328 10.9939 47.332 11.0747C47.3488 11.4177 47.4736 11.5594 47.812 11.6208C47.8997 11.6368 47.9901 11.6436 48.0756 11.6675C48.1874 11.6982 48.2071 11.7767 48.1554 11.8882L48.1565 11.8877Z" fill="#1B1A1A"></path></g><defs><clipPath id="clip0_1719_19260"><rect width="91.3087" height="22.1558" fill="white" transform="translate(0.144531 0.811035)"></rect></clipPath></defs></svg>