<svg xmlns:xlink="http://www.w3.org/1999/xlink" fill="none" height="18" viewBox="0 0 18 18" width="18" xmlns="http://www.w3.org/2000/svg" class="h-4.5 w-4.5 transition-transform group-hover/button-sign-up:translate-x-1"><path d="M10.8226 14.1151C10.6801 14.1151 10.5376 14.0626 10.4251 13.9501C10.2076 13.7326 10.2076 13.3726 10.4251 13.1551L14.5801 9.00009L10.4251 4.84509C10.2076 4.62759 10.2076 4.26759 10.4251 4.05009C10.6426 3.83259 11.0026 3.83259 11.2201 4.05009L15.7726 8.60259C15.9901 8.82009 15.9901 9.18009 15.7726 9.39759L11.2201 13.9501C11.1076 14.0626 10.9651 14.1151 10.8226 14.1151Z" fill="#35353A"></path><path d="M15.2475 9.5625H2.625C2.3175 9.5625 2.0625 9.3075 2.0625 9C2.0625 8.6925 2.3175 8.4375 2.625 8.4375H15.2475C15.555 8.4375 15.81 8.6925 15.81 9C15.81 9.3075 15.555 9.5625 15.2475 9.5625Z" fill="#35353A"></path></svg>