<svg xmlns:xlink="http://www.w3.org/1999/xlink" width="93" height="30" viewBox="0 0 93 30" fill="none" xmlns="http://www.w3.org/2000/svg" class="text-[#1B1A1A]"><g clip-path="url(#clip0_1719_19250)" fill="none"><path d="M11.5358 22.4095C12.4794 22.4321 13.3179 22.1801 14.0612 21.6852C14.5488 21.3602 14.9829 20.9466 15.4092 20.5396C16.5438 19.4558 17.6641 18.3572 18.785 17.2592C19.8476 16.2176 20.9007 15.1671 21.9615 14.1243C23.0176 13.0869 24.0814 12.0577 25.1368 11.0197C26.0157 10.1558 26.8857 9.28234 27.7622 8.41603C28.358 7.8272 28.9467 7.23124 29.5597 6.66143C30.1389 6.12251 31.1278 6.15994 31.6749 6.72916C32.7274 7.82483 33.8209 8.88187 34.8954 9.95673C35.7535 10.8153 36.6038 11.6822 37.4666 12.5361C38.0809 13.1439 38.11 14.2865 37.4113 14.9906C35.9997 16.4125 34.5886 17.8355 33.1817 19.2615C31.8431 20.6181 30.5118 21.9811 29.1738 23.3382C28.3437 24.1801 27.5088 25.0167 26.6752 25.8551C26.0562 26.4784 25.4484 27.1142 24.8134 27.7203C23.9238 28.5693 22.8552 29.0601 21.635 29.2354C20.4089 29.4113 19.2351 29.2087 18.1689 28.6181C17.5392 28.2693 16.9618 27.7921 16.4403 27.2907C15.1601 26.0607 13.9268 24.782 12.6727 23.5254C12.2975 23.1498 11.9145 22.782 11.5352 22.4101L11.5358 22.4095Z" fill="#1B1A1A"></path><path d="M21.6932 9.87303C22.1166 9.43631 22.5441 8.99959 22.9669 8.55871C24.0117 7.46899 25.0541 6.37749 26.0965 5.28598C26.3076 5.06435 26.5175 4.84154 26.7221 4.61397C27.4998 3.74647 28.6945 3.67873 29.5145 4.60565C29.8582 4.99365 30.2316 5.3555 30.6145 5.75301C29.747 5.7025 29.2183 6.23785 28.679 6.78925C27.9547 7.529 27.1954 8.23488 26.4574 8.96097C24.6634 10.7263 22.873 12.4951 21.0802 14.2616C19.9283 15.3965 18.7783 16.532 17.6223 17.6627C16.599 18.6639 15.575 19.6645 14.5398 20.6532C13.891 21.2723 13.1406 21.7185 12.2225 21.794C11.4922 21.854 10.8316 21.7477 10.2804 21.1582C9.38545 20.201 8.43225 19.2979 7.50759 18.368C6.2993 17.1523 5.09813 15.9289 3.88805 14.715C3.08172 13.9057 2.26945 13.1024 1.45123 12.305C0.713884 11.5866 0.729345 10.3519 1.46967 9.62288C2.77846 8.33471 4.0712 7.03049 5.37285 5.73459C6.39444 4.71795 7.41959 3.70428 8.44177 2.68824C8.96683 2.16655 9.50498 1.65615 10.0092 1.11486C10.7936 0.272317 12.0714 0.27707 12.87 1.09644C14.5189 2.78866 16.2101 4.43987 17.8822 6.10951C19.0988 7.3246 20.3125 8.54207 21.5291 9.75776C21.563 9.79163 21.6082 9.81421 21.6932 9.87362V9.87303ZM10.6598 18.8225C10.5587 18.7013 10.4903 18.6074 10.41 18.526C9.86889 17.9776 9.29864 17.4541 8.79022 16.8772C8.38825 16.4215 7.99044 15.936 7.71334 15.4007C7.00215 14.0281 6.8303 12.5706 7.24893 11.0661C7.89351 8.74944 9.41697 7.27885 11.7218 6.70012C13.6579 6.21409 15.4478 6.67933 17.0247 7.91106C17.1954 8.04415 17.3334 8.21944 17.507 8.34837C17.6652 8.46602 17.8525 8.46543 17.9863 8.29965C18.1224 8.1315 18.1082 7.94611 17.9553 7.79222C16.7548 6.58188 15.286 5.94433 13.5967 5.82728C12.5388 5.75419 11.5107 5.91046 10.5218 6.32876C8.84909 7.03583 7.64317 8.20636 6.89571 9.85283C6.51931 10.6823 6.33022 11.5528 6.31357 12.4625C6.28324 14.1036 6.75657 15.5831 7.79718 16.8552C8.26457 17.4268 8.8152 17.9307 9.31588 18.4761C9.68277 18.8754 10.1359 18.8784 10.6604 18.8225H10.6598ZM17.2103 14.2503C17.3821 14.0875 17.4755 14.0008 17.5665 13.9117C17.7139 13.7685 17.7169 13.6413 17.5599 13.4862C16.6965 12.6312 15.8343 11.7744 14.9845 10.9063C14.2246 10.1303 13.1584 9.8968 12.1547 10.3109C10.6829 10.9188 10.1145 12.8297 11.1045 14.0768C11.7033 14.8308 12.4395 15.4755 13.1192 16.1648C13.3071 16.3555 13.5574 16.3769 13.6966 16.2343C13.8428 16.0846 13.8042 15.8273 13.6086 15.6336C13.1596 15.1879 12.6976 14.7548 12.2682 14.2907C11.9828 13.983 11.6885 13.6609 11.4976 13.2937C11.1319 12.589 11.4256 11.6508 12.0976 11.1606C12.7196 10.7073 13.7239 10.7281 14.2811 11.2379C14.7027 11.6235 15.0945 12.043 15.4924 12.4535C16.0614 13.0412 16.624 13.6354 17.2103 14.2491V14.2503ZM12.9991 18.1481C12.9342 18.062 12.9039 18.0109 12.8635 17.9699C12.0881 17.182 11.3216 16.3852 10.5313 15.6122C9.88495 14.9794 9.41043 14.2551 9.25761 13.3585C9.08457 12.3412 9.23323 11.3757 9.81478 10.4975C9.98485 10.2408 9.9563 10.0103 9.76602 9.89977C9.55849 9.77915 9.35334 9.84689 9.19933 10.1059C9.06792 10.3258 8.9264 10.5456 8.83601 10.7833C8.20332 12.444 8.31154 14.0537 9.44373 15.447C10.2786 16.4749 11.2752 17.3721 12.2064 18.321C12.2617 18.3769 12.3884 18.4143 12.4609 18.3923C12.6351 18.3383 12.7969 18.2432 12.9991 18.1487V18.1481ZM19.2695 12.2016C19.1785 12.0947 19.1018 11.9931 19.0138 11.9033C18.3924 11.2688 17.7722 10.633 17.1437 10.0055C16.7946 9.65675 16.4473 9.30262 16.0692 8.98711C15.3431 8.38046 14.4868 8.02217 13.5491 7.98176C12.9479 7.95562 12.3366 8.0905 11.7343 8.182C11.5053 8.21706 11.412 8.41373 11.478 8.63774C11.5422 8.85639 11.7176 8.90749 11.9281 8.85818C11.9858 8.84451 12.0429 8.82728 12.1006 8.81361C13.5871 8.46067 14.8829 8.80886 15.9716 9.88194C16.7673 10.6657 17.5504 11.4625 18.3401 12.2527C18.6394 12.5518 18.9492 12.5349 19.2695 12.2022V12.2016ZM16.2012 15.2598C16.1732 15.204 16.1655 15.1725 16.1465 15.1523C15.239 14.2313 14.3316 13.3109 13.4195 12.3947C13.3624 12.3371 13.2553 12.2741 13.1905 12.2901C13.0609 12.3222 12.8997 12.3775 12.8314 12.4773C12.7077 12.6585 12.8135 12.8279 12.9586 12.9729C13.8054 13.816 14.6521 14.6591 15.4906 15.5106C15.6547 15.6775 15.7944 15.6669 15.9484 15.526C16.0353 15.447 16.1102 15.3555 16.2006 15.2592L16.2012 15.2598ZM19.2742 10.0115C19.3539 10.1458 19.3973 10.2581 19.4734 10.3395C19.6881 10.5694 19.9218 10.7815 20.1371 11.0109C20.2601 11.1416 20.3713 11.1523 20.476 11.0109C20.5848 10.8641 20.8845 10.7643 20.6651 10.5141C20.4326 10.2486 20.1787 9.9984 19.9093 9.77083C19.8225 9.69775 19.6388 9.67101 19.5311 9.71023C19.4277 9.74766 19.3646 9.89799 19.2736 10.0115H19.2742Z" fill="#1B1A1A"></path><path d="M49.3371 8.68656C50.2909 8.68656 51.1716 8.68241 52.0516 8.6931C52.1402 8.69429 52.2538 8.76797 52.3115 8.84224C53.1261 9.88205 53.9319 10.9296 54.743 11.9718C55.3911 12.8042 56.0446 13.6325 56.6963 14.4614C56.7255 14.4988 56.7659 14.5273 56.8444 14.5998C56.8563 14.475 56.8706 14.3954 56.8706 14.3158C56.8718 12.863 56.8801 11.4109 56.8616 9.9581C56.8593 9.74717 56.7493 9.52792 56.6523 9.33125C56.553 9.13101 56.4079 8.95335 56.2557 8.724H58.9084C58.7645 8.92899 58.6664 9.13101 58.5129 9.27421C58.2727 9.4994 58.2192 9.75846 58.2198 10.0704C58.2281 12.7383 58.2251 15.4061 58.2257 18.074C58.2257 18.1904 58.2257 18.3069 58.2257 18.4382C57.093 18.3188 56.1231 17.9397 55.4208 17.0472C54.2744 15.5915 53.1404 14.1263 52.0011 12.6646C51.8471 12.4673 51.696 12.2683 51.4939 12.0062C51.482 12.1863 51.4701 12.2807 51.4701 12.3746C51.4689 13.8862 51.463 15.3984 51.4784 16.91C51.4802 17.1007 51.57 17.3069 51.6693 17.4768C51.8096 17.7181 51.9969 17.9331 52.186 18.1886H49.4751C49.6333 17.9468 49.795 17.7484 49.9002 17.5238C49.9972 17.3182 50.0882 17.0847 50.0893 16.8624C50.103 14.7085 50.0876 12.5541 50.1066 10.4002C50.1102 10.0074 49.9787 9.69667 49.776 9.38829C49.6368 9.17617 49.5066 8.9581 49.3359 8.68359L49.3371 8.68656Z" fill="#1B1A1A"></path><path d="M67.8275 18.1325H65.2539C66.1429 17.2638 66.2624 16.0713 66.6638 15.013C67.2662 13.4254 67.7847 11.8063 68.3335 10.1984C68.5048 9.69753 68.4917 9.21447 68.107 8.75873C68.1884 8.75101 68.233 8.74269 68.2782 8.74269C69.2386 8.7415 70.1989 8.74625 71.1592 8.73734C71.3388 8.73556 71.4179 8.79795 71.4786 8.96313C72.0613 10.5478 72.6524 12.1301 73.2422 13.7124C73.6299 14.7522 73.9808 15.808 74.4244 16.8241C74.6384 17.3143 75.0273 17.7284 75.3235 18.158H71.34C71.9531 17.5763 71.8847 16.9435 71.5743 16.2769C71.4548 16.0196 71.3947 15.735 71.2728 15.4789C71.2264 15.3814 71.0831 15.2703 70.9826 15.2685C70.0722 15.2519 69.1607 15.2525 68.2503 15.265C68.1629 15.2662 68.0279 15.36 67.9987 15.4414C67.8174 15.9394 67.6503 16.4432 67.4981 16.9507C67.369 17.3796 67.4725 17.7665 67.8275 18.1331V18.1325ZM69.6173 11.0273C69.5894 11.0291 69.5615 11.0309 69.5341 11.0321C69.1821 12.0332 68.83 13.0338 68.4715 14.0534H70.7501C70.3642 13.0208 69.9908 12.0243 69.6179 11.0273H69.6173Z" fill="#1B1A1A"></path><path d="M63.2348 18.1306H59.7508C59.7479 18.111 59.736 18.0849 59.7443 18.0754C60.1082 17.6392 60.1683 17.133 60.1635 16.5816C60.1445 14.398 60.1439 12.2144 60.1647 10.0308C60.1695 9.51982 60.0862 9.09201 59.5469 8.76522C59.714 8.75333 59.7925 8.74264 59.871 8.74264C61.307 8.74145 62.7442 8.77472 64.1791 8.73194C65.4641 8.69332 66.7051 9.79552 66.7467 11.0813C66.7681 11.7474 66.755 12.3939 66.34 12.9732C65.8328 13.6826 65.143 14.0391 64.2903 14.1003C63.9561 14.1241 63.6183 14.1045 63.3448 14.1045C63.5684 13.7914 63.8592 13.4717 64.0489 13.1009C64.4496 12.319 64.3878 11.5121 63.9983 10.7426C63.7474 10.2471 63.4049 9.9607 62.6217 10.1092V10.4479C62.6217 12.5525 62.6324 14.6571 62.6134 16.7617C62.6092 17.1978 62.7258 17.5495 63.0207 17.8567C63.0885 17.9274 63.142 18.0106 63.2354 18.1312L63.2348 18.1306Z" fill="#1B1A1A"></path><path d="M45.1537 15.6634C45.3083 15.2326 45.4629 14.8018 45.6175 14.371C46.1087 13.0009 46.5773 11.6224 47.1029 10.2659C47.2867 9.79053 47.2094 9.41085 46.9626 9.01632C46.9115 8.93373 46.8728 8.84341 46.811 8.7222H48.9725C48.7703 9.31578 48.577 9.88917 48.3802 10.4614C47.9229 11.7911 47.4627 13.1197 47.0066 14.4495C46.6016 15.6307 46.2026 16.8131 45.7971 17.9943C45.6508 18.421 45.6038 18.4311 45.1281 18.2926C43.7718 17.8975 42.8864 17.0692 42.4166 15.7002C41.7114 13.6444 40.8979 11.6254 40.1261 9.59208C40.0155 9.30152 39.8817 9.01929 39.7461 8.70557C39.84 8.69665 39.9049 8.68536 39.9697 8.68536C40.7718 8.68418 41.574 8.68833 42.3762 8.6812C42.5575 8.67942 42.6574 8.72339 42.7228 8.91174C43.4554 11.03 44.1981 13.1447 44.9385 15.2599C44.9854 15.3948 45.036 15.5285 45.0847 15.6628C45.1079 15.6628 45.1311 15.6628 45.1543 15.6628L45.1537 15.6634Z" fill="#1B1A1A"></path><path d="M83.2504 8.75825C82.7895 9.41066 82.3525 10.028 81.9166 10.6465C81.2179 11.6376 80.5169 12.6275 79.8265 13.6246C79.7605 13.7202 79.7403 13.8634 79.7397 13.9852C79.7331 14.9733 79.7581 15.9626 79.7254 16.9496C79.7123 17.3429 79.8378 17.6341 80.097 17.8979C80.1654 17.9674 80.2314 18.0399 80.3361 18.1504H76.5911C76.6226 18.094 76.6416 18.0268 76.6856 17.9864C77.0626 17.6412 77.1161 17.208 77.0995 16.7226C77.0692 15.8248 77.0924 14.9258 77.0763 14.0274C77.0733 13.8705 77.0222 13.6905 76.9336 13.5622C76.1219 12.3863 75.2983 11.2193 74.4765 10.0512C74.1721 9.61862 73.8635 9.19022 73.543 8.74102C74.115 8.74102 74.6936 8.74102 75.2722 8.74102C75.6087 8.74102 75.9489 8.76954 76.2819 8.7327C76.6077 8.69645 76.7635 8.85451 76.9116 9.10109C77.5205 10.113 78.1407 11.1183 78.7579 12.1255C78.7936 12.1831 78.8376 12.236 78.9018 12.3245C79.0279 12.1766 79.1522 12.0524 79.2509 11.9104C79.6106 11.3934 79.9573 10.867 80.3182 10.3506C80.7131 9.78618 80.7303 9.36253 80.3533 8.75825H83.2504Z" fill="#1B1A1A"></path><path d="M87.1411 13.0104C87.5698 13.4686 88.0669 13.9237 88.7781 14.0562C88.5599 14.4626 87.7066 14.6028 87.3242 14.4133C86.88 14.1929 86.4786 13.8863 86.0541 13.6254C85.9346 13.5517 85.7895 13.4418 85.6705 13.4579C84.4087 13.6278 83.4109 12.7847 83.1427 11.4947C82.9025 10.3396 83.6464 9.12393 84.8006 8.83516C85.6343 8.6266 86.4233 8.66344 87.1119 9.25762C87.7928 9.84466 88.0949 10.9766 87.7494 11.8548C87.5972 12.2416 87.3629 12.5957 87.1411 13.0104ZM84.395 10.7645C84.4248 11.462 84.527 12.0336 84.9451 12.503C85.372 12.9825 86.1248 12.8964 86.4001 12.3224C86.4876 12.14 86.5482 11.9338 86.5696 11.7324C86.6392 11.0841 86.5607 10.4531 86.2348 9.87616C86.0309 9.5149 85.6908 9.36814 85.2864 9.39844C84.8838 9.42874 84.6436 9.69553 84.5253 10.0479C84.439 10.3052 84.4254 10.5868 84.3956 10.7639L84.395 10.7645Z" fill="#1B1A1A"></path><path d="M88.2031 13.3559C88.2555 13.0926 88.3452 12.8389 88.35 12.584C88.3678 11.6565 88.3667 10.7284 88.3524 9.80089C88.3476 9.4937 88.2816 9.1877 88.24 8.84902C88.7841 8.84902 89.3817 8.8407 89.9793 8.85259C90.2921 8.85912 90.615 8.85912 90.9129 8.93755C91.3309 9.04807 91.5622 9.37962 91.6235 9.79733C91.6948 10.2804 91.5509 10.6916 91.1222 10.9714C91.0401 11.0249 90.9593 11.0796 90.8326 11.1627C91.2881 11.8888 91.74 12.609 92.2169 13.3689C91.8102 13.3808 91.4011 13.4087 90.9931 13.3974C90.7666 13.3915 90.6007 13.2554 90.4907 13.0398C90.2332 12.5353 89.9573 12.0403 89.6493 11.5507C89.6707 12.1485 89.4709 12.7581 89.8181 13.3553H88.2031V13.3559ZM89.6326 11.0297C90.1125 10.9892 90.4604 10.543 90.3878 10.0837C90.3188 9.64938 90.0322 9.42953 89.6326 9.51212V11.0297Z" fill="#1B1A1A"></path></g><defs><clipPath id="clip0_1719_19250"><rect width="91.3087" height="28.8146" fill="white" transform="translate(0.90625 0.481445)"></rect></clipPath></defs></svg>