<svg xmlns:xlink="http://www.w3.org/1999/xlink" width="92" height="35" viewBox="0 0 92 35" fill="none" xmlns="http://www.w3.org/2000/svg" class="text-[#1B1A1A]"><g clip-path="url(#clip0_1719_19175)" fill="none"><path d="M22.3437 34.9577C22.122 34.8284 21.9549 34.643 21.7925 34.4471C19.9578 32.2341 18.1192 30.0245 16.2815 27.8141C16.2283 27.75 16.1725 27.6878 16.1079 27.613C15.6937 27.8002 15.2877 27.9825 14.8824 28.167C12.7025 29.1599 10.5229 30.1533 8.34322 31.1467C8.1359 31.241 7.92909 31.3361 7.721 31.4289C7.65942 31.4563 7.59656 31.4831 7.53142 31.4989C7.21385 31.5754 7.0007 31.4048 7.05114 31.082C7.1069 30.725 7.20093 30.3736 7.28381 30.021C7.87003 27.5263 8.45778 25.0322 9.04477 22.5376C9.07341 22.4159 9.09875 22.2932 9.12866 22.1563C8.75203 21.976 8.38884 21.8011 8.02489 21.6279C6.54678 20.9256 5.06841 20.2238 3.59005 19.522C2.69841 19.0986 1.80577 18.6777 0.916416 18.2497C0.781835 18.185 0.648267 18.1029 0.540805 18.001C0.39786 17.8653 0.411293 17.683 0.56691 17.5616C0.685017 17.4693 0.820866 17.3952 0.957728 17.3316C3.26791 16.2581 5.57936 15.1876 7.89031 14.1162C8.25756 13.9458 8.62531 13.7762 8.9918 13.6043C9.19455 13.5092 9.20419 13.4909 9.15552 13.2754C8.77966 11.6155 8.40177 9.95577 8.0259 8.29583C7.76156 7.12876 7.49848 5.9617 7.23844 4.79363C7.21487 4.68815 7.20194 4.57609 7.21056 4.46909C7.22678 4.26575 7.39355 4.13289 7.59707 4.16484C7.71999 4.18411 7.84342 4.22518 7.95671 4.27792C10.0203 5.24189 12.0821 6.20942 14.1444 7.17592C14.7783 7.47308 15.4132 7.76845 16.0468 8.06586C16.266 8.16855 16.2696 8.17057 16.4267 7.98447C17.498 6.71574 18.5696 5.44701 19.6397 4.17752C20.4654 3.19808 21.2879 2.21585 22.1161 1.2387C22.2018 1.13779 22.308 1.046 22.4218 0.979067C22.5797 0.88627 22.747 0.927598 22.8387 1.08581C22.9132 1.21436 22.967 1.36116 23.0007 1.50644C23.286 2.72928 23.5651 3.95389 23.8449 5.178C24.198 6.72259 24.55 8.26717 24.9023 9.81201C24.9155 9.86957 24.9218 9.92941 24.9411 9.98468C25.0138 10.1913 24.9517 10.362 24.8148 10.5204C24.5115 10.8711 24.2116 11.2248 23.9105 11.5772C21.7742 14.0761 19.6376 16.5748 17.5026 19.0745C17.4286 19.1612 17.332 19.2466 17.3918 19.4023C17.5056 19.4122 17.589 19.3501 17.6651 19.2717C18.2705 18.6485 18.8768 18.0256 19.4813 17.4013C19.8685 17.0015 20.2515 16.5971 20.6405 16.1985C21.448 15.3715 22.2601 14.5487 23.0668 13.7209C24.056 12.706 25.0414 11.6872 26.0296 10.671C26.1234 10.5744 26.2207 10.4806 26.3234 10.3936C26.5026 10.242 26.7056 10.1606 26.9486 10.1642C27.7926 10.1764 28.6366 10.1794 29.4806 10.185C29.5733 10.1855 29.6659 10.1761 29.7586 10.1769C29.8896 10.1776 30.0273 10.2007 30.0835 10.3275C30.134 10.4413 30.0321 10.5308 29.9619 10.6132C29.508 11.1457 29.0525 11.6766 28.5981 12.2085C26.753 14.3684 24.9079 16.5286 23.063 18.6886C22.9426 18.8295 22.8174 18.967 22.7056 19.1145C22.6489 19.1893 22.6167 19.2826 22.5602 19.3934C22.714 19.4193 22.7921 19.3658 22.8633 19.2933C23.4133 18.7334 23.965 18.1754 24.513 17.6135C24.9076 17.2089 25.2949 16.7971 25.6895 16.3927C26.5028 15.5596 27.3212 14.7313 28.1335 13.8969C29.1577 12.8452 30.1766 11.7881 31.2015 10.7369C31.3467 10.5881 31.4717 10.4175 31.676 10.328C31.8736 10.2413 32.0698 10.1964 32.2865 10.2002C32.9701 10.2121 33.6539 10.2113 34.3377 10.2187C34.4208 10.2197 34.5062 10.2316 34.5863 10.2542C34.8775 10.3358 34.9571 10.528 34.803 10.7925C34.7399 10.9007 34.656 10.9978 34.5752 11.0949C32.7214 13.3251 30.8669 15.5545 29.0127 17.7844C28.96 17.8478 28.9111 17.914 28.851 17.9913C29.1364 18.343 29.4104 18.6832 29.6874 19.021C31.0829 20.7225 32.4791 22.4233 33.8751 24.1243C34.105 24.4045 34.3374 24.6828 34.562 24.9676C34.6393 25.0657 34.711 25.174 34.7574 25.2891C34.8329 25.4754 34.7663 25.6283 34.5774 25.6947C34.4527 25.7386 34.3144 25.7627 34.1823 25.7627C32.8152 25.7652 31.4484 25.7619 30.0813 25.7586C28.393 25.7543 26.7048 25.7485 25.0166 25.7439C24.9836 25.7439 24.9507 25.7515 24.8944 25.7584C24.8643 25.8659 24.8293 25.9759 24.8022 26.088C24.148 28.791 23.4936 31.4938 22.8423 34.1976C22.7726 34.4866 22.7029 34.7701 22.4454 34.9587H22.344L22.3437 34.9577Z" fill="#1B1A1A"></path><path d="M91.7487 17.7424C91.7317 17.9409 91.7114 18.1392 91.6985 18.3379C91.5768 20.2284 91.0231 21.9568 89.7644 23.4106C88.9818 24.3145 88.0073 24.9529 86.8929 25.3771C85.9493 25.7361 84.9704 25.9455 83.9622 25.9937C83.3486 26.0228 82.7322 26.0414 82.1189 26.0198C81.0747 25.9828 80.0348 25.87 79.0101 25.6648C78.16 25.4945 77.3186 25.281 76.4736 25.0852C76.4006 25.0683 76.3301 25.0406 76.2407 25.0122V6.78752C75.6864 6.71881 75.1473 6.65187 74.6133 6.58544C74.558 6.39351 74.5388 4.64507 74.5831 4.15827C74.7722 4.07536 80.2827 3.90752 80.6018 3.93033V11.2339C80.7234 11.149 80.8038 11.096 80.8808 11.0387C81.7111 10.4228 82.6179 9.96847 83.6378 9.76919C85.0951 9.4842 86.5266 9.56965 87.9026 10.1548C89.1326 10.6779 90.0513 11.5559 90.7022 12.7184C91.2152 13.6347 91.5087 14.6223 91.6415 15.6587C91.683 15.9835 91.6871 16.3131 91.7114 16.6402C91.7162 16.7041 91.7358 16.767 91.7484 16.8306V17.7421L91.7487 17.7424ZM80.6089 21.9679C80.6481 21.991 80.6684 22.0077 80.6917 22.0164C81.7195 22.3896 82.7758 22.5764 83.8685 22.4443C84.9732 22.3107 85.8393 21.7866 86.3923 20.7996C86.7998 20.0722 86.9656 19.274 87.0239 18.4548C87.0802 17.6643 87.0586 16.8732 86.9321 16.0875C86.8336 15.4757 86.6706 14.8865 86.3396 14.3553C85.9868 13.7894 85.4893 13.4293 84.8255 13.3165C84.0119 13.1783 83.2511 13.3505 82.531 13.7288C81.8348 14.0944 81.2716 14.6266 80.7313 15.1864C80.6294 15.2921 80.6063 15.4113 80.6066 15.553C80.6099 17.6194 80.6089 19.686 80.6089 21.7524V21.9677V21.9679Z" fill="#1B1A1A"></path><path d="M72.2536 22.926C72.7638 22.9757 73.255 23.0236 73.7591 23.0728V25.5378C72.0975 25.59 70.4333 25.6422 68.754 25.695C68.6655 25.2903 68.5799 24.8994 68.4934 24.5048C68.131 24.7376 67.7942 24.9767 67.4365 25.1798C66.3908 25.7736 65.2614 26.0672 64.0586 26.1009C63.3649 26.1204 62.678 26.0849 61.9983 25.946C61.1361 25.7698 60.3364 25.4503 59.6463 24.8905C58.9057 24.2901 58.4363 23.5175 58.2077 22.5974C58.0017 21.7678 57.987 20.9306 58.1497 20.0927C58.3958 18.8252 59.1095 17.8902 60.2029 17.2251C61.0068 16.736 61.8886 16.4604 62.8022 16.2771C63.688 16.0994 64.584 16.0089 65.488 15.9995C66.1797 15.9921 66.8714 15.9815 67.5628 15.9723C67.6292 15.9716 67.6956 15.9723 67.7767 15.9723C67.7855 15.9021 67.8002 15.8463 67.7982 15.7911C67.784 15.4211 67.7914 15.0482 67.7452 14.6821C67.6195 13.6856 67.045 13.2731 66.201 13.0875C65.5876 12.9526 64.9654 12.9458 64.3399 12.9772C62.9127 13.049 61.5388 13.3581 60.2082 13.8717C60.1469 13.8953 60.081 13.9067 59.9983 13.929C59.7261 12.8264 59.4567 11.7341 59.1827 10.6241C59.4539 10.5321 59.7135 10.435 59.9781 10.3556C61.2575 9.9725 62.5627 9.72149 63.8949 9.62235C64.4491 9.58102 65.006 9.5402 65.5608 9.54908C66.7008 9.56708 67.8329 9.67002 68.9215 10.047C69.6223 10.2899 70.2665 10.633 70.8089 11.1456C71.4793 11.7792 71.8805 12.565 72.0866 13.4559C72.2026 13.9579 72.2559 14.4666 72.2554 14.9828C72.2526 17.5225 72.2541 20.0623 72.2541 22.602V22.9258L72.2536 22.926ZM67.7995 19.0453C67.7544 19.0253 67.7397 19.0126 67.725 19.0128C66.8653 19.0215 66.0046 19.0133 65.1459 19.0478C64.624 19.0686 64.1095 19.1812 63.6267 19.3942C63.0886 19.6315 62.6945 20.0024 62.5962 20.6102C62.5655 20.7993 62.5622 20.9966 62.5746 21.1882C62.6281 22.0077 63.1016 22.5155 63.8571 22.7065C64.4509 22.8566 65.0435 22.8233 65.6312 22.6717C66.312 22.4963 66.9046 22.1482 67.4571 21.724C67.7982 21.4621 67.7995 21.4636 67.7995 21.047V19.0458V19.0453Z" fill="#1B1A1A"></path><path d="M39.4961 10.2118C41.1351 10.1238 42.762 10.0363 44.4046 9.94808C44.5096 10.4942 44.6104 11.0201 44.7166 11.572C44.7749 11.5312 44.8221 11.5038 44.8629 11.4688C45.6166 10.8226 46.4251 10.266 47.372 9.9354C48.0049 9.71431 48.6575 9.60732 49.3258 9.5665C50.0284 9.52365 50.7231 9.56599 51.4135 9.69099C52.423 9.87354 53.3306 10.2731 54.0803 10.9868C54.5631 11.4465 54.9184 11.9962 55.1785 12.609C55.4641 13.2819 55.6266 13.9845 55.6894 14.7104C55.7168 15.0286 55.7388 15.3486 55.7394 15.6675C55.7429 18.8989 55.7416 22.1303 55.7416 25.362V25.6772H51.233V25.3661C51.233 22.3877 51.2338 19.4093 51.2325 16.4309C51.2323 15.8138 51.1745 15.204 50.9682 14.6168C50.8017 14.1427 50.5442 13.7396 50.0905 13.4845C49.835 13.341 49.5598 13.2637 49.2734 13.2403C48.271 13.1582 47.3641 13.415 46.5876 14.0613C46.2059 14.379 45.8546 14.7327 45.4876 15.0679C45.4131 15.1358 45.3776 15.2124 45.3852 15.3128C45.3903 15.38 45.386 15.4477 45.386 15.5151C45.386 18.7973 45.386 22.0794 45.386 25.3615V25.6764H40.8896C40.8865 25.6731 40.8807 25.6673 40.8754 25.6612C40.87 25.6548 40.8624 25.6485 40.8607 25.6412C40.8566 25.6249 40.8551 25.6079 40.8531 25.5912C40.852 25.5828 40.8523 25.5745 40.852 25.5659C40.8518 25.5489 40.8513 25.5321 40.8513 25.5151C40.8513 25.4982 40.8513 25.4814 40.8513 25.4644C40.8513 21.3134 40.8513 17.1622 40.851 13.0111C40.851 12.9942 40.8505 12.9774 40.8503 12.9604C40.8503 12.9521 40.8498 12.9434 40.8493 12.9351C40.8485 12.9267 40.8477 12.9183 40.8462 12.91C40.8449 12.9016 40.8439 12.893 40.8409 12.8851C40.8381 12.8775 40.8333 12.8709 40.8166 12.8413C40.3918 12.787 39.9515 12.7307 39.4961 12.6724V10.2113V10.2118Z" fill="#1B1A1A"></path></g><defs><clipPath id="clip0_1719_19175"><rect width="91.3087" height="34.0281" fill="white" transform="translate(0.441406 0.929688)"></rect></clipPath></defs></svg>