<svg xmlns:xlink="http://www.w3.org/1999/xlink" width="63" height="40" viewBox="0 0 63 40" fill="none" xmlns="http://www.w3.org/2000/svg" class="text-[#1B1A1A]"><g clip-path="url(#clip0_1719_19240)" fill="none"><path fill-rule="evenodd" clip-rule="evenodd" d="M4.79183 12.5456C5.84636 9.35124 8.86193 7.03809 12.4325 7.03809H12.451H23.4403L19.0927 25.8003L18.6672 27.6362C17.5756 30.6102 14.7081 32.7398 11.341 32.7398H0.0742188L4.53283 13.4635L4.71783 12.7659C4.72708 12.7292 4.74096 12.6925 4.75483 12.6557C4.76871 12.619 4.78258 12.5823 4.79183 12.5456ZM6.40527 15.7953C6.51628 15.2996 6.92329 14.6754 7.5338 14.1614C8.14432 13.6474 8.82883 13.4087 9.55035 13.4087H19.5221L19.4851 13.5372C19.3186 14.2532 18.9301 14.8774 18.3196 15.3914C17.6905 15.8871 17.006 16.1441 16.2845 16.1441H9.06934L8.60683 18.2369H16.192V18.3654C16.0255 19.0814 15.637 19.7056 15.008 20.2196C14.379 20.7337 13.6945 20.9907 12.9729 20.9907H7.97781L7.3858 23.6527C7.2378 24.3686 6.84929 24.9745 6.22027 25.4885C5.60976 26.0025 4.92524 26.2595 4.20372 26.2595H4.07422L6.40527 15.7953Z" fill="#1B1A1A"></path><path fill-rule="evenodd" clip-rule="evenodd" d="M44.4575 12.2151C45.6046 9.18601 48.5461 7.03809 51.9872 7.03809H62.9765L58.4254 26.6448C57.5743 30.1513 54.3923 32.7398 50.6182 32.7398H39.6289L44.1985 13.0046C44.1985 13.0046 44.402 12.3804 44.4575 12.2151ZM56.8397 13.4087C57.4688 13.4087 57.9868 13.6106 58.3938 14.0145L58.3753 13.9962C58.7823 14.3817 58.9858 14.8957 58.9858 15.4832C58.9858 15.6851 58.9673 15.8687 58.9118 16.0523V16.1441H53.8427L52.2516 23.6343C52.1036 24.3686 51.7151 24.9745 51.1046 25.4885C50.4941 25.9842 49.8096 26.2412 49.0881 26.2412H48.9586L51.1231 16.1624H48.9771C48.348 16.1624 47.83 15.9605 47.423 15.5566C47.016 15.1711 46.8125 14.6571 46.8125 14.0512C46.8125 13.8677 46.831 13.7024 46.8865 13.5005V13.4087H56.8397Z" fill="#1B1A1A"></path><path fill-rule="evenodd" clip-rule="evenodd" d="M25.9367 6.43288C26.8988 3.0733 30.0068 0.613281 33.6884 0.613281H44.6962L37.148 33.1076C36.2785 36.5957 33.1149 39.1658 29.3408 39.1658H18.3516L25.7517 7.20393L25.7518 7.20387C25.8073 6.94688 25.8627 6.68988 25.9367 6.43288ZM29.8022 13.3906H36.4994C37.1284 13.3906 37.6464 13.5926 38.0534 13.9965C38.4604 14.4003 38.6639 14.9144 38.6639 15.5018C38.6639 15.7038 38.6454 15.8874 38.6084 16.0709L38.1089 18.4025C37.9424 19.1368 37.5539 19.761 36.9434 20.2567C36.3329 20.7523 35.6483 21.0093 34.9268 21.0093H28.1372L27.5821 23.6529C27.4341 24.3689 27.0456 24.9747 26.4351 25.4888C25.8246 26.0028 25.1401 26.2598 24.4186 26.2598H24.2891L27.0271 13.3906H29.8022ZM35.8703 16.1444H29.2102L28.7477 18.2556H35.4078L35.8703 16.1444Z" fill="#1B1A1A"></path></g><defs><clipPath id="clip0_1719_19240"><rect width="62.9015" height="38.5525" fill="white" transform="translate(0.0742188 0.612793)"></rect></clipPath></defs></svg>