<svg xmlns:xlink="http://www.w3.org/1999/xlink" width="105" height="16" viewBox="0 0 105 16" fill="none" xmlns="http://www.w3.org/2000/svg" class="text-[#1B1A1A]"><g clip-path="url(#clip0_1719_19143)" fill="none"><path d="M2.50573 10.6988C3.19684 10.6988 3.88796 10.7014 4.57907 10.6962C4.69828 10.6962 4.75051 10.721 4.75453 10.8447C4.76524 11.2837 4.98758 11.6133 5.35457 11.8491C6.0564 12.2998 6.82386 12.3246 7.61677 12.1409C7.89803 12.0758 8.15385 11.9637 8.36413 11.7683C8.89185 11.2798 8.80211 10.5672 8.14448 10.2585C7.73731 10.067 7.29933 9.92761 6.86672 9.79343C6.13676 9.56546 5.39475 9.37527 4.66747 9.13948C3.92144 8.89718 3.20086 8.59235 2.58341 8.10774C1.98069 7.63617 1.6271 7.03041 1.55611 6.27485C1.43289 4.96824 1.69809 3.76194 2.5218 2.69634C2.97317 2.11273 3.56115 1.68154 4.20137 1.31157C5.00901 0.845204 5.8863 0.540373 6.81314 0.424433C7.48417 0.341061 8.16859 0.354088 8.84765 0.337152C9.42224 0.322823 9.99281 0.364509 10.5553 0.497384C11.3911 0.695394 12.1492 1.0354 12.7867 1.60468C13.372 2.12576 13.656 2.79664 13.7792 3.53267C13.8462 3.9339 13.8475 4.34555 13.8797 4.7533C13.8877 4.85881 13.8247 4.87966 13.7337 4.87966C13.4658 4.87836 13.1993 4.87966 12.9314 4.87966C11.8398 4.87966 10.7469 4.87836 9.65529 4.88096C9.51733 4.88096 9.44902 4.86012 9.43563 4.70249C9.39277 4.21007 9.10748 3.89482 8.61995 3.75022C8.03063 3.57436 7.43327 3.56393 6.84395 3.73068C6.4716 3.8362 6.189 4.05896 6.12605 4.45889C6.05908 4.88747 6.3082 5.17016 6.66045 5.34212C7.04485 5.5284 7.45738 5.6704 7.86857 5.79545C8.85836 6.09638 9.88834 6.27354 10.8406 6.69432C11.4259 6.95355 11.9791 7.25969 12.4573 7.68046C12.985 8.14292 13.2622 8.73825 13.3037 9.40262C13.4028 10.9932 12.8792 12.391 11.7594 13.5634C11.2049 14.1444 10.487 14.4962 9.74503 14.8023C8.76595 15.2061 7.74534 15.4432 6.68054 15.5188C5.60503 15.5956 4.54559 15.5592 3.51026 15.2478C2.21374 14.857 1.20654 14.1106 0.575694 12.9368C0.215403 12.2673 0.151113 11.5403 0.219421 10.7991C0.230136 10.6754 0.315856 10.6897 0.398897 10.6897C1.10073 10.6897 1.80256 10.6897 2.50573 10.6897C2.50573 10.6923 2.50573 10.6949 2.50573 10.6988Z" fill="#1B1A1A"></path><path d="M50.187 7.12828C50.1227 7.50215 50.0624 7.85388 50.0022 8.20561L50.0397 8.22645C50.0772 8.19389 50.116 8.16132 50.1535 8.12745C50.8058 7.53733 51.5532 7.10483 52.4452 6.98238C53.1001 6.89249 53.7591 6.92375 54.3699 7.22468C54.781 7.4266 55.0931 7.72231 55.2686 8.14047C55.2927 8.1991 55.3195 8.25641 55.357 8.33848C55.4266 8.27986 55.4802 8.23687 55.5311 8.19128C56.1298 7.64024 56.8075 7.21165 57.6259 7.04621C58.4496 6.87946 59.2746 6.87946 60.0702 7.19732C60.6301 7.42139 60.9743 7.82131 61.1055 8.3958C61.2261 8.9247 61.214 9.4549 61.1216 9.98379C60.9971 10.699 60.8591 11.4115 60.7225 12.1254C60.5792 12.8706 60.4292 13.6144 60.2845 14.3582C60.2698 14.4325 60.2658 14.5081 60.2631 14.5823C60.2591 14.7438 60.1814 14.7973 60.0113 14.7947C59.2987 14.7842 58.5849 14.7881 57.871 14.7881C57.5977 14.7881 57.3245 14.7881 57.0513 14.7933C56.9428 14.7947 56.9026 14.7686 56.9267 14.6527C57.0955 13.7981 57.2629 12.9435 57.4209 12.0876C57.5321 11.4858 57.6326 10.8813 57.7223 10.2756C57.7451 10.1258 57.725 9.96295 57.6915 9.81314C57.6272 9.53045 57.4169 9.37543 57.0915 9.33635C56.2597 9.23735 55.6878 9.59168 55.4882 10.3811C55.3181 11.0533 55.1949 11.7372 55.0596 12.4172C54.923 13.1038 54.7998 13.7916 54.6699 14.4781C54.6096 14.7933 54.6096 14.7907 54.2734 14.7907C53.3653 14.7907 52.4572 14.7907 51.5478 14.7907C51.4768 14.7907 51.4072 14.7907 51.3 14.7907C51.3482 14.5237 51.3911 14.284 51.4366 14.043C51.6402 12.9878 51.8518 11.9326 52.0474 10.8761C52.0929 10.6286 52.1036 10.3733 52.1077 10.1206C52.117 9.5995 51.7594 9.29076 51.2076 9.32072C50.6598 9.35068 50.2848 9.62425 50.0343 10.0815C49.812 10.4879 49.733 10.9335 49.6472 11.3764C49.4584 12.3482 49.2722 13.32 49.0874 14.2931C49.0633 14.4195 49.0593 14.551 49.0271 14.6748C49.0151 14.7204 48.9508 14.7855 48.9092 14.7855C47.8672 14.7907 46.8252 14.7894 45.7832 14.7881C45.7684 14.7881 45.7537 14.7777 45.7148 14.7647C45.7684 14.4781 45.8207 14.1889 45.8756 13.901C46.0859 12.7976 46.2948 11.6942 46.5051 10.5908C46.718 9.47704 46.9323 8.36324 47.1399 7.24813C47.164 7.11655 47.2444 7.11786 47.3422 7.11786C48.1833 7.12046 49.0244 7.12307 49.8669 7.12567C49.9606 7.12567 50.0544 7.12567 50.1883 7.12567L50.187 7.12828Z" fill="#1B1A1A"></path><path d="M64.8907 13.752C64.8318 14.0425 64.7675 14.3148 64.726 14.5896C64.7019 14.7486 64.6389 14.7994 64.4675 14.7968C63.6143 14.7877 62.7625 14.7929 61.9093 14.7929C61.7097 14.7929 61.703 14.7837 61.7405 14.5883C61.9535 13.485 62.1664 12.3816 62.3767 11.2782C62.5575 10.3337 62.7343 9.38797 62.9125 8.44221C63.1348 7.26457 63.3585 6.08694 63.5808 4.9093C63.7402 4.06385 63.9009 3.2197 64.0523 2.37295C64.071 2.26612 64.1112 2.24398 64.2116 2.24398C65.2202 2.24658 66.2287 2.24919 67.2386 2.24268C67.406 2.24268 67.4087 2.32214 67.386 2.43417C67.2748 3.00475 67.1583 3.57273 67.0498 4.14461C66.8274 5.31834 66.6091 6.49207 66.3895 7.6658C66.3774 7.73224 66.3654 7.79868 66.3453 7.90811C66.4444 7.84688 66.5087 7.8091 66.5703 7.77002C66.8462 7.59676 67.1047 7.39094 67.4007 7.26067C67.7047 7.12649 68.0382 7.02879 68.3677 6.98319C69.6173 6.80863 70.658 7.17729 71.4134 8.17776C71.7094 8.56988 71.826 9.03624 71.8688 9.51173C72.0215 11.2 71.4469 12.6512 70.2549 13.8666C69.5665 14.5688 68.6798 14.9088 67.682 14.9948C67.1917 15.0365 66.7149 15.0117 66.2448 14.8775C65.7399 14.7342 65.3635 14.4307 65.0983 13.9943C65.0555 13.9253 65.0086 13.8588 64.9617 13.7911C64.9537 13.7794 64.9349 13.7755 64.8894 13.7507L64.8907 13.752ZM67.4328 9.26942C66.7966 9.25249 66.3453 9.51694 66.0841 10.0706C65.9823 10.2855 65.8778 10.5031 65.8202 10.7297C65.7332 11.0658 65.6394 11.4111 65.6341 11.7537C65.626 12.3138 65.9877 12.7255 66.4859 12.7997C66.9708 12.8727 67.4101 12.7659 67.7583 12.4206C68.3744 11.8084 68.6048 11.0645 68.5177 10.2217C68.4628 9.6941 68.14 9.22904 67.4342 9.26942H67.4328Z" fill="#1B1A1A"></path><path d="M93.9141 14.7777C94.0118 14.2671 94.1069 13.7772 94.2007 13.2874C94.4284 12.1059 94.6561 10.923 94.8824 9.74149C95.0606 8.81266 95.2333 7.88254 95.4115 6.95371C95.6365 5.77087 95.8655 4.58932 96.0892 3.40647C96.1548 3.06386 96.2124 2.71864 96.2673 2.37473C96.2821 2.27964 96.3303 2.25098 96.424 2.25098C97.3817 2.25098 98.3407 2.25098 99.2983 2.25098C99.3921 2.25098 99.4858 2.26661 99.6104 2.27833C99.1724 4.56066 98.7358 6.82866 98.3005 9.09665C98.3139 9.10447 98.326 9.11228 98.3393 9.1201C98.4344 9.04194 98.5336 8.96768 98.6246 8.88561C99.3559 8.22384 100.086 7.55947 100.82 6.899C100.863 6.85992 100.938 6.83517 100.998 6.83517C102.179 6.83387 103.361 6.83517 104.542 6.83908C104.578 6.83908 104.614 6.8521 104.695 6.86774C104.608 6.95111 104.549 7.01624 104.48 7.07226C103.862 7.5738 103.243 8.07534 102.623 8.57557C102.178 8.93381 101.736 9.29596 101.285 9.64639C101.151 9.75061 101.12 9.82225 101.208 9.9877C101.577 10.6742 101.921 11.3738 102.274 12.0694C102.691 12.8901 103.106 13.7108 103.521 14.5315C103.555 14.5979 103.586 14.6657 103.63 14.7595C103.548 14.766 103.491 14.7751 103.434 14.7751C102.459 14.7751 101.484 14.7699 100.509 14.7712C100.292 14.7712 100.075 14.7829 99.8582 14.7933C99.7309 14.7999 99.6586 14.7543 99.6091 14.6318C99.2515 13.7356 98.8871 12.8406 98.5228 11.947C98.4559 11.7828 98.421 11.775 98.2777 11.8935C98.18 11.9743 98.0916 12.0668 97.9871 12.1358C97.7554 12.2857 97.6683 12.5019 97.6228 12.7559C97.5076 13.3851 97.3763 14.013 97.2558 14.6409C97.2344 14.7504 97.1862 14.796 97.0683 14.7946C96.0651 14.792 95.0619 14.7946 94.0587 14.7946C94.0212 14.7946 93.9837 14.7868 93.9181 14.7803L93.9141 14.7777Z" fill="#1B1A1A"></path><path d="M73.5609 9.47277C73.6989 8.82924 74.0123 8.30816 74.5413 7.90041C75.1454 7.43535 75.8512 7.22952 76.5879 7.09144C77.6138 6.89994 78.6505 6.92079 79.6845 6.96899C80.2671 6.99634 80.8511 7.08102 81.3775 7.35068C81.9855 7.66072 82.3592 8.14662 82.3311 8.82403C82.3083 9.36334 82.2213 9.90266 82.1235 10.4355C81.9146 11.5831 81.6828 12.7282 81.4552 13.872C81.4217 14.04 81.4324 14.1911 81.5382 14.3318C81.6038 14.4191 81.6681 14.5064 81.7284 14.5963C81.8141 14.7252 81.782 14.7904 81.6279 14.7904C80.5698 14.793 79.5104 14.7904 78.4523 14.7943C78.3398 14.7943 78.309 14.7487 78.3116 14.6484C78.317 14.4347 78.313 14.2211 78.313 13.9671C78.2326 14.0127 78.1817 14.0361 78.1362 14.0674C77.3486 14.6132 76.4727 14.9154 75.5057 14.9923C74.9498 15.0366 74.4047 15.0249 73.8716 14.8568C73.51 14.7422 73.1725 14.5793 72.8805 14.3383C72.5791 14.0895 72.4144 13.7652 72.3983 13.3952C72.3474 12.2645 72.8068 11.3929 73.8556 10.8406C74.5092 10.4967 75.2284 10.3912 75.9503 10.2857C76.7205 10.1736 77.4893 10.0616 78.2541 9.9222C78.459 9.88572 78.6639 9.7789 78.8353 9.65906C79.1421 9.44541 79.0965 9.05591 78.7644 8.87613C78.1228 8.52962 77.1705 8.78755 76.8049 9.40112C76.7794 9.44411 76.7138 9.49101 76.6669 9.49101C75.653 9.49492 74.6391 9.49361 73.6252 9.49101C73.6105 9.49101 73.5944 9.48059 73.5596 9.46886L73.5609 9.47277ZM78.5956 11.4346C78.5179 11.4516 78.4402 11.4685 78.3625 11.488C78.0344 11.5662 77.7089 11.673 77.3768 11.7147C77.0272 11.7577 76.7017 11.8554 76.3963 12.0052C76.2437 12.0795 76.0923 12.1941 75.9945 12.3283C75.7159 12.7113 75.878 13.1646 76.328 13.2493C76.5745 13.2962 76.8437 13.3118 77.0875 13.2649C78.0465 13.0773 78.4416 12.353 78.6184 11.4998C78.621 11.4867 78.609 11.4698 78.5969 11.4346H78.5956Z" fill="#1B1A1A"></path><path d="M19.7131 14.7734V13.9632C19.5926 14.0335 19.5028 14.0791 19.4198 14.1351C18.8117 14.5429 18.1407 14.8164 17.4147 14.9324C16.5375 15.0744 15.6642 15.0874 14.8324 14.6953C14.3034 14.4452 13.8828 14.1091 13.781 13.5111C13.706 13.0695 13.7944 12.6448 13.9498 12.2306C14.282 11.3434 14.9905 10.838 15.8798 10.5892C16.5656 10.3977 17.2821 10.313 17.988 10.1919C18.5412 10.0968 19.0983 10.0264 19.6502 9.9248C19.8203 9.89353 19.985 9.80886 20.1377 9.72548C20.3279 9.61997 20.4444 9.45452 20.4136 9.23046C20.3828 9.0077 20.2301 8.86961 20.0158 8.82011C19.5042 8.70287 18.9952 8.68463 18.5425 8.99988C18.4072 9.09368 18.2974 9.23176 18.2023 9.36724C18.1434 9.45192 18.0951 9.50012 17.984 9.50012C17.025 9.49621 16.0673 9.49751 15.1083 9.49751C15.0561 9.49751 15.0039 9.4897 14.9382 9.48449C15.0682 8.88915 15.3427 8.40194 15.7995 8.00853C16.4169 7.47573 17.167 7.24124 17.9572 7.09404C18.9885 6.90124 20.0305 6.92078 21.0699 6.96898C21.6297 6.99503 22.1923 7.0745 22.7053 7.3181C23.5022 7.69588 23.8116 8.31857 23.7004 9.11713C23.5584 10.1332 23.3508 11.1402 23.166 12.1511C23.0575 12.749 22.9396 13.3457 22.8231 13.9423C22.7789 14.1677 22.8968 14.3331 23.0227 14.5025C23.0749 14.5728 23.1044 14.6588 23.1446 14.7383C23.0562 14.7578 22.9678 14.793 22.8794 14.793C21.9378 14.7969 20.9962 14.7943 20.0546 14.793C19.9502 14.793 19.8457 14.7826 19.7158 14.776L19.7131 14.7734ZM20.0024 11.4216C19.8765 11.4542 19.7881 11.4789 19.6984 11.4985C19.3649 11.5753 19.0327 11.6704 18.6952 11.7212C18.2974 11.7798 17.9331 11.9127 17.5875 12.0977C17.3558 12.2228 17.1911 12.6162 17.2446 12.8389C17.3036 13.0786 17.5339 13.2467 17.8554 13.2845C18.6363 13.3756 19.2899 13.0591 19.6729 12.4025C19.843 12.1107 19.9408 11.7955 20.0024 11.4216Z" fill="#1B1A1A"></path><path d="M83.0312 14.7607C83.1009 14.4077 83.1692 14.0559 83.2375 13.7029C83.5509 12.0823 83.8657 10.4631 84.1791 8.84253C84.2795 8.32015 84.3827 7.79776 84.4738 7.27408C84.4952 7.15032 84.5501 7.11776 84.6706 7.11906C85.5734 7.12427 86.4761 7.12557 87.3788 7.12297C87.5195 7.12297 87.5356 7.17247 87.5088 7.28841C87.4391 7.59194 87.3762 7.89807 87.3132 8.2029C87.3079 8.23156 87.3132 8.26153 87.3132 8.33057C87.3989 8.25892 87.4619 8.21202 87.5195 8.15731C88.1918 7.5242 88.9767 7.0891 89.9156 6.97967C90.6992 6.88848 91.472 6.9445 92.1792 7.34703C92.7095 7.64926 92.9908 8.10129 93.0698 8.67709C93.1435 9.20859 93.1154 9.73618 93.0096 10.2651C92.7203 11.7163 92.443 13.1688 92.1658 14.6226C92.1443 14.7359 92.1028 14.7906 91.9729 14.7906C90.9804 14.788 89.9893 14.7906 88.9968 14.7906C88.9499 14.7906 88.9017 14.7828 88.8388 14.7763C88.9352 14.2748 89.0303 13.7902 89.1227 13.3056C89.2915 12.4132 89.4683 11.5209 89.6183 10.6259C89.6571 10.3979 89.6384 10.1517 89.5982 9.92246C89.5393 9.58897 89.2366 9.36361 88.8736 9.33365C87.9655 9.25939 87.3882 9.65932 87.194 10.5465C86.9851 11.4974 86.8083 12.4549 86.6208 13.4098C86.5377 13.8319 86.4627 14.2552 86.3743 14.6773C86.3649 14.7216 86.294 14.788 86.2511 14.788C85.1984 14.7919 84.1443 14.788 83.0915 14.7854C83.0821 14.7854 83.0714 14.7763 83.0312 14.7581V14.7607Z" fill="#1B1A1A"></path><path d="M41.0997 6.94287C42.0613 6.94287 42.9708 7.13697 43.8186 7.59683C44.7106 8.08013 45.1807 8.81224 45.2075 9.78405C45.2517 11.3564 44.7521 12.7334 43.4851 13.7781C42.8248 14.3227 42.0238 14.6145 41.1948 14.8216C40.0362 15.1121 38.8803 15.0965 37.7419 14.7265C36.7547 14.406 35.9926 13.8407 35.6511 12.8454C35.5225 12.4702 35.5212 12.0833 35.5399 11.6964C35.5788 10.8731 35.8038 10.0993 36.215 9.37501C36.6623 8.58948 37.3293 8.02802 38.1397 7.61637C39.0652 7.14609 40.059 6.94808 41.0997 6.94417V6.94287ZM41.8765 10.369C41.8577 10.1827 41.8577 9.99118 41.8189 9.80881C41.7318 9.39976 41.5309 9.0806 41.0702 8.97508C40.4193 8.82657 39.6839 9.16788 39.3826 9.79187C39.2513 10.0628 39.1375 10.3494 39.0719 10.6399C38.9768 11.0568 38.8951 11.4841 38.8776 11.9101C38.8562 12.4129 39.1978 12.818 39.6438 12.9236C40.3094 13.0812 40.9992 12.8024 41.3528 12.2305C41.7064 11.6573 41.8591 11.032 41.8765 10.3677V10.369Z" fill="#1B1A1A"></path><path d="M31.0509 10.0525C31.0911 9.78024 31.0509 9.54445 30.8969 9.33863C30.6264 8.97387 30.2393 8.90613 29.812 8.95954C29.0941 9.05073 28.6789 9.49104 28.4834 10.1202C28.3213 10.6374 28.1686 11.1702 28.119 11.7043C28.0387 12.5732 28.6561 13.0487 29.5053 12.9484C30.1375 12.8741 30.5018 12.4768 30.7482 11.9453C30.7697 11.8984 30.8353 11.8411 30.8808 11.8411C31.9336 11.8372 32.9877 11.8411 34.0404 11.845C34.0498 11.845 34.0592 11.8541 34.098 11.875C34.0163 12.0717 33.9386 12.2762 33.8462 12.4742C33.3828 13.4643 32.5885 14.1078 31.5572 14.5038C30.5353 14.8959 29.4772 15.0392 28.3829 14.9676C27.665 14.9207 26.9605 14.8008 26.3404 14.4387C25.289 13.8251 24.713 12.925 24.8068 11.7187C24.9206 10.2557 25.5515 9.01946 26.7274 8.06849C27.3945 7.52918 28.1753 7.21393 29.0312 7.06933C30.1469 6.88044 31.2572 6.87262 32.3541 7.18527C32.7801 7.30642 33.1685 7.50312 33.5207 7.76366C34.1328 8.2157 34.398 8.83057 34.4154 9.55748C34.4194 9.7125 34.461 9.92093 34.3779 10.0056C34.2976 10.0877 34.0779 10.0486 33.9185 10.0486C33.06 10.0512 32.2015 10.0499 31.3443 10.0499C31.2505 10.0499 31.1581 10.0499 31.0509 10.0499V10.0525Z" fill="#1B1A1A"></path></g><defs><clipPath id="clip0_1719_19143"><rect width="104.498" height="15.2181" fill="white" transform="translate(0.195312 0.334473)"></rect></clipPath></defs></svg>