<svg xmlns:xlink="http://www.w3.org/1999/xlink" width="127" height="71" viewBox="0 0 127 71" fill="none" xmlns="http://www.w3.org/2000/svg" class="text-[#1B1A1A]"><path d="M16.6638 47.9256C13.42 47.8253 10.0369 47.7249 6.65369 47.6121C6.07082 47.587 5.48795 47.5243 4.91775 47.4365C3.61263 47.2484 2.73833 46.4708 2.1808 45.3422C1.76265 44.4894 1.5219 43.5864 1.43321 42.6459C1.36985 41.9436 1.33184 41.2538 1.31917 40.5515C1.28115 37.1905 1.23047 33.8296 1.23047 30.4686C1.23047 29.6409 1.33184 28.7756 1.55992 27.9855C2.13012 25.9915 3.56195 24.8126 5.60199 24.4615C7.03382 24.2107 8.50366 24.0727 9.96084 24.0476C14.7378 23.9473 19.5148 23.8846 24.2918 23.8721C26.0911 23.8721 27.9031 23.9724 29.6897 24.1981C33.0348 24.6245 35.0369 26.4806 35.7845 29.7161C35.9492 30.4435 36.0632 31.2085 36.0759 31.961C36.1266 34.5193 36.1266 37.0902 36.1266 39.6486C36.1266 40.9528 35.9745 42.2445 35.6198 43.5112C35.1256 45.3171 34.0866 46.7091 32.4013 47.6121C31.9071 47.8754 31.451 47.9507 30.9695 47.587C30.5893 47.2985 30.5767 47.1982 30.9315 46.8847C32.1732 45.7936 32.8701 44.4141 33.1362 42.8214C33.2883 41.9436 33.377 41.0406 33.377 40.1502C33.377 37.8176 33.3516 35.4724 32.9588 33.1524C32.7181 31.7352 32.1986 30.4937 30.9441 29.6409C30.2852 29.1894 29.5756 28.9135 28.7647 28.901C22.6826 28.8383 16.5878 28.763 10.5057 28.7129C10.0369 28.7129 9.56803 28.763 9.11187 28.8383C7.48998 29.1016 6.42561 30.1802 6.36225 31.8481C6.28622 34.1556 6.31157 36.4632 6.33691 38.7707C6.34958 39.8241 6.88177 40.6895 7.64203 41.4294C8.07285 41.8432 8.6177 42.069 9.21324 42.0941C10.3917 42.1568 11.5701 42.2069 12.7485 42.232C16.4231 42.2822 20.085 42.3073 23.7596 42.3449C24.1144 42.3449 24.4692 42.37 24.824 42.3574C25.9517 42.3198 26.6866 41.6175 26.712 40.5014C26.7247 39.8994 26.6993 39.2974 26.636 38.6955C26.5726 38.0308 26.2432 37.7423 25.5716 37.7423C22.2898 37.78 18.9953 37.8301 15.7135 37.8678C14.4337 37.8803 13.1539 37.8928 11.8742 37.9179C11.3673 37.9305 10.8605 37.9932 10.3536 38.0684C9.85947 38.1437 9.45399 38.3945 9.17523 38.8209C9.03585 39.0341 8.88379 39.1219 8.60503 39.0466C8.25024 38.9463 7.87011 38.9337 7.52799 38.8209C7.38861 38.7707 7.19854 38.5826 7.18587 38.4446C7.13519 36.9397 7.04649 35.4223 7.09717 33.9174C7.14786 32.3372 8.12353 31.3716 9.72009 31.2587C11.3166 31.1458 12.9259 31.1082 14.5351 31.1082C18.6025 31.0957 22.6699 31.0956 26.7373 31.1584C27.5863 31.1709 28.4733 31.359 29.2715 31.6475C31.2229 32.3623 32.2239 33.8797 32.3253 35.8612C32.4393 38.1437 32.452 40.4261 32.3253 42.7086C32.1859 45.4049 29.7784 47.6497 27.0034 47.75C23.6456 47.8378 20.2244 47.8629 16.6638 47.9256Z" fill="#1B1A1A"></path><path d="M66.2432 36.8014C66.2432 37.0522 66.2432 37.2905 66.2432 37.5413C66.2432 39.0211 66.2306 40.5135 66.2432 41.9933C66.2432 42.357 66.1292 42.495 65.7491 42.4824C64.9254 42.4699 64.1018 42.4824 63.2148 42.4824C63.2148 42.3445 63.2148 42.194 63.2148 42.0435C63.2148 39.4601 63.2148 36.8892 63.2148 34.3057C63.2148 33.9797 63.2402 33.6661 63.2909 33.3401C63.3922 32.713 63.785 32.3493 64.4186 32.2616C64.4693 32.249 64.5326 32.249 64.5833 32.249C66.2686 32.1361 66.2559 32.1487 67.1809 33.5533C67.9918 34.8074 68.8408 36.0238 69.6644 37.2779C69.8545 37.5664 69.9812 37.4911 70.1332 37.2654C70.4373 36.8014 70.7541 36.3248 71.0456 35.8483C71.6411 34.8951 72.262 33.9546 72.8322 32.9889C73.1743 32.3995 73.6431 32.1236 74.34 32.1738C74.6695 32.1988 74.9989 32.1863 75.3157 32.2114C75.9113 32.2616 76.3294 32.6002 76.4434 33.177C76.5321 33.6411 76.5828 34.1176 76.5828 34.5942C76.5828 37.0397 76.5448 39.4977 76.5321 41.9432C76.5321 42.0936 76.5321 42.2441 76.5321 42.5075C75.8732 42.5075 75.2397 42.52 74.6188 42.5075C73.6178 42.4824 73.6051 42.4824 73.6051 41.4917C73.6051 39.9491 73.6305 38.4066 73.6305 36.8766C73.6305 36.7637 73.6051 36.6383 73.4911 36.5004C73.4277 36.6133 73.3517 36.7136 73.2883 36.8265C72.3 38.6198 71.3243 40.4257 70.336 42.2065C70.0319 42.7458 69.7785 42.7458 69.4617 42.2065C68.7394 40.9775 68.0298 39.7234 67.3329 38.4819C67.0035 37.905 66.674 37.3155 66.3446 36.7387C66.3066 36.7637 66.2686 36.7763 66.2432 36.8014Z" fill="#1B1A1A"></path><path d="M116.688 32.237C118.664 32.237 120.641 32.2746 122.618 32.2245C123.568 32.1994 124.24 32.5631 124.734 33.303C124.949 33.6165 125.114 33.9551 125.291 34.2937C125.431 34.5446 125.342 34.6951 125.038 34.6951C124.62 34.6951 124.214 34.7201 123.796 34.7201C122.96 34.7201 122.124 34.7201 121.275 34.6951C120.895 34.6825 120.755 34.7578 120.768 35.1716C120.793 37.4541 120.768 39.7365 120.781 42.019C120.781 42.4203 120.629 42.5206 120.261 42.5081C119.64 42.483 119.007 42.483 118.386 42.5081C118.018 42.5206 117.917 42.3701 117.917 42.044C117.917 40.8025 117.904 39.5484 117.904 38.3068C117.904 37.2158 117.93 36.1247 117.955 35.0337C117.968 34.7703 117.879 34.6951 117.613 34.6951C115.699 34.6951 113.773 34.6825 111.86 34.67C111.569 34.67 111.455 34.7703 111.493 35.0713C111.543 35.3597 111.531 35.6607 111.543 35.9491C111.569 36.2752 111.708 36.4633 112.076 36.4633C112.785 36.4633 113.495 36.4884 114.204 36.4884C114.521 36.4884 114.673 36.6013 114.648 36.9399C114.622 37.3286 114.635 37.73 114.635 38.1187C114.635 38.3821 114.534 38.495 114.255 38.4824C113.647 38.4699 113.026 38.4699 112.418 38.4824C111.746 38.495 111.569 38.6831 111.569 39.3352C111.569 40.2507 111.556 41.1536 111.569 42.0691C111.569 42.4203 111.429 42.5331 111.087 42.5206C110.403 42.483 109.719 42.4704 109.047 42.4579C108.756 42.4579 108.692 42.3199 108.692 42.0691C108.692 39.3979 108.692 36.7141 108.68 34.0429C108.68 32.676 109.022 32.2746 110.428 32.2496C112.506 32.1869 114.597 32.2245 116.688 32.237C116.688 32.2245 116.688 32.2245 116.688 32.237Z" fill="#1B1A1A"></path><path d="M101.811 42.5831C100.988 42.5831 100.164 42.5956 99.3404 42.5831C98.5041 42.558 97.8452 42.1943 97.4144 41.4669C96.9709 40.7396 96.7175 39.9746 96.7049 39.1218C96.7049 37.8301 96.6922 36.5509 96.7049 35.2592C96.7175 33.5912 97.7819 32.4249 99.4671 32.3246C101.102 32.2368 102.736 32.2117 104.371 32.2494C105.79 32.2744 106.968 33.4658 107.171 35.0084C107.235 35.5351 107.196 36.0618 107.184 36.6011C107.171 37.6796 107.146 38.7581 107.108 39.8366C107.044 41.4544 105.397 42.4702 104.333 42.4953C103.497 42.5204 102.66 42.4953 101.824 42.4953C101.811 42.5329 101.811 42.558 101.811 42.5831ZM99.7586 37.203C99.7586 37.8426 99.7332 38.4947 99.7586 39.1343C99.7839 39.5231 99.9486 39.9495 100.405 39.962C101.406 40.0122 102.42 40.0122 103.421 39.962C103.864 39.9369 104.168 39.5733 104.181 39.1343C104.219 38.0433 104.269 36.9522 104.244 35.8611C104.231 35.1087 103.839 34.7199 103.078 34.6823C102.28 34.6321 101.482 34.6447 100.696 34.6698C100.101 34.6948 99.7966 35.0209 99.7586 35.6103C99.7332 36.137 99.7586 36.6638 99.7586 37.203Z" fill="#1B1A1A"></path><path d="M46.5252 37.0656C46.7786 37.0154 46.9687 36.9527 47.1588 36.9527C48.0584 36.9402 48.9454 36.9527 49.845 36.9653C50.4152 36.9653 50.5039 37.0531 50.5166 37.6299C50.5293 38.721 50.5293 39.8121 50.5166 40.9031C50.5039 41.7434 49.9971 42.3328 49.1608 42.4833C48.9074 42.5335 48.6539 42.5711 48.4005 42.5711C46.9053 42.5836 45.4228 42.5962 43.9276 42.5836C42.141 42.5711 40.8739 41.48 40.7345 39.7368C40.6078 38.2068 40.5698 36.6643 40.6078 35.1218C40.6585 33.3786 41.6342 32.3377 43.3954 32.275C45.6256 32.1872 47.8557 32.275 50.0858 32.3C50.1238 32.3 50.1618 32.3251 50.2378 32.3377C50.2378 33.0776 50.2378 33.83 50.2378 34.6327C50.0858 34.6452 49.9211 34.6577 49.7563 34.6577C48.3118 34.6577 46.8547 34.6452 45.4102 34.6828C45.0173 34.6954 44.5992 34.8208 44.2191 34.9587C43.8769 35.0841 43.6869 35.3851 43.6869 35.7488C43.6615 36.7897 43.6235 37.8181 43.6489 38.859C43.6615 39.486 43.991 39.8748 44.6372 39.9249C45.4228 39.9876 46.2211 39.9626 47.0194 39.9375C47.1461 39.9375 47.2728 39.7117 47.3742 39.5738C47.4122 39.5111 47.3868 39.4108 47.3868 39.323C47.4122 38.0438 47.4122 38.0438 46.5252 37.0656Z" fill="#1B1A1A"></path><path d="M87.1302 32.2997C87.1302 32.9769 87.1429 33.6165 87.1176 34.2561C87.1176 34.3564 86.9275 34.532 86.8134 34.5446C86.4587 34.5947 86.1039 34.5947 85.7491 34.5947C84.4313 34.5947 83.1008 34.5822 81.783 34.5822C81.1241 34.5822 80.9974 34.695 80.9974 35.3221C80.9974 36.225 81.0481 36.2877 81.9731 36.2877C83.3416 36.2877 84.7101 36.2752 86.0659 36.2501C86.446 36.2376 86.5727 36.3755 86.56 36.7392C86.5347 37.1405 86.5347 37.5544 86.56 37.9557C86.5854 38.3319 86.408 38.4949 86.0532 38.4949C85.7998 38.4949 85.5463 38.5326 85.2929 38.5326C84.1398 38.52 82.9868 38.495 81.8337 38.4699C81.2762 38.4573 81.0354 38.5827 80.9467 38.984C80.7947 39.6236 81.0228 39.9372 81.6817 39.9372C82.9614 39.9497 84.2412 39.9372 85.521 39.9372C86.0405 39.9372 86.5727 39.9372 87.1176 39.9372C87.1176 40.8025 87.1176 41.6176 87.1176 42.4453C87.0289 42.4579 86.9402 42.483 86.8388 42.483C84.634 42.4955 82.4293 42.4955 80.2245 42.4955C79.8444 42.4955 79.4516 42.4579 79.0841 42.3826C78.5012 42.2698 78.1844 41.9312 78.1591 41.3417C78.1338 40.7774 78.1591 40.2256 78.1591 39.6613C78.1464 37.9055 78.1338 36.1623 78.1211 34.4066C78.1211 34.2436 78.1211 34.068 78.1338 33.905C78.2478 32.701 78.8053 32.1743 80.0344 32.1743C82.2012 32.1869 84.3553 32.1994 86.522 32.2245C86.7121 32.2496 86.9021 32.2872 87.1302 32.2997Z" fill="#1B1A1A"></path><path d="M62.3445 42.4953C61.2675 42.4953 60.2538 42.5078 59.2528 42.4828C59.1261 42.4828 58.9613 42.2947 58.898 42.1567C58.7333 41.7178 58.5812 41.2538 58.4672 40.8023C58.4038 40.5515 58.2898 40.4386 58.0363 40.4386C57.1114 40.4386 56.1864 40.4135 55.2614 40.4386C55.0967 40.4386 54.8686 40.6142 54.8052 40.7772C54.6152 41.2287 54.5011 41.7052 54.3237 42.1567C54.273 42.2947 54.0956 42.4828 53.9689 42.4953C53.0566 42.5455 52.157 42.5706 51.2447 42.5956C51.1813 42.5956 51.1179 42.558 51.0039 42.5329C51.0799 42.3072 51.1433 42.094 51.2193 41.8933C52.309 39.0591 53.4114 36.2248 54.5011 33.3906C54.5771 33.1774 54.6658 32.9767 54.7672 32.7761C54.9319 32.45 55.1854 32.2368 55.5655 32.2368C56.2624 32.2368 56.9593 32.2368 57.6435 32.2744C57.9983 32.2995 58.2771 32.4876 58.4291 32.8388C59.6709 35.8737 60.9253 38.8961 62.1671 41.931C62.2431 42.0815 62.2812 42.257 62.3445 42.4953ZM55.6415 38.1311C56.2877 38.1311 56.8706 38.1311 57.5042 38.1311C57.2127 37.2657 56.934 36.438 56.6552 35.5978C56.6172 35.5853 56.5792 35.5852 56.5412 35.5727C56.2624 36.4004 55.9583 37.2407 55.6415 38.1311Z" fill="#1B1A1A"></path><path d="M96.9597 42.4951C96.5669 42.4951 96.3262 42.4951 96.0727 42.4951C94.0834 42.5201 92.094 42.5327 90.1047 42.5578C89.1163 42.5703 88.6602 42.169 88.6602 41.2284C88.6602 38.3816 88.6602 35.5474 88.6602 32.7006C88.6602 32.4623 88.6728 32.2742 88.9896 32.2867C89.8259 32.2867 90.6622 32.2867 91.5492 32.2867C91.5618 32.4748 91.5745 32.6253 91.5745 32.7758C91.5745 34.7949 91.5745 36.814 91.5745 38.8206C91.5745 39.9367 91.7139 40.0747 92.8543 40.0496C93.6399 40.037 94.4128 40.0119 95.1984 39.9869C95.4772 39.9743 95.6166 40.037 95.7053 40.3506C95.908 41.1156 96.2248 41.8555 96.9597 42.4951Z" fill="#1B1A1A"></path></svg>