<svg xmlns:xlink="http://www.w3.org/1999/xlink" width="93" height="38" viewBox="0 0 93 38" fill="none" xmlns="http://www.w3.org/2000/svg" class="text-[#1B1A1A]"><g clip-path="url(#clip0_1719_19097)" fill="none"><mask id="mask0_1719_19097" maskUnits="userSpaceOnUse" x="0" y="0" width="93" height="38" style="mask-type: luminance;" fill="none"><path d="M92.2657 0.30957H0.957031V37.5784H92.2657V0.30957Z" fill="#FFFFFF"></path></mask><g mask="url(#mask0_1719_19097)" fill="none"><path fill-rule="evenodd" clip-rule="evenodd" d="M68.0963 1.24781C68.5684 0.353356 55.4994 6.19214 51.1638 9.46559C49.6296 10.6209 49.6917 11.9999 51.5055 13.0869L57.2697 16.5156C59.8288 17.7641 58.9282 18.8325 58.4375 19.3853C54.4497 22.7271 50.1576 25.6837 45.6108 28.218C45.5859 28.2367 45.5735 28.2677 45.5797 28.2988C45.5549 29.3175 66.8167 22.6774 67.9348 18.3418C68.4317 16.3727 61.5805 13.7329 59.6238 12.4098C58.4747 11.6458 58.6424 10.36 59.6673 9.37242L68.0963 1.24781Z" fill="#1B1A1A"></path><path fill-rule="evenodd" clip-rule="evenodd" d="M89.6774 6.30981C88.5655 5.18553 86.7517 5.17932 85.6275 6.29117C85.6275 6.29117 85.615 6.30359 85.6088 6.30981C84.4846 7.44029 84.4846 9.26647 85.6088 10.397C86.7269 11.5212 88.5406 11.5274 89.6587 10.4094C89.6587 10.4094 89.6649 10.4032 89.6711 10.397C90.7954 9.26647 90.7954 7.44029 89.6711 6.30981H89.6774ZM89.3481 9.92488L88.8512 9.14845C88.7394 8.97453 88.609 8.81303 88.4599 8.67638C88.3729 8.60184 88.2798 8.54594 88.1742 8.49625C88.4537 8.47761 88.7208 8.35959 88.932 8.16704C89.0935 7.99312 89.1804 7.76329 89.1742 7.52726C89.1742 7.34091 89.1245 7.15457 89.0251 6.99307C88.932 6.83778 88.7953 6.71976 88.6276 6.65144C88.3978 6.5769 88.1493 6.54584 87.9071 6.55205H86.3356V10.1112H86.7952V8.5273H87.3418C87.4288 8.5273 87.5157 8.5273 87.6027 8.53973C87.6772 8.55836 87.7518 8.58942 87.8139 8.6329C87.9009 8.69501 87.9816 8.77576 88.0437 8.86272C88.1307 8.97453 88.2425 9.14224 88.3854 9.35343L88.845 10.0988H89.1183C88.199 10.9001 86.8201 10.8504 85.9629 9.987C85.0622 9.07391 85.0622 7.608 85.9629 6.69492C86.8573 5.78804 88.317 5.78183 89.2239 6.67628C89.2239 6.67628 89.2363 6.68871 89.2425 6.69492C90.1246 7.57695 90.1556 8.99937 89.3109 9.91867H89.3357L89.3481 9.92488ZM87.8201 8.12356H86.8139V6.94338H87.9381C88.1431 6.92474 88.3481 6.98065 88.5158 7.10487C88.6338 7.21047 88.7021 7.35954 88.6959 7.52104C88.6959 7.63285 88.6649 7.74466 88.6028 7.84404C88.5344 7.94342 88.4413 8.01796 88.3295 8.06144C88.168 8.11113 88.0065 8.14219 87.8387 8.13598H87.8325L87.8201 8.12356Z" fill="#1B1A1A"></path><path fill-rule="evenodd" clip-rule="evenodd" d="M3.12891 31.814H4.55133V35.5036H5.52032V31.814H6.95517V31.0376H3.12891V31.814Z" fill="#1B1A1A"></path><path d="M8.38536 31.0312H7.41016V35.4973H8.38536V31.0312Z" fill="#1B1A1A"></path><path fill-rule="evenodd" clip-rule="evenodd" d="M11.9962 34.2491L10.1825 31.0254H8.99609V35.4914H9.95266L9.91539 32.1186L11.8223 35.4914H12.8969V31.0254H11.959L11.9962 34.2491Z" fill="#1B1A1A"></path><path fill-rule="evenodd" clip-rule="evenodd" d="M15.4417 31.6772C15.1125 32.1679 14.9572 32.758 14.9945 33.348C14.951 33.9195 15.1374 34.491 15.5038 34.932C15.9262 35.3357 16.4977 35.5407 17.0753 35.4972H18.6468V34.7208H17.1126C16.9201 34.727 16.7337 34.7084 16.5474 34.6525C16.3734 34.5903 16.2368 34.4599 16.1622 34.2922C15.9262 33.5779 15.9821 32.7952 16.3237 32.1244C16.5225 31.8946 16.8145 31.7765 17.1188 31.7952H18.6531V31.0374H17.1064C16.4852 30.9815 15.8703 31.2175 15.4479 31.6834L15.4417 31.6772Z" fill="#1B1A1A"></path><path fill-rule="evenodd" clip-rule="evenodd" d="M20.604 31.0312L18.7344 35.4973H19.7282L20.1133 34.4289H22.0513L22.4613 35.4973H23.4986L21.6041 31.0312H20.6102H20.604ZM20.4115 33.6401L21.0699 31.9319L21.7407 33.6401H20.4115Z" fill="#1B1A1A"></path><path fill-rule="evenodd" clip-rule="evenodd" d="M24.7891 32.7456L23.6897 31.0312H22.6523L24.3294 33.5345V35.4973H25.2736V33.5345L26.9755 31.0312H25.8947L24.7891 32.7456Z" fill="#1B1A1A"></path><path d="M29.448 33.4287H27.3672V34.2051H29.448V33.4287Z" fill="#1B1A1A"></path><path d="M35.8346 31.0312H34.8594V35.4973H35.8346V31.0312Z" fill="#1B1A1A"></path><path fill-rule="evenodd" clip-rule="evenodd" d="M36.9247 31.6772C36.5955 32.1679 36.4402 32.758 36.4837 33.348C36.4465 33.9195 36.6266 34.491 36.9931 34.932C37.4154 35.3357 37.9869 35.5407 38.5646 35.4972H40.1361V34.7208H38.6018C38.3161 34.7456 38.0304 34.6587 37.8068 34.4785C37.6142 34.2425 37.521 33.9319 37.5521 33.6276H40.1361V32.8511H37.5521C37.5335 32.5654 37.6266 32.2859 37.8254 32.0747C38.0366 31.8884 38.3161 31.789 38.6018 31.8076H40.1361V31.0374H38.5894C37.9621 30.9815 37.3471 31.2175 36.931 31.6834L36.9247 31.6772Z" fill="#1B1A1A"></path><path fill-rule="evenodd" clip-rule="evenodd" d="M30.5781 31.814H32.0006V35.5036H32.9695V31.814H34.4044V31.0376H30.5781V31.814Z" fill="#1B1A1A"></path><path fill-rule="evenodd" clip-rule="evenodd" d="M43.9455 34.2491L42.1317 31.0254H40.9453V35.4914H41.9019L41.8708 32.1186L43.7777 35.4914H44.8523V31.0254H43.9144L43.9455 34.2491Z" fill="#1B1A1A"></path><path d="M48.4244 31.0312H47.4492V35.4973H48.4244V31.0312Z" fill="#1B1A1A"></path><path fill-rule="evenodd" clip-rule="evenodd" d="M49.5107 31.6772C49.1815 32.1679 49.0262 32.758 49.0697 33.3481C49.0324 33.9196 49.2125 34.491 49.579 34.932C50.0014 35.3358 50.5728 35.5408 51.1505 35.4973H52.722V34.7208H51.1878C50.9952 34.727 50.8089 34.7084 50.6225 34.6525C50.4486 34.5904 50.312 34.46 50.2374 34.2922C50.0014 33.5779 50.0573 32.7953 50.3927 32.1244C50.5915 31.8946 50.8834 31.7766 51.1878 31.7952H52.722V31.0374H51.1754C50.5542 30.9753 49.9393 31.2176 49.5169 31.6772H49.5107Z" fill="#1B1A1A"></path><path fill-rule="evenodd" clip-rule="evenodd" d="M56.0399 32.8388H54.3256V31.0312H53.4062V35.4973H54.3256V33.6276H56.0399V35.4973H56.9592V31.0312H56.0399V32.8388Z" fill="#1B1A1A"></path><path d="M60.366 33.4287H58.2852V34.2051H60.366V33.4287Z" fill="#1B1A1A"></path><path fill-rule="evenodd" clip-rule="evenodd" d="M65.1153 31.0376H61.2891V31.814H62.7115V35.5036H63.6805V31.814H65.1153V31.0376Z" fill="#1B1A1A"></path><path fill-rule="evenodd" clip-rule="evenodd" d="M66.2681 31.0312L64.3984 35.4973H65.3861L65.7712 34.4289H67.7091L68.1191 35.4973H69.1564L67.2619 31.0312H66.2743H66.2681ZM66.0755 33.6401L66.7339 31.9319L67.4048 33.6401H66.0755Z" fill="#1B1A1A"></path><path fill-rule="evenodd" clip-rule="evenodd" d="M72.4572 34.2491L70.6434 31.0254H69.457V35.4914H70.4136L70.3763 32.1186L72.2833 35.4914H73.3516V31.0254H72.4199L72.451 34.2491H72.4572Z" fill="#1B1A1A"></path><path fill-rule="evenodd" clip-rule="evenodd" d="M89.7938 31.0312V32.8388H88.0795V31.0312H87.1602V35.4973H88.0795V33.6276H89.7938V35.4973H90.7131V31.0312H89.7938Z" fill="#1B1A1A"></path><path fill-rule="evenodd" clip-rule="evenodd" d="M76.1641 31.814H77.5865V35.5036H78.5555V31.814H79.9903V31.0376H76.1641V31.814Z" fill="#1B1A1A"></path><path fill-rule="evenodd" clip-rule="evenodd" d="M85.3517 34.2491L83.538 31.0254H82.3516V35.4914H83.3081L83.2709 32.1186L85.1778 35.4914H86.2524V31.0254H85.302L85.3455 34.2491H85.3517Z" fill="#1B1A1A"></path><path d="M81.4088 31.0312H80.4336V35.4973H81.4088V31.0312Z" fill="#1B1A1A"></path><path d="M44.8124 5.61963H38.3711V25.2355H44.8124V5.61963Z" fill="#1B1A1A"></path><path fill-rule="evenodd" clip-rule="evenodd" d="M79.1454 17.3349L83.6239 25.2421H90.4752L79.1516 5.52686L67.8281 25.2421H74.6794L79.1579 17.3349H79.1454Z" fill="#1B1A1A"></path><path fill-rule="evenodd" clip-rule="evenodd" d="M14.2764 17.3659L19.6183 26.8819L24.9478 17.3659L29.4387 25.2793H36.3085L24.954 5.52686L19.6183 14.813L14.2827 5.52686L2.92188 25.3042H9.78555L14.2764 17.3659Z" fill="#1B1A1A"></path><path d="M44.8176 27.522H2.93359V28.3978H44.8176V27.522Z" fill="#1B1A1A"></path><path d="M90.4444 27.522H57.0391V28.3978H90.4444V27.522Z" fill="#1B1A1A"></path><path fill-rule="evenodd" clip-rule="evenodd" d="M49.4284 29.7393H48.3849L47.5898 30.7455L48.1799 30.7331L49.4284 29.7393Z" fill="#1B1A1A"></path><path d="M39.1482 35.9263H38.2227V36.771H39.1482V35.9263Z" fill="#1B1A1A"></path><path fill-rule="evenodd" clip-rule="evenodd" d="M37.4258 30.7451H38.2395L38.6681 30.2979L39.0408 30.7451H39.9414L39.0408 29.7886H38.314L37.4258 30.7451Z" fill="#1B1A1A"></path><path fill-rule="evenodd" clip-rule="evenodd" d="M19.8555 30.7451H20.6692L21.0978 30.2979L21.4705 30.7451H22.3711L21.4705 29.7886H20.7375L19.8555 30.7451Z" fill="#1B1A1A"></path><path d="M21.5739 35.9263H20.6484V36.771H21.5739V35.9263Z" fill="#1B1A1A"></path><path d="M67.2302 35.9263H66.3047V36.771H67.2302V35.9263Z" fill="#1B1A1A"></path><path fill-rule="evenodd" clip-rule="evenodd" d="M65.5 30.7451H66.3137L66.7423 30.2979L67.115 30.7451H68.0156L67.115 29.7886H66.382L65.5 30.7451Z" fill="#1B1A1A"></path><path fill-rule="evenodd" clip-rule="evenodd" d="M79.5938 29.7393L80.8423 30.7331L81.4324 30.7455L80.6373 29.7393H79.5938Z" fill="#1B1A1A"></path></g></g><defs><clipPath id="clip0_1719_19097"><rect width="91.3087" height="37.2688" fill="white" transform="translate(0.957031 0.309082)"></rect></clipPath></defs></svg>