<svg xmlns:xlink="http://www.w3.org/1999/xlink" width="92" height="40" viewBox="0 0 92 40" fill="none" xmlns="http://www.w3.org/2000/svg" class="text-[#1B1A1A]"><g clip-path="url(#clip0_1719_19193)" fill="none"><path fill-rule="evenodd" clip-rule="evenodd" d="M45.071 34.7881V37.0321H43.7611V34.5375C43.7718 34.2942 43.7575 34.0758 43.7181 33.8933C43.6466 33.539 43.4425 33.3207 42.963 33.3207C42.7661 33.3207 42.5549 33.3564 42.3366 33.4388V37.0286H41.0195V32.723C41.6459 32.5118 42.3151 32.3257 43.0918 32.3257C44.1834 32.3257 44.8241 32.9699 45.0066 33.8539C45.0495 34.0651 45.0674 34.3801 45.0674 34.7809L45.071 34.7881Z" fill="#1B1A1A"></path><path fill-rule="evenodd" clip-rule="evenodd" d="M77.321 34.7881V37.0321H76.0111V34.5375C76.0182 34.2942 76.0111 34.0758 75.9717 33.8933C75.9001 33.539 75.689 33.3207 75.2165 33.3207C75.0161 33.3207 74.8049 33.3564 74.5902 33.4388L74.583 37.0286H73.2695V32.723C73.8959 32.5118 74.5687 32.3257 75.3454 32.3257C76.4334 32.3257 77.0812 32.9699 77.2566 33.8539C77.2995 34.0651 77.321 34.3801 77.321 34.7809V34.7881Z" fill="#1B1A1A"></path><path fill-rule="evenodd" clip-rule="evenodd" d="M40.2775 37.0359H39.2826C39.2826 37.0359 39.2002 36.8963 39.1537 36.7209C39.0571 36.7961 38.7564 37.0931 38.1552 37.0931C37.3284 37.0931 36.5553 36.3272 36.3442 35.2893C35.9505 33.3316 37.3678 32.3438 38.7314 32.3438C39.2754 32.3438 39.9268 32.4833 40.274 32.5835V37.0359H40.2775ZM38.6204 33.3137C38.0585 33.3137 37.4608 34.0259 37.6541 35.1712C37.7722 35.8691 38.1659 36.0946 38.42 36.0946C38.6312 36.0946 38.8065 36.023 38.9569 35.887V33.3316C38.8638 33.3244 38.7314 33.3101 38.6204 33.3101V33.3137Z" fill="#1B1A1A"></path><path fill-rule="evenodd" clip-rule="evenodd" d="M58.5482 37.0359H57.5532C57.5532 37.0359 57.4709 36.8963 57.4279 36.7209C57.3277 36.7961 57.0235 37.0931 56.4294 37.0931C55.599 37.0931 54.826 36.3272 54.6148 35.2893C54.2175 33.3316 55.6348 32.3438 57.002 32.3438C57.546 32.3438 58.1974 32.4941 58.5446 32.5943V37.0359H58.5482ZM56.8911 33.3137C56.3292 33.3137 55.7279 34.0259 55.9247 35.1712C56.0392 35.8691 56.4365 36.0946 56.6906 36.0946C56.8982 36.0946 57.0772 36.023 57.2275 35.887L57.2203 33.3316C57.1309 33.3244 57.002 33.3101 56.8875 33.3101L56.8911 33.3137Z" fill="#1B1A1A"></path><path fill-rule="evenodd" clip-rule="evenodd" d="M81.8571 37.0359H80.8621C80.8621 37.0359 80.7834 36.8963 80.7368 36.7209C80.6366 36.7961 80.336 37.0931 79.7383 37.0931C78.9079 37.0931 78.1349 36.3272 77.9273 35.2893C77.53 33.3316 78.9473 32.3438 80.3145 32.3438C80.8549 32.3438 81.5099 32.4833 81.8571 32.5835V37.0359ZM80.2 33.3137C79.6381 33.3137 79.044 34.0259 79.2336 35.1712C79.3518 35.8691 79.7454 36.0946 80.0067 36.0946C80.2107 36.0946 80.3897 36.023 80.54 35.887V33.3316C80.4469 33.3244 80.3145 33.3101 80.2 33.3101V33.3137Z" fill="#1B1A1A"></path><path fill-rule="evenodd" clip-rule="evenodd" d="M66.0841 34.7954V37.0359H64.7741V34.5484C64.7777 34.3015 64.7741 34.0796 64.7419 33.8935C64.6703 33.557 64.4699 33.3208 63.976 33.3208C63.7756 33.3208 63.4248 33.3852 63.2101 33.5105C63.2244 33.5391 63.3604 33.9686 63.3604 34.4983V37.0323H62.0397V34.5377C62.0433 34.28 62.0326 34.0581 61.9932 33.8756C61.9252 33.532 61.7176 33.3208 61.2523 33.3208C61.0483 33.3208 60.8443 33.3602 60.6296 33.4425V37.0323H59.3125V32.7231C59.8422 32.5299 60.626 32.333 61.3848 32.333C61.8751 32.333 62.2724 32.4583 62.5802 32.6838C62.9667 32.4941 63.4928 32.333 64.112 32.333C65.2 32.333 65.8407 32.9772 66.0196 33.8613C66.0626 34.0796 66.0912 34.3981 66.0876 34.7918L66.0841 34.7954Z" fill="#1B1A1A"></path><path fill-rule="evenodd" clip-rule="evenodd" d="M68.2652 32.3438C67.7212 32.3438 67.0698 32.444 66.7227 32.5406V39.1797H68.0362L68.0254 36.9464C68.1614 36.9965 68.5301 37.0931 68.7627 37.0931C69.7756 37.0931 70.427 36.363 70.6167 35.4182C71.0533 33.2528 69.5859 32.3438 68.2652 32.3438ZM69.3425 35.1712C69.1528 36.4346 68.1435 36.159 68.0254 36.0695V33.3351C68.1149 33.3244 68.2652 33.3137 68.3762 33.3137C68.9381 33.3137 69.5215 34.0223 69.3425 35.1748V35.1712Z" fill="#1B1A1A"></path><path fill-rule="evenodd" clip-rule="evenodd" d="M33.7421 35.5579C33.6204 34.9709 33.1838 34.5987 32.7078 34.3339C32.2031 34.0547 31.881 33.9044 31.8381 33.7075C31.8058 33.5321 31.8917 33.2208 32.2747 33.2136C32.629 33.2065 32.8724 33.3031 33.3341 33.5572V32.5873C32.8223 32.394 32.5181 32.3296 32.1208 32.3296C31.2439 32.3296 30.5138 32.8163 30.7071 33.7719C30.8144 34.3124 31.1258 34.6094 31.5267 34.8743C31.9669 35.1535 32.4608 35.404 32.5252 35.7297C32.5753 35.9802 32.425 36.3202 31.8488 36.3202C31.498 36.3202 31.1151 36.1126 30.7966 35.9408V36.9501C31.1294 37.0754 31.5088 37.1649 31.9741 37.1649C33.1301 37.1649 33.9676 36.6781 33.7385 35.5543L33.7421 35.5579Z" fill="#1B1A1A"></path><path fill-rule="evenodd" clip-rule="evenodd" d="M24.2063 32.3975C23.1254 32.3975 22.5027 32.6158 21.9766 32.7947L21.9873 37.0359H23.3008L23.2937 33.4855C23.512 33.3996 23.877 33.3674 24.0775 33.3674C24.149 33.3674 24.2135 33.3745 24.2743 33.3853V32.4046C24.2493 32.4046 24.2278 32.4046 24.2063 32.4046V32.3975Z" fill="#1B1A1A"></path><path fill-rule="evenodd" clip-rule="evenodd" d="M26.0818 37.0357H24.7969L24.804 32.4151C24.804 32.4151 24.9722 32.365 25.4411 32.3614C25.9744 32.3543 26.0853 32.4151 26.0853 32.4151L26.0782 37.0357H26.0818Z" fill="#1B1A1A"></path><path fill-rule="evenodd" clip-rule="evenodd" d="M36.0642 36.0161C36.0249 36.0233 35.9712 36.0233 35.9103 36.0233C35.6455 36.0233 35.5166 35.898 35.5166 35.4614V30.9375C35.5166 30.9375 35.3985 30.873 34.8581 30.8766C34.3749 30.8802 34.2067 30.9375 34.2067 30.9375H34.2031V35.5186C34.2031 36.9431 35.0227 37.1757 35.5739 37.1757C35.9068 37.1757 36.1358 37.1292 36.3398 37.0684L36.0642 36.0161Z" fill="#1B1A1A"></path><path fill-rule="evenodd" clip-rule="evenodd" d="M72.5036 37.0356H71.2188L71.2259 32.4938C71.2259 32.4938 71.3977 32.4008 71.8666 32.4008C72.3963 32.3936 72.5108 32.4938 72.5108 32.4938L72.5036 37.0356Z" fill="#1B1A1A"></path><path fill-rule="evenodd" clip-rule="evenodd" d="M54.151 35.919C53.8969 35.9978 53.5461 36.1016 53.224 36.1016C52.3149 36.1016 51.9749 35.1961 51.9749 34.0508C51.9749 32.9735 52.2398 31.9857 53.1739 31.9857C53.4495 31.9857 53.811 32.0393 54.108 32.3257L54.7737 31.4452C54.423 31.0945 53.9434 30.894 53.1703 30.894C51.7244 30.894 50.5469 31.8353 50.5469 34.0508C50.5469 36.2662 51.6242 37.2111 53.1954 37.2111C53.6284 37.2111 54.3299 37.0679 54.6664 36.9355L54.151 35.919Z" fill="#1B1A1A"></path><path fill-rule="evenodd" clip-rule="evenodd" d="M49.0186 30.8763C48.5391 30.8799 48.3708 30.9371 48.3708 30.9371V32.3759C48.2706 32.3652 48.1275 32.333 48.0201 32.333C46.678 32.333 45.2857 33.1919 45.7223 35.3394C45.9371 36.3916 46.703 37.1539 47.6228 37.1539C47.9521 37.1539 48.2849 36.9965 48.5713 36.7781L48.6965 37.0322H49.6987V30.9335C49.6987 30.9335 49.5627 30.8691 49.0186 30.8727V30.8763ZM47.7803 36.1411C47.5119 36.1411 47.1361 35.9156 47.0144 35.2105C46.8927 34.484 47.0645 33.7503 47.5226 33.4102C47.8089 33.217 48.131 33.2707 48.3744 33.3422V35.9013C48.2098 36.0552 47.9915 36.1411 47.7839 36.1411H47.7803Z" fill="#1B1A1A"></path><path fill-rule="evenodd" clip-rule="evenodd" d="M29.0916 35.2428C29.3457 35.2428 29.7072 35.2356 29.9363 35.2213L30.2262 35.207C30.2262 35.207 30.3192 34.7954 30.3121 34.348C30.287 32.7804 29.5354 32.3581 28.5977 32.333H28.5905H28.5834C27.4309 32.3509 26.5863 33.0452 26.5899 34.731V34.7524C26.6364 36.499 27.413 37.1576 28.6478 37.179C28.6585 37.179 28.6585 37.1826 28.6585 37.1826C28.952 37.1826 29.5283 37.1325 30.0973 36.8462V35.8798C29.564 36.1196 29.3242 36.2449 28.7767 36.2163C27.7459 36.1626 27.8461 35.2392 27.8461 35.2392H29.088L29.0916 35.2428ZM28.6585 33.2313H28.6693H28.6729C29.0129 33.2027 29.292 33.6 29.3135 34.1834L29.3064 34.4554H27.8747C27.8747 34.4554 27.7674 33.2815 28.655 33.2313H28.6585Z" fill="#1B1A1A"></path><path fill-rule="evenodd" clip-rule="evenodd" d="M19.5094 32.0069C19.7027 31.8458 20.1537 31.785 20.5867 31.785C21.5817 31.785 21.9575 31.9997 21.9575 31.9997L22.2474 31.0119C22.2474 31.0119 21.4958 30.6218 19.9783 30.7578C18.5574 30.8866 18.1172 31.2624 18.1172 31.2624V37.0677H19.5059V34.4764H21.5137V33.4027H19.5094V32.0033V32.0069Z" fill="#1B1A1A"></path><path fill-rule="evenodd" clip-rule="evenodd" d="M88.0944 31.5096C88.0944 31.8854 87.7866 32.1896 87.4144 32.1896C87.0422 32.1896 86.7344 31.889 86.7344 31.5096C86.7344 31.1302 87.035 30.8296 87.4144 30.8296C87.7938 30.8296 88.0944 31.1374 88.0944 31.5096Z" fill="#1B1A1A"></path><path fill-rule="evenodd" clip-rule="evenodd" d="M91.3112 33.4354C91.3112 33.0023 91.143 32.7088 90.8996 32.5478C90.6526 32.3867 90.352 32.3545 90.0692 32.3545C89.9583 32.3545 89.8509 32.3616 89.7507 32.3688C89.196 32.4118 88.702 32.5406 88.4766 32.6337V35.7295H89.4823V33.4067C89.6791 33.3674 89.8402 33.3495 89.9583 33.3495C90.0979 33.3495 90.1802 33.3781 90.216 33.4067C90.2518 33.4354 90.2732 33.4783 90.2768 33.5857C90.2768 33.6823 90.2518 33.8147 90.1981 33.9901C90.1265 34.2299 90.0334 34.4948 89.9404 34.7417V35.7331H90.6347C90.6419 35.7081 91.1501 34.3981 91.236 34.0187C91.2861 33.804 91.3112 33.6143 91.3112 33.4461V33.4354Z" fill="#1B1A1A"></path><path fill-rule="evenodd" clip-rule="evenodd" d="M84.3789 37.032H90.449V36.9031V36.1479H84.3789V37.032Z" fill="#1B1A1A"></path><path fill-rule="evenodd" clip-rule="evenodd" d="M87.9624 32.651C87.9624 32.651 87.8371 32.6152 87.4184 32.6152C87.0998 32.6152 86.8672 32.651 86.8672 32.651V35.729H87.9624V32.651Z" fill="#1B1A1A"></path><path fill-rule="evenodd" clip-rule="evenodd" d="M84.8903 34.7383C84.7972 34.4913 84.7042 34.2265 84.629 33.9867C84.5789 33.8149 84.5539 33.6789 84.5539 33.5823C84.5539 33.4749 84.5789 33.4319 84.6111 33.4033C84.6505 33.3711 84.7328 33.346 84.8724 33.346C84.9905 33.346 85.148 33.3675 85.3413 33.4033V35.7261H86.3541V32.6302C86.1287 32.5372 85.6312 32.4119 85.08 32.3654C84.9798 32.3582 84.8724 32.3511 84.7615 32.3511C84.4787 32.3511 84.1781 32.3869 83.9311 32.5443C83.6842 32.709 83.5195 33.0025 83.5195 33.4319C83.5195 33.6037 83.5446 33.7934 83.5947 34.0046C83.6806 34.3876 84.1852 35.6939 84.196 35.719H84.8939V34.7276L84.8903 34.7383Z" fill="#1B1A1A"></path><path opacity="0.5" fill-rule="evenodd" clip-rule="evenodd" d="M22.0267 1.43578C20.8635 4.64619 20.2586 6.6254 19.9294 8.11787C19.7218 9.08779 19.6395 9.80002 19.6645 10.412C19.7146 12.1693 20.7704 12.6704 21.6724 12.8673C22.5779 13.0605 23.6015 13.0569 24.8255 13.0033C26.0424 12.946 27.4132 12.8064 28.8054 12.6382C30.781 12.3948 34.675 11.7757 36.5684 11.4822C33.7445 11.8615 30.509 12.2517 27.7854 12.2875C26.6079 12.3054 25.5234 12.2552 24.5642 12.0906C23.6086 11.9188 22.7532 11.679 22.0195 11.0241C21.5149 10.5588 21.1963 9.97539 21.0102 9.39201C20.8241 8.80146 20.7525 8.1966 20.7418 7.57743C20.7239 6.01696 21.1033 4.37418 21.522 2.94256C21.6652 2.46655 21.837 1.95475 22.0231 1.43936C22.0267 1.42863 22.0875 1.25683 22.0947 1.24609L22.0195 1.43936L22.0267 1.43578Z" fill="#1B1A1A"></path><path fill-rule="evenodd" clip-rule="evenodd" d="M20.75 7.57323C20.7572 8.18882 20.8287 8.79726 21.0184 9.3878C21.2045 9.97119 21.5231 10.5582 22.0277 11.0198C22.7614 11.6748 23.6168 11.9146 24.5724 12.0864C25.5316 12.251 26.6161 12.3011 27.7936 12.2833C30.5172 12.2475 33.7527 11.8538 36.5765 11.478C36.7698 11.4529 36.9631 11.4243 37.1492 11.3992C37.1027 11.1988 37.0526 10.9912 36.9917 10.7836C36.7734 10.0571 36.4477 9.34127 36.0934 8.78652C34.5472 8.99411 32.9402 9.19453 31.3404 9.40212C27.8294 9.87813 24.6583 9.94613 23.581 8.8581C22.5682 7.83092 23.2804 4.42008 23.9962 1.92191C23.5202 1.54969 22.9153 1.17389 22.2138 0.955566C22.1959 1.00925 22.1709 1.06652 22.1494 1.12378C21.9526 1.6499 21.7342 2.26908 21.5338 2.93836C21.1151 4.36998 20.7357 6.01276 20.7536 7.57323H20.75Z" fill="#1B1A1A"></path><path opacity="0.5" fill-rule="evenodd" clip-rule="evenodd" d="M9.01172 32.5731C10.0139 30.0606 11.6996 26.0772 13.4998 23.4501C14.1441 22.516 14.7883 21.7143 15.5005 21.113C15.8978 20.7873 16.3237 20.501 16.8749 20.3471C17.1934 20.254 17.5155 20.2111 17.8269 20.2111C18.7288 20.2147 19.391 20.4867 20.1282 20.8911C20.8655 21.2991 21.5527 21.8217 22.1934 22.3836C23.4675 23.5074 25.8869 26.6749 25.8869 26.6749C25.8869 26.6749 23.4782 23.3642 22.0251 21.7966C21.295 21.0128 20.5327 20.1789 19.7596 19.5848C19.3695 19.2913 18.9794 19.03 18.5606 18.826C18.1419 18.6327 17.6838 18.4717 17.1397 18.4717C16.9608 18.4717 16.7675 18.4896 16.5671 18.5433C15.8549 18.7473 15.522 19.1302 15.1605 19.5203C14.5592 20.2218 14.0045 21.2454 13.4104 22.3693C11.7712 25.4974 9.9888 30.0356 9.01172 32.5767V32.5731Z" fill="#1B1A1A"></path><path fill-rule="evenodd" clip-rule="evenodd" d="M23.6321 27.1831C24.2692 27.1509 25.1783 26.9719 25.8869 26.6713C25.8869 26.6713 23.4675 23.5038 22.1934 22.38C21.5563 21.8217 20.8691 21.2955 20.1282 20.8875C19.391 20.4831 18.7288 20.2111 17.8269 20.2075C17.5155 20.2075 17.1934 20.2505 16.8749 20.3435C16.3201 20.4974 15.8978 20.7837 15.5005 21.1094C14.7883 21.7107 14.1441 22.5088 13.4998 23.4466C11.6996 26.0736 10.0139 30.0571 9.01172 32.5695C9.54858 32.7557 10.5829 32.9632 11.764 32.9096C11.8535 32.6841 15.5936 23.0564 18.1061 22.6592C20.0459 22.3549 23.0631 26.3885 23.6321 27.1795V27.1831Z" fill="#1B1A1A"></path><path opacity="0.5" fill-rule="evenodd" clip-rule="evenodd" d="M28.9566 13.5725C33.0904 12.5274 36.24 12.1301 37.2314 11.9619C35.9179 12.1194 30.9895 12.8674 26.5444 13.7479C22.0992 14.6319 19.9088 15.541 20.9253 18.3899C21.8773 21.0455 25.8393 25.7198 26.369 26.3354C26.0039 25.8558 24.0462 23.2252 23.3733 21.6289C21.0219 16.6433 24.762 14.6283 28.9566 13.5689V13.5725Z" fill="#1B1A1A"></path><path fill-rule="evenodd" clip-rule="evenodd" d="M37.2344 14.1448C37.2344 14.1448 37.4742 13.0389 37.2523 11.958C37.2451 11.958 37.2416 11.958 37.238 11.958C36.243 12.1262 33.0935 12.5235 28.9632 13.5686C24.7722 14.6244 21.0285 16.643 23.3799 21.6286C24.0528 23.2248 26.0105 25.8555 26.3756 26.335C26.4114 26.378 26.4364 26.4066 26.4364 26.4066C26.4364 26.4066 27.6318 25.6765 28.3441 24.5062L28.387 24.4381C28.4765 24.5491 25.2017 20.2077 25.5273 18.3037C25.8853 16.2063 34.4428 14.5993 37.2344 14.1448Z" fill="#1B1A1A"></path><path opacity="0.5" fill-rule="evenodd" clip-rule="evenodd" d="M6.10547 2.50555C6.10547 2.50555 6.14842 2.55924 6.16273 2.57713C6.88928 3.48979 8.11331 4.98225 9.68452 6.73598C10.6401 7.79538 11.5778 8.7653 12.4833 9.50975C12.9414 9.87839 13.3853 10.1969 13.8613 10.4403C15.0567 11.0559 16.1232 11.0559 17.2399 10.1504C17.9414 9.56701 18.4317 8.81541 18.8934 7.9636C19.5734 6.68946 20.1425 5.16478 20.6722 3.6759C20.98 2.79903 21.2699 1.93648 21.5491 1.15625C21.1804 2.05817 20.7939 3.01735 20.3501 3.95507C19.6844 5.35089 18.9041 6.70735 17.7374 7.72022C16.9607 8.39666 15.9729 8.89773 14.8204 9.01584C14.7202 9.023 14.62 9.03015 14.5198 9.03015C13.464 9.01584 12.5549 8.58277 11.6745 8.0137C10.7976 7.4339 9.93863 6.67514 9.08324 5.81975C8.12763 4.86056 7.1076 3.69022 6.16989 2.57355C6.16273 2.56282 6.152 2.55566 6.14484 2.54492L6.11263 2.50555H6.10547Z" fill="#1B1A1A"></path><path fill-rule="evenodd" clip-rule="evenodd" d="M11.6687 8.01351C12.5491 8.579 13.4546 9.01564 14.514 9.02996C14.6143 9.02996 14.7145 9.02638 14.8147 9.01565C15.9671 8.89754 16.955 8.39647 17.7316 7.72003C18.8984 6.70716 19.6822 5.3507 20.3443 3.95487C20.7881 3.02074 21.1961 2.06871 21.5433 1.15606C21.6041 0.998578 21.6185 0.948472 21.6721 0.801731C21.6113 0.783835 21.5469 0.769519 21.4789 0.755203C20.5054 0.544039 19.5784 0.554776 18.8125 0.733729C18.3222 1.93271 16.708 6.28483 14.5069 6.61052C12.6136 6.89327 10.1082 3.95487 7.61364 0.994999C6.98373 1.12384 6.13192 1.53186 5.60938 1.90408C5.64517 1.94345 5.62727 1.92555 5.66306 1.9685C6.74751 3.29275 7.9107 4.64921 9.07747 5.82313C9.93286 6.67853 10.7918 7.43728 11.6687 8.01709V8.01351Z" fill="#1B1A1A"></path><path opacity="0.5" fill-rule="evenodd" clip-rule="evenodd" d="M12.0367 11.4355C11.6931 10.6445 11.2242 9.90364 10.7411 9.18783C10.2865 8.51139 9.80694 7.85285 9.30945 7.20862C8.25005 5.82353 7.12623 4.48497 5.95946 3.18935C5.68745 2.89229 5.41187 2.59165 5.1327 2.29817C5.12554 2.29101 5.12196 2.28385 5.11481 2.28027C6.31379 3.59736 8.30016 5.89153 9.73178 8.96236C10.1362 9.82849 11.1885 12.3374 9.33808 13.973C7.42687 15.6623 3.62592 16.2028 0.046875 16.7253C1.72903 16.5392 3.41118 16.3388 5.08259 16.0918C6.28515 15.9164 7.49129 15.7232 8.67238 15.4512C9.65662 15.2221 10.7518 14.9501 11.5499 14.3023C11.9687 13.9623 12.2801 13.4827 12.3373 12.9387C12.3874 12.409 12.2264 11.9115 12.0331 11.4319L12.0367 11.4355Z" fill="#1B1A1A"></path><path fill-rule="evenodd" clip-rule="evenodd" d="M3.43739 4.41273C5.2806 6.5351 6.04294 7.22944 7.40297 9.96025C8.45879 12.0826 7.30276 12.6946 5.86398 13.2744C4.64711 13.7684 0.241301 14.477 0.241301 14.477C0.0122416 15.1534 -0.0450232 15.8585 0.0551901 16.7246H0.0587692C3.63782 16.2021 7.43876 15.6617 9.34998 13.9724C11.2003 12.3367 10.1481 9.82425 9.74367 8.9617C8.30847 5.89087 6.3221 3.59312 5.1267 2.27961C5.11954 2.27246 5.10881 2.26172 5.10881 2.26172C4.77595 2.50509 4.48963 2.8451 4.08878 3.34617C3.72729 3.79713 3.47318 4.27672 3.44455 4.41273H3.43739Z" fill="#1B1A1A"></path><path opacity="0.5" fill-rule="evenodd" clip-rule="evenodd" d="M11.9577 17.5659C11.4208 17.0254 10.6692 16.782 9.9355 16.6604C9.22327 16.5458 8.49314 16.5351 7.77017 16.5423C5.21831 16.5852 2.67361 16.9216 0.146801 17.2652H0.128906C2.30855 16.9968 3.96922 16.8823 5.25052 16.8823C6.6213 16.8823 7.58764 17.0075 8.36787 17.2724C8.42514 17.2903 8.47882 17.3082 8.53251 17.3296C8.56114 17.3404 8.58977 17.3511 8.61841 17.3619C8.63272 17.369 8.64704 17.3726 8.66136 17.3797C10.5332 18.0991 11.0414 19.6202 11.0701 21.467C11.0629 23.253 10.5869 25.4934 9.97845 27.7554C9.53464 29.3982 9.0121 31.0374 8.53609 32.4225C9.17674 30.7403 9.8496 29.0653 10.458 27.3724C11.1023 25.5686 11.7286 23.7612 12.1796 21.8965C12.3728 21.0876 12.541 20.2609 12.5554 19.427C12.5661 18.7684 12.4337 18.0633 11.9577 17.573V17.5659Z" fill="#1B1A1A"></path><path fill-rule="evenodd" clip-rule="evenodd" d="M11.074 21.4642C11.0453 19.6174 10.5371 18.0998 8.66526 17.3769C8.65094 17.3697 8.63663 17.3661 8.62231 17.359C8.59368 17.3482 8.56505 17.3375 8.53642 17.3268C8.48273 17.3089 8.42904 17.2874 8.37178 17.2695C7.59155 17.0047 6.6252 16.883 5.25443 16.8794C3.96955 16.8794 2.30887 16.9939 0.132812 17.2659C0.351134 18.6295 0.913045 19.5207 1.14926 19.8393C2.91731 19.6353 4.25945 19.5565 5.25443 19.5565C9.03032 19.5386 9.13054 20.6302 8.93369 23.6008C8.76905 26.0668 7.1048 30.376 6.66815 31.2851C6.66815 31.2851 6.98669 31.5929 7.39112 31.8434C7.91366 32.1691 8.47557 32.391 8.53642 32.4125H8.53999C9.01959 31.0274 9.53855 29.3882 9.98235 27.7454C10.5908 25.4834 11.0632 23.2465 11.0704 21.4606L11.074 21.4642Z" fill="#1B1A1A"></path></g><defs><clipPath id="clip0_1719_19193"><rect width="91.3087" height="38.5821" fill="white" transform="translate(0 0.597656)"></rect></clipPath></defs></svg>