<svg xmlns:xlink="http://www.w3.org/1999/xlink" width="122" height="26" viewBox="0 0 122 26" fill="none" xmlns="http://www.w3.org/2000/svg" class="text-[#1B1A1A]"><g clip-path="url(#clip0_1719_19290)" fill="none"><path d="M69.0063 6.16322H57.6695C57.3195 6.16322 57.1848 6.32494 57.1848 6.59449C57.1848 6.72926 57.2656 6.91795 57.4002 7.13358C57.9657 8.02309 58.2889 8.56218 58.8005 9.23605C58.8813 9.34387 59.0429 9.42473 59.1775 9.42473H61.224L58.989 20.7457C58.9621 20.8535 59.0698 20.9883 59.1775 20.9883H61.4933C62.4089 20.9883 63.1898 20.3414 63.3514 19.4788L65.3171 9.42473H68.1446C68.2792 9.42473 68.3869 9.34387 68.4408 9.23605C68.6293 8.85868 69.0601 7.91527 69.0601 7.91527C69.2217 7.56486 69.3025 7.34922 69.4371 6.97186C69.491 6.83708 69.491 6.72926 69.491 6.62145C69.5718 6.32494 69.3294 6.16322 69.0063 6.16322ZM44.3132 6.16322H32.5994C32.3032 6.16322 32.1686 6.37885 32.1686 6.6484C32.1686 6.81013 32.384 7.16054 32.6263 7.48399C32.7879 7.69963 33.6227 8.80477 33.9727 9.263C34.0535 9.37082 34.2151 9.45168 34.3497 9.45168H36.5848L34.3767 20.7726C34.3497 20.8805 34.4305 21.0152 34.5652 21.0152H36.8541C37.7427 21.0152 38.5236 20.3683 38.6852 19.5058L40.624 9.47864H42.6167C42.7782 9.47864 42.9129 9.39777 42.9937 9.28996C42.9937 9.28996 43.4784 8.67 43.9092 8.10395C44.2054 7.72659 44.3939 7.45704 44.5555 7.21445C44.7171 6.97186 44.7979 6.81013 44.7979 6.67535C44.7979 6.37885 44.6094 6.16322 44.3132 6.16322ZM54.7343 8.83173C54.3304 8.45436 53.7111 8.56218 53.2533 9.02041L48.4601 14.3844C48.4332 14.4383 48.4062 14.4383 48.4062 14.4383C48.4062 14.4383 48.3793 14.4383 48.3254 14.3844C48.0831 14.1687 47.5445 13.5757 47.5445 13.5757C47.006 12.9558 46.3866 13.0636 46.0096 13.3601C45.6326 13.6566 45.4441 14.3035 45.7942 14.8965L45.9019 15.0583C46.1981 15.5704 46.6828 16.3521 47.006 16.7833C47.3291 17.2146 47.8138 17.4842 48.3254 17.5111H48.4062C48.8909 17.5111 49.3218 17.2955 49.6719 16.9451C51.1529 15.3008 54.6805 10.5029 54.8421 10.2603C55.1652 9.72123 55.0844 9.15518 54.7343 8.83173ZM52.2839 5.89367C54.3304 5.97453 55.8653 6.6484 56.6732 7.67268C57.5079 8.69695 57.6964 10.476 57.1579 13.0097L56.8347 14.5192C56.2962 17.0798 55.4883 18.8319 54.4651 19.7753C53.4149 20.7187 51.9877 21.15 49.7257 21.2309C49.2141 21.2578 48.5409 21.2578 48.1369 21.2309C45.8211 21.15 44.5016 20.6918 43.6669 19.6675C42.859 18.6432 42.6975 16.8373 43.236 14.3035L43.5592 12.7941C44.1247 10.2334 44.9056 8.48132 45.9558 7.5379C47.006 6.59449 48.5947 5.92062 50.7221 5.89367H52.2839ZM55.6499 4.35725C55.3537 4.57289 54.8421 4.86939 54.5728 4.97721C54.4112 5.05808 54.2496 5.08503 54.0881 5.08503C53.9534 5.08503 53.7649 5.03112 53.5226 4.89635C53.1187 4.68071 52.4993 4.38421 52.4993 4.38421C52.23 4.22248 51.88 4.19553 51.5838 4.30334L49.6719 4.97721C49.4295 5.05808 49.1333 5.08503 48.8909 5.00417C48.5678 4.89635 47.6253 4.3303 47.5984 4.30334C47.5176 4.22248 47.4637 4.16857 47.4637 4.06075C47.4637 3.92598 47.5445 3.84512 47.7061 3.7373L51.0721 1.82352C51.3414 1.66179 51.6376 1.58092 51.9338 1.58092H52.8494C53.1187 1.58092 53.1994 1.60788 53.4687 1.82352C54.0073 2.28175 55.5422 3.7373 55.5422 3.7373C55.7038 3.87207 55.7845 4.00684 55.7845 4.08771C55.8384 4.16857 55.8115 4.22248 55.6499 4.35725ZM57.7234 4.57289C58.235 4.97721 58.5581 4.81548 59.1775 4.30334C60.12 3.52166 60.5239 3.1982 60.9817 2.73997C61.628 2.09306 61.601 1.39224 61.224 0.987923C61.0625 0.826195 60.497 0.529694 59.9853 0.260147C59.8238 0.179283 59.6622 0.179283 59.5545 0.341011C59.4468 0.475784 57.6426 3.14429 57.2387 3.76425C57.1579 3.87207 57.104 4.0338 57.3195 4.22248C57.3464 4.24944 57.5887 4.46507 57.7234 4.57289ZM9.44119 12.821C9.01034 11.7967 7.79857 11.0151 5.99439 11.0151C5.88667 11.0151 4.72876 11.0151 2.38601 11.3924C1.73974 11.5002 0.743397 11.635 0.25869 11.7698C0.150978 11.7967 0.0971216 11.9046 0.12405 11.9854C0.177906 12.1471 0.770325 12.5784 1.20118 12.6593C1.4166 12.6862 1.65895 12.7132 1.90131 12.7402C1.14732 13.5218 0.635685 14.5192 0.420259 15.6243C-0.199088 18.6971 1.65895 20.7187 4.43255 20.7187C6.53295 20.7187 8.06785 19.6675 8.17557 19.0745C8.22942 18.751 8.17557 18.2389 8.014 17.8885C7.98707 17.8076 7.90629 17.7807 7.8255 17.8346C7.28694 18.1041 6.50602 18.2928 5.80589 18.2928C4.10942 18.2928 3.27464 17.1877 3.59778 15.5704C3.86706 14.2227 4.54027 13.441 5.4289 13.441C6.07517 13.441 6.45217 13.7914 6.50602 14.6809C6.50602 14.7617 6.58681 14.8426 6.69452 14.8426C7.52929 14.7348 8.28328 14.4922 8.6872 14.3035C9.17191 14.0609 9.44119 13.7644 9.49505 13.4679C9.5489 13.2523 9.5489 13.0636 9.44119 12.821ZM25.3827 22.336C24.494 22.336 23.74 22.929 23.5515 23.8994C23.3361 24.9506 24.0363 25.5706 24.871 25.5706C25.7597 25.5706 26.5406 24.9776 26.7291 24.0072C26.9176 22.9829 26.2174 22.336 25.3827 22.336ZM27.0253 13.441C26.0559 13.441 25.2749 14.2227 24.9518 15.786C24.6556 17.3494 25.1403 18.2928 26.2174 18.2928C27.1868 18.2928 27.9947 17.5111 28.264 15.9478C28.5871 14.3844 28.1024 13.441 27.0253 13.441ZM31.0914 12.0932C31.0376 12.1202 31.0106 12.1741 30.9568 12.2011C31.7108 13.0367 32.0878 14.2496 31.7646 15.813C31.1722 18.9397 28.4255 20.7187 25.7866 20.7187C23.1476 20.7187 21.128 18.9397 21.7474 15.8399C22.0166 14.4922 22.6629 13.414 23.5515 12.6054C23.3361 12.5784 23.1207 12.5784 22.9053 12.5515C22.4475 12.4976 21.9089 12.0663 21.8551 11.9046C21.8281 11.7967 21.882 11.7159 21.9897 11.6889C22.5013 11.5811 23.4169 11.4194 24.0901 11.3116C26.4867 10.9342 27.6177 10.9342 27.7254 10.9342C28.6948 10.9342 29.5565 11.1768 30.2567 11.635C30.3644 11.5002 30.4452 11.3655 30.5259 11.2307C30.1489 11.0959 29.9066 10.7186 30.0143 10.1795C30.122 9.53255 30.6606 9.12823 31.253 9.12823C31.8185 9.12823 32.2763 9.5595 32.1416 10.2603C31.9801 10.9611 31.63 11.5811 31.0914 12.0932ZM19.9701 19.2901C19.8085 19.964 18.893 20.7187 17.7081 20.7187C16.4425 20.7187 15.3923 19.964 15.7693 18.1041L16.4156 14.7348C16.6041 13.8183 16.3079 13.3871 15.5539 13.3871C15.123 13.3871 14.6114 13.5757 14.1536 13.8722L12.888 20.4761C12.888 20.557 12.8072 20.6109 12.7534 20.6109H10.3298C9.87204 20.6109 9.71047 20.4222 9.76433 20.0449L11.8378 9.263C11.4608 9.263 11.003 9.23605 10.4106 9.15518C9.97975 9.10127 9.30655 8.58913 9.25269 8.42741C9.22577 8.31959 9.27962 8.21177 9.38733 8.18481C9.89897 8.077 13.2919 7.48399 14.5306 7.48399C15.0961 7.48399 15.3385 7.72659 15.2577 8.18481L14.5037 12.0932C15.3385 11.2846 16.4156 10.8803 17.3311 10.8803C19.27 10.8803 20.1586 12.1471 19.647 14.8157L19.1353 17.5111C19.0545 17.9963 19.1892 18.2119 19.5123 18.2119H19.997C20.024 18.5893 20.0509 18.9397 19.9701 19.2901Z" fill="#1B1A1A"></path><path d="M80.3234 15.3111C79.8027 15.788 79.1369 16.0265 78.3259 16.0265C77.3224 16.0265 76.5335 15.7043 75.9591 15.0599C75.3848 14.4124 75.0977 13.5248 75.0977 12.3971C75.0977 11.1778 75.4243 10.2381 76.0775 9.57794C76.6455 9.00305 77.3681 8.7156 78.2454 8.7156C79.4193 8.7156 80.2776 9.10097 80.8204 9.8717C81.1202 10.3045 81.2811 10.7388 81.3032 11.1747H79.8453C79.7507 10.8399 79.6292 10.5872 79.4808 10.4166C79.2158 10.1133 78.8229 9.96173 78.3022 9.96173C77.7721 9.96173 77.3539 10.1765 77.0478 10.6061C76.7417 11.0325 76.5887 11.6374 76.5887 12.4208C76.5887 13.2042 76.7496 13.7917 77.0715 14.1834C77.3965 14.5719 77.8084 14.7662 78.3069 14.7662C78.8182 14.7662 79.2079 14.5988 79.4761 14.2639C79.6244 14.0839 79.7475 13.8138 79.8453 13.4537H81.289C81.1628 14.215 80.8409 14.8341 80.3234 15.3111Z" fill="#1B1A1A"></path><path d="M86.4911 14.3966H83.9208L83.438 15.8323H81.9138L84.4036 8.84827H86.0509L88.5218 15.8323H86.9408L86.4911 14.3966ZM86.084 13.1931L85.2131 10.445L84.3137 13.1931H86.084Z" fill="#1B1A1A"></path><path d="M92.3748 13.0936H90.8696V15.8323H89.4448V8.84827H92.8671C93.3562 8.85775 93.7317 8.91776 93.9936 9.02832C94.2587 9.13888 94.4828 9.30155 94.6658 9.51635C94.8173 9.69324 94.9372 9.88908 95.0255 10.1039C95.1139 10.3187 95.1581 10.5635 95.1581 10.8383C95.1581 11.17 95.0745 11.4969 94.9072 11.8191C94.74 12.1381 94.4638 12.364 94.0789 12.4966C94.4007 12.6261 94.6279 12.8109 94.7605 13.051C94.8962 13.2879 94.964 13.6511 94.964 14.1408V14.6098C94.964 14.9289 94.9766 15.1452 95.0019 15.2589C95.0397 15.439 95.1281 15.5717 95.267 15.657V15.8323H93.6623C93.6181 15.6775 93.5866 15.5527 93.5676 15.458C93.5298 15.2621 93.5093 15.0615 93.5061 14.8562L93.4966 14.2071C93.4903 13.7617 93.4083 13.4648 93.2505 13.3163C93.0959 13.1679 92.804 13.0936 92.3748 13.0936ZM93.26 11.8238C93.5503 11.6911 93.6954 11.429 93.6954 11.0373C93.6954 10.614 93.555 10.3297 93.2742 10.1844C93.1164 10.1023 92.8797 10.0612 92.5641 10.0612H90.8696V11.9375H92.5215C92.8497 11.9375 93.0959 11.8996 93.26 11.8238Z" fill="#1B1A1A"></path><path d="M101.274 12.7809H97.8846V14.5767H101.747V15.8323H96.4598V8.84827H101.577V10.0849H97.8846V11.568H101.274V12.7809Z" fill="#1B1A1A"></path><path d="M107.74 12.7809H104.35V14.5767H108.213V15.8323H102.926V8.84827H108.043V10.0849H104.35V11.568H107.74V12.7809Z" fill="#1B1A1A"></path><path d="M112.312 13.0936H110.807V15.8323H109.382V8.84827H112.804C113.294 8.85775 113.669 8.91776 113.931 9.02832C114.196 9.13888 114.42 9.30155 114.603 9.51635C114.755 9.69324 114.875 9.88908 114.963 10.1039C115.051 10.3187 115.095 10.5635 115.095 10.8383C115.095 11.17 115.012 11.4969 114.845 11.8191C114.677 12.1381 114.401 12.364 114.016 12.4966C114.338 12.6261 114.565 12.8109 114.698 13.051C114.834 13.2879 114.901 13.6511 114.901 14.1408V14.6098C114.901 14.9289 114.914 15.1452 114.939 15.2589C114.977 15.439 115.065 15.5717 115.204 15.657V15.8323H113.6C113.555 15.6775 113.524 15.5527 113.505 15.458C113.467 15.2621 113.447 15.0615 113.443 14.8562L113.434 14.2071C113.428 13.7617 113.346 13.4648 113.188 13.3163C113.033 13.1679 112.741 13.0936 112.312 13.0936ZM113.197 11.8238C113.488 11.6911 113.633 11.429 113.633 11.0373C113.633 10.614 113.492 10.3297 113.212 10.1844C113.054 10.1023 112.817 10.0612 112.501 10.0612H110.807V11.9375H112.459C112.787 11.9375 113.033 11.8996 113.197 11.8238Z" fill="#1B1A1A"></path><path d="M118.887 14.823C119.231 14.823 119.51 14.7851 119.725 14.7093C120.132 14.564 120.335 14.294 120.335 13.8991C120.335 13.6685 120.234 13.4901 120.032 13.3637C119.83 13.2405 119.513 13.1315 119.081 13.0368L118.343 12.8709C117.617 12.7067 117.115 12.5282 116.837 12.3355C116.367 12.0133 116.132 11.5095 116.132 10.8241C116.132 10.1986 116.359 9.67902 116.814 9.26523C117.268 8.85143 117.936 8.64453 118.816 8.64453C119.551 8.64453 120.178 8.84037 120.695 9.23206C121.216 9.62058 121.489 10.186 121.514 10.9283H120.113C120.088 10.5082 119.905 10.2097 119.564 10.0328C119.337 9.91593 119.054 9.85749 118.717 9.85749C118.341 9.85749 118.041 9.9333 117.817 10.0849C117.593 10.2365 117.481 10.4482 117.481 10.7198C117.481 10.9694 117.592 11.1557 117.812 11.2789C117.954 11.3611 118.257 11.4574 118.721 11.568L119.924 11.857C120.451 11.9833 120.848 12.1523 121.116 12.364C121.533 12.6925 121.741 13.1679 121.741 13.7901C121.741 14.4282 121.497 14.9589 121.008 15.3821C120.522 15.8023 119.834 16.0123 118.944 16.0123C118.035 16.0123 117.32 15.8054 116.799 15.3916C116.279 14.9747 116.018 14.4029 116.018 13.6764H117.41C117.454 13.9955 117.541 14.2339 117.67 14.3919C117.907 14.6793 118.313 14.823 118.887 14.823Z" fill="#1B1A1A"></path></g><defs><clipPath id="clip0_1719_19290"><rect width="121.745" height="25.3635" fill="white" transform="translate(0.117188 0.207031)"></rect></clipPath></defs></svg>