<svg xmlns:xlink="http://www.w3.org/1999/xlink" width="93" height="40" viewBox="0 0 93 40" fill="none" xmlns="http://www.w3.org/2000/svg" class="text-[#1B1A1A]"><g clip-path="url(#clip0_1719_19069)" fill="none"><path d="M65.8329 0.160064C65.8966 0.175113 65.9591 0.194913 66.0235 0.204418C66.6122 0.291145 66.8997 0.56796 66.9842 1.14693C67.0119 1.33544 67.0279 1.52751 67.0279 1.71759C67.0303 7.26894 67.0339 12.8203 67.0263 18.3712C67.0247 19.5747 66.8276 20.7477 66.2898 21.8423C65.4889 23.4715 64.1386 24.4326 62.4098 24.9241C61.6045 25.153 60.7808 25.2599 59.945 25.2892C58.6528 25.334 57.3733 25.2504 56.1283 24.8786C53.7444 24.1665 52.3552 22.5694 51.9147 20.1679C51.8014 19.5494 51.7621 18.9122 51.7489 18.2821C51.7245 17.1222 51.7229 15.9611 51.7529 14.8015C51.7833 13.6483 51.992 12.5241 52.4929 11.4679C53.1145 10.1579 54.106 9.22723 55.4787 8.73538C57.3156 8.0772 59.193 8.00909 61.0795 8.51322C61.9605 8.74845 62.7162 9.20862 63.3076 9.90917C63.3329 9.93887 63.3457 9.97847 63.3641 10.0137C63.3861 10.003 63.4078 9.99233 63.4298 9.98204V9.7575C63.4298 7.0741 63.429 4.3907 63.4314 1.70769C63.4314 1.52394 63.4454 1.339 63.4718 1.15683C63.5595 0.553307 63.8447 0.282829 64.4606 0.20125C64.5182 0.193725 64.5747 0.173925 64.6316 0.159668C65.032 0.159668 65.4321 0.159668 65.8325 0.159668L65.8329 0.160064ZM55.351 16.7472C55.3586 16.7472 55.3658 16.7476 55.3734 16.748C55.3734 17.262 55.3566 17.7768 55.3786 18.29C55.3974 18.7296 55.4327 19.172 55.5084 19.6048C55.7034 20.7172 56.3301 21.4574 57.475 21.7061C58.7701 21.9872 60.0668 21.9932 61.3562 21.6756C62.351 21.4304 62.9869 20.8059 63.2223 19.8195C63.3241 19.3926 63.3982 18.951 63.4106 18.5138C63.4406 17.4865 63.4382 16.4577 63.4242 15.43C63.4178 14.9643 63.3805 14.495 63.3088 14.0349C63.1222 12.8385 62.4723 12.0322 61.2385 11.7633C59.9975 11.4928 58.7517 11.481 57.5127 11.7673C56.6837 11.9589 56.0206 12.3882 55.7214 13.2143C55.5813 13.6012 55.4663 14.0115 55.4331 14.4186C55.3702 15.1924 55.3746 15.9714 55.351 16.748V16.7472Z" fill="#1B1A1A"></path><path d="M76.0422 0.160156C76.5416 0.273021 76.8347 0.612406 77.0978 1.02505C78.65 3.46015 80.2157 5.88693 81.7819 8.31332C82.0799 8.77507 82.0827 9.21861 81.7855 9.67997C78.6532 14.5486 75.5224 19.418 72.3944 24.289C72.1257 24.7072 71.7577 24.9325 71.2547 24.9337C71.0213 24.9345 70.7874 24.9416 70.5547 24.9262C70.1183 24.8973 69.8932 24.464 70.1223 24.0874C70.3761 23.67 70.6457 23.2613 70.9087 22.8491C73.7756 18.3602 76.6417 13.8706 79.5121 9.38415C79.6907 9.10535 79.6959 8.86141 79.5157 8.58063C77.9283 6.10514 76.3481 3.62529 74.7651 1.14703C74.4784 0.698341 74.5421 0.428655 75.0014 0.160156H76.0422Z" fill="#1B1A1A"></path><path d="M91.6108 0.160156C92.0742 0.424695 92.1414 0.695173 91.8543 1.14505C88.7384 6.02514 85.6232 10.906 82.5041 15.7842C82.3371 16.0455 82.3379 16.2736 82.5049 16.5338C84.0811 18.9939 85.6521 21.4567 87.2206 23.9215C87.3035 24.0518 87.3836 24.2007 87.4044 24.3492C87.4473 24.6553 87.225 24.9087 86.9111 24.9234C86.5987 24.938 86.2824 24.9468 85.972 24.9147C85.5784 24.8739 85.288 24.6513 85.0754 24.3199C83.8844 22.461 82.6895 20.6045 81.4961 18.7471C81.078 18.0965 80.662 17.4446 80.2419 16.7952C79.958 16.3556 79.9548 15.9204 80.2387 15.4792C83.3771 10.5975 86.5158 5.71625 89.6482 0.83061C89.8732 0.479345 90.1796 0.271833 90.57 0.160156H91.6108Z" fill="#1B1A1A"></path><path d="M71.5587 0.160156C72.0581 0.273417 72.3508 0.614386 72.6123 1.02703C74.2878 3.67202 75.9782 6.3079 77.6617 8.94774C78.0894 9.61819 77.7089 10.4482 76.9196 10.5445C76.4871 10.5971 76.1424 10.4273 75.9037 10.0554C74.577 7.987 73.2483 5.9198 71.9203 3.85221C71.3385 2.94612 70.7562 2.04044 70.1736 1.13515C69.8848 0.685669 69.9593 0.409646 70.4379 0.160156H71.5587Z" fill="#1B1A1A"></path><path d="M87.0079 0.160156C87.484 0.398162 87.5625 0.683293 87.2742 1.13158C86.2666 2.69941 85.2595 4.26723 84.2508 5.83387C84.0081 6.21048 83.6513 6.38037 83.2104 6.31344C82.7715 6.24691 82.4735 5.98356 82.3526 5.55626C82.2701 5.26519 82.3158 4.98244 82.4815 4.72265C83.3281 3.39719 84.1743 2.07172 85.0196 0.745467C85.2239 0.425487 85.5322 0.259952 85.887 0.160156H87.0079Z" fill="#1B1A1A"></path><path d="M12.4447 10.4C12.7403 10.08 13.0074 9.74065 13.3253 9.45671C14.115 8.7522 15.0813 8.42192 16.1165 8.28847C17.5257 8.10669 18.9253 8.17837 20.2957 8.56924C22.3116 9.14465 23.5181 10.4812 23.9514 12.4894C24.0868 13.1163 24.1629 13.7673 24.1677 14.4081C24.1897 17.4142 24.1785 20.4208 24.1753 23.4273C24.1753 23.6305 24.1573 23.8356 24.1228 24.036C24.0367 24.537 23.7852 24.8249 23.2795 24.874C22.7252 24.9282 22.159 24.9492 21.606 24.9001C20.8996 24.8375 20.63 24.5096 20.5696 23.7968C20.5564 23.6396 20.552 23.4808 20.552 23.3228C20.5508 20.4152 20.5572 17.5077 20.5447 14.6006C20.5427 14.1626 20.4851 13.719 20.4002 13.2886C20.2332 12.4439 19.7094 11.9104 18.8544 11.7195C17.8977 11.5057 16.9346 11.4922 15.9812 11.7263C14.9604 11.9766 14.4234 12.6027 14.2812 13.6806C14.2324 14.0517 14.2039 14.4287 14.2031 14.8029C14.1967 17.6776 14.2007 20.5519 14.1975 23.4265C14.1975 23.6234 14.1819 23.8222 14.1499 24.0162C14.0638 24.5378 13.8147 24.8205 13.2817 24.8764C12.7615 24.931 12.2273 24.95 11.7079 24.8985C10.9979 24.828 10.7364 24.4914 10.6819 23.7414C10.6739 23.6297 10.6747 23.5172 10.6747 23.4052C10.6747 20.4845 10.6815 17.5639 10.6671 14.6433C10.6647 14.1733 10.6014 13.6965 10.5045 13.2351C10.3327 12.4149 9.80453 11.9088 8.97639 11.7207C8.06015 11.5124 7.1359 11.4978 6.21925 11.6918C5.10879 11.9267 4.587 12.5072 4.43402 13.6378C4.38477 14.0022 4.35673 14.3724 4.35593 14.7403C4.34993 17.6348 4.35353 20.5289 4.35033 23.4234C4.35033 23.6202 4.33351 23.8186 4.30267 24.013C4.22218 24.5243 3.9759 24.8205 3.45651 24.8712C2.87705 24.9274 2.28398 24.9393 1.70492 24.8851C1.08301 24.8269 0.841537 24.5326 0.757842 23.92C0.735416 23.7572 0.722201 23.5917 0.722201 23.4277C0.720199 20.4279 0.714593 17.4281 0.724203 14.4283C0.727007 13.5155 0.858356 12.6173 1.17752 11.7528C1.70652 10.32 2.68163 9.29791 4.12327 8.76725C5.9918 8.07937 7.91038 7.99581 9.83777 8.51221C10.9098 8.79933 11.7748 9.40404 12.3907 10.3331C12.4111 10.364 12.4371 10.3917 12.4439 10.4004L12.4447 10.4Z" fill="#1B1A1A"></path><path d="M49.0751 18.8023C49.0751 20.3452 49.0771 21.8881 49.0727 23.4309C49.0723 23.6341 49.0551 23.8396 49.0191 24.0396C48.927 24.5521 48.6799 24.8265 48.1533 24.8776C47.6059 24.9306 47.046 24.95 46.4994 24.9001C45.7938 24.8352 45.5231 24.5041 45.4662 23.7937C45.4542 23.6428 45.4494 23.4907 45.4494 23.3395C45.4486 20.4382 45.4522 17.537 45.4442 14.6358C45.443 14.2758 45.4026 13.9119 45.3409 13.5563C45.1747 12.6047 44.6205 11.9881 43.6582 11.7667C42.4244 11.4831 41.1862 11.4891 39.9516 11.7635C38.8904 11.9996 38.3618 12.7092 38.2168 13.7345C38.1743 14.0335 38.1507 14.338 38.1503 14.6398C38.1455 17.5212 38.1487 20.4026 38.1451 23.284C38.1451 23.5204 38.1291 23.7588 38.0939 23.9925C38.0102 24.5425 37.7647 24.8249 37.2076 24.8776C36.6474 24.931 36.0736 24.9457 35.5153 24.8879C34.851 24.8194 34.5987 24.5037 34.539 23.842C34.5182 23.6127 34.5066 23.3814 34.5066 23.1513C34.5046 20.3226 34.5014 17.4939 34.5074 14.6655C34.5094 13.7531 34.6071 12.8502 34.913 11.9813C35.5261 10.2401 36.7816 9.172 38.532 8.6354C39.8607 8.2283 41.2278 8.15543 42.6074 8.22275C43.5901 8.27067 44.5544 8.41324 45.4879 8.73599C47.2699 9.35179 48.3603 10.581 48.8205 12.377C48.9947 13.0573 49.0743 13.7495 49.0747 14.4509C49.0759 15.9015 49.0747 17.3521 49.0747 18.8027L49.0751 18.8023Z" fill="#1B1A1A"></path><path d="M31.1657 16.6753C31.1657 18.9163 31.1677 21.1574 31.1629 23.3984C31.1625 23.6206 31.1313 23.8447 31.0964 24.0649C31.0199 24.5516 30.7184 24.8478 30.2318 24.8795C29.65 24.9175 29.0593 24.9338 28.4802 24.8795C27.9048 24.8253 27.6685 24.5449 27.578 23.9849C27.5496 23.8099 27.5336 23.6313 27.5332 23.4539C27.5308 18.9389 27.53 14.4239 27.5348 9.90895C27.5348 9.67411 27.5704 9.43571 27.6201 9.20523C27.7014 8.82941 27.9436 8.58705 28.3273 8.51022C28.9872 8.37796 29.652 8.38667 30.3135 8.49676C30.8213 8.58151 31.0536 8.92762 31.1208 9.40165C31.1477 9.59016 31.1633 9.78183 31.1637 9.97231C31.1665 12.2066 31.1657 14.441 31.1657 16.6757V16.6753Z" fill="#1B1A1A"></path><path d="M45.6465 37.1047C44.9381 36.4501 45.1039 35.7998 46.0846 35.3223C46.0574 35.2993 46.0382 35.2779 46.0141 35.264C45.4891 34.9603 45.2437 34.4894 45.2256 33.9069C45.216 33.594 45.2172 33.2673 45.2953 32.9679C45.4968 32.1965 46.089 31.829 46.8291 31.6666C47.4422 31.532 48.0577 31.5375 48.6676 31.7134C48.7296 31.7312 48.8261 31.7098 48.8778 31.6702C49.088 31.5086 49.2839 31.3288 49.4913 31.1629C49.712 30.9867 49.8289 30.9938 50.0323 31.1779C50.4532 31.5597 50.4556 31.6322 50.0628 32.0472C49.9494 32.1668 49.8369 32.2868 49.7176 32.4139C50.2333 32.9731 50.2029 33.6328 50.0776 34.2894C49.9366 35.0276 49.3467 35.5191 48.4914 35.6339C48.0705 35.6905 47.642 35.6894 47.2167 35.7167C47.0441 35.7278 46.8711 35.7373 46.7001 35.7598C46.5275 35.7828 46.3906 35.8676 46.3806 36.0565C46.3697 36.2596 46.5287 36.3269 46.6905 36.357C46.8599 36.3887 47.0345 36.4022 47.2071 36.405C47.8731 36.4156 48.541 36.4006 49.1946 36.5606C49.9502 36.7459 50.2934 37.176 50.289 37.9478C50.2878 38.17 50.2746 38.3973 50.2265 38.6131C50.0752 39.2919 49.563 39.56 48.9319 39.6705C48.7693 39.699 48.6015 39.7113 48.4361 39.7093C47.7637 39.7026 47.0906 39.701 46.419 39.6677C46.2064 39.657 45.9897 39.5739 45.7903 39.4887C45.3202 39.2883 45.1055 38.903 45.0663 38.4147C45.0234 37.8837 45.1524 37.4192 45.6473 37.1047H45.6465ZM47.6788 34.7385C47.6804 34.727 47.6824 34.7156 47.684 34.7041C47.7906 34.7041 47.8979 34.71 48.004 34.7029C48.5855 34.6645 48.9022 34.4047 48.9731 33.8926C48.9955 33.7307 48.9947 33.562 48.9767 33.3996C48.9319 32.9953 48.7028 32.7375 48.3027 32.6365C47.9227 32.5402 47.5383 32.5339 47.155 32.6234C46.3882 32.8028 46.065 33.7667 46.5796 34.3667C46.6737 34.476 46.8175 34.5686 46.9564 34.6094C47.1895 34.6775 47.437 34.6981 47.678 34.7385H47.6788ZM47.7069 38.8298C47.9904 38.7965 48.3244 38.7783 48.6487 38.7129C48.9991 38.6424 49.1537 38.3989 49.1389 38.0266C49.1249 37.6714 48.9903 37.5229 48.6119 37.4492C48.5338 37.4342 48.4545 37.4219 48.3752 37.4184C47.8234 37.3946 47.2716 37.3716 46.7193 37.3546C46.6581 37.3526 46.5884 37.3792 46.5347 37.4116C46.2909 37.5597 46.1655 37.9059 46.2292 38.2334C46.2889 38.5375 46.4434 38.6892 46.7838 38.7375C47.073 38.7787 47.3657 38.7965 47.7069 38.8294V38.8298Z" fill="#1B1A1A"></path><path d="M90.9773 24.9435C90.7847 24.9328 90.5881 24.9419 90.3999 24.9071C90.0187 24.837 89.7447 24.612 89.5385 24.2877C88.2839 22.3139 87.024 20.3438 85.7658 18.372C85.2825 17.6144 84.7955 16.8596 84.3166 16.0993C84.0399 15.6597 84.1504 15.0886 84.5616 14.7679C84.9729 14.4467 85.5848 14.4796 85.9484 14.8455C86.0037 14.9013 86.0505 14.9671 86.093 15.0332C88.0088 18.0116 89.9237 20.9909 91.8391 23.9693C91.9516 24.1443 92.0518 24.3194 91.9769 24.5411C91.902 24.7633 91.7354 24.909 91.4971 24.9241C91.3245 24.9352 91.1507 24.9261 90.9773 24.9261C90.9773 24.9316 90.9773 24.9372 90.9769 24.9427L90.9773 24.9435Z" fill="#1B1A1A"></path><path d="M72.2884 32.2277C72.3272 32.2134 72.3497 32.2122 72.3609 32.2004C72.9247 31.6048 73.6531 31.5489 74.4096 31.5949C74.5482 31.6032 74.6871 31.6321 74.8217 31.6673C75.5437 31.8574 76.0395 32.3932 76.0615 33.1393C76.0987 34.4038 76.0815 35.6699 76.0759 36.9351C76.0747 37.1985 75.9706 37.2805 75.7035 37.2975C75.5973 37.3042 75.49 37.3026 75.3835 37.2999C75.0419 37.2919 74.9326 37.1842 74.9318 36.8401C74.9298 35.818 74.9326 34.7962 74.929 33.7741C74.9286 33.624 74.917 33.4704 74.8845 33.3243C74.8213 33.0415 74.6491 32.8403 74.3659 32.7465C73.9142 32.5968 73.4589 32.5996 73.0136 32.7576C72.5507 32.9215 72.3344 33.2926 72.316 33.7496C72.2824 34.5788 72.2876 35.4097 72.2776 36.2401C72.2748 36.4773 72.2756 36.7149 72.2748 36.9522C72.274 37.1466 72.1763 37.2694 71.9816 37.2868C71.8034 37.3026 71.6216 37.3003 71.443 37.2884C71.2688 37.2773 71.1643 37.1743 71.1423 36.9997C71.1343 36.9347 71.1295 36.8686 71.1295 36.8029C71.1287 34.5016 71.1287 32.2008 71.1299 29.8995C71.1299 29.8215 71.1419 29.7427 71.1527 29.6651C71.1767 29.4932 71.29 29.4152 71.4542 29.4061C71.6004 29.3982 71.7478 29.3966 71.8939 29.4025C72.1795 29.414 72.274 29.5079 72.2756 29.793C72.2796 30.5316 72.2768 31.2697 72.278 32.0083C72.278 32.0772 72.2844 32.1465 72.2884 32.2269V32.2277Z" fill="#1B1A1A"></path><path d="M18.6754 32.235C18.8681 32.0933 19.0202 31.9535 19.196 31.8564C19.705 31.5757 20.2637 31.5329 20.8259 31.6054C21.0982 31.6406 21.3797 31.7143 21.6232 31.8366C22.2203 32.136 22.4577 32.6809 22.4694 33.3051C22.4922 34.5042 22.479 35.7041 22.4758 36.9037C22.475 37.1749 22.3745 37.2775 22.107 37.2957C21.9544 37.306 21.799 37.3072 21.6476 37.2906C21.431 37.2668 21.3493 37.1702 21.3337 36.952C21.3273 36.8601 21.3269 36.7674 21.3269 36.6752C21.3265 35.6998 21.3293 34.724 21.3237 33.7486C21.3229 33.5926 21.296 33.4342 21.2596 33.2821C21.1923 33.0037 21.0069 32.8215 20.7326 32.7372C20.2729 32.5962 19.8087 32.5942 19.3626 32.7748C18.8084 32.9993 18.6867 33.4864 18.6791 34.0084C18.6662 34.8848 18.6754 35.7616 18.6754 36.6383C18.6754 37.2605 18.6218 37.3123 17.9903 37.3005C17.6251 37.2933 17.5253 37.2019 17.5249 36.8403C17.5229 34.507 17.5229 32.1737 17.5249 29.8403C17.5249 29.4974 17.6182 29.4107 17.9638 29.3988C18.6222 29.3758 18.675 29.4257 18.675 30.07C18.675 30.7813 18.675 31.4925 18.675 32.2346L18.6754 32.235Z" fill="#1B1A1A"></path><path d="M62.3138 37.4574C61.691 37.4317 61.0864 37.3481 60.4961 37.1699C60.0956 37.0492 60.0356 36.9624 60.0352 36.547C60.0344 35.9716 60.0808 35.9395 60.6439 36.0928C61.4688 36.3169 62.3037 36.4092 63.1531 36.2512C63.4715 36.1922 63.739 36.0571 63.8167 35.7086C63.8968 35.3491 63.7846 35.0457 63.4787 34.8445C62.9409 34.4909 62.385 34.1646 61.8432 33.8161C61.4592 33.569 61.0479 33.3452 60.7163 33.0395C60.1141 32.4839 59.9955 31.7667 60.2242 31.0028C60.4124 30.3735 60.9238 30.0892 61.5265 29.9684C62.4619 29.7811 63.3942 29.8132 64.3084 30.107C64.6636 30.2211 64.7157 30.2919 64.7225 30.6606C64.7245 30.779 64.7181 30.8978 64.7057 31.0155C64.6845 31.2182 64.6156 31.2673 64.4141 31.2257C64.0369 31.1481 63.6629 31.023 63.2829 30.9996C62.8087 30.9711 62.3198 30.9735 61.8548 31.0578C61.3098 31.1568 61.156 31.7885 61.5509 32.1778C61.6906 32.3156 61.8604 32.4277 62.029 32.5318C62.6109 32.8918 63.2008 33.2391 63.7826 33.5991C63.9797 33.721 64.1667 33.8608 64.3509 34.0018C65.1121 34.5863 65.191 35.5281 64.9323 36.2385C64.7041 36.8654 64.1763 37.1596 63.5568 37.2907C63.1491 37.3771 62.7286 37.4028 62.3138 37.4559V37.4574Z" fill="#1B1A1A"></path><path d="M53.935 37.3504C53.627 37.3504 53.3351 37.3722 53.0476 37.3445C52.7424 37.3148 52.5049 37.1346 52.3876 36.8586C52.2362 36.5029 52.1013 36.1366 52.0016 35.7636C51.6876 34.5874 51.3933 33.4065 51.0913 32.2272C51.0897 32.2208 51.0857 32.2149 51.0841 32.2086C50.9856 31.8113 51.0705 31.7028 51.483 31.7009C51.5362 31.7009 51.5899 31.7005 51.6432 31.7009C52.0272 31.7048 52.1618 31.7975 52.2543 32.1638C52.565 33.395 52.869 34.6278 53.1757 35.8598C53.2734 36.2519 53.4096 36.3921 53.7039 36.4075C54.0471 36.4257 54.2161 36.3208 54.3078 35.9905C54.4151 35.604 54.4992 35.2111 54.5921 34.8207C54.8036 33.9312 55.0122 33.041 55.2268 32.1523C55.3129 31.7963 55.4327 31.706 55.7995 31.702C55.932 31.7009 56.0654 31.7104 56.1975 31.7207C56.3749 31.7345 56.439 31.8391 56.4158 32.005C56.4058 32.0763 56.3938 32.148 56.377 32.2181C55.9509 33.9764 55.5288 35.7351 55.0947 37.4914C54.9461 38.0922 54.7026 38.6521 54.2573 39.1075C53.748 39.6279 53.1188 39.7827 52.4124 39.7095C52.3872 39.7067 52.344 39.7016 52.3404 39.6885C52.2735 39.4596 52.1766 39.2319 52.159 38.9986C52.1449 38.8145 52.3576 38.8125 52.4937 38.788C53.265 38.6489 53.7832 38.1417 53.935 37.3504Z" fill="#1B1A1A"></path><path d="M7.64709 34.924C7.52696 35.7774 7.95625 36.2673 8.83004 36.3283C9.5012 36.375 10.1596 36.3104 10.8127 36.1592C11.1134 36.0895 11.2152 36.1722 11.2264 36.4815C11.2488 37.0847 11.2156 37.1433 10.6253 37.2763C9.74989 37.4735 8.86969 37.4949 7.99469 37.2696C7.18737 37.0617 6.67439 36.5512 6.54384 35.7374C6.41289 34.9224 6.39968 34.0916 6.54985 33.2789C6.72885 32.3103 7.33714 31.7765 8.33588 31.626C8.86688 31.546 9.39789 31.5492 9.92208 31.6901C10.769 31.9178 11.3145 32.5487 11.3841 33.4152C11.411 33.7482 11.4018 34.0848 11.3894 34.4195C11.3753 34.8032 11.2428 34.9216 10.8547 34.9224C9.86762 34.9244 8.8805 34.9232 7.89378 34.9232H7.6479L7.64709 34.924ZM10.3245 33.9926C10.3245 33.8476 10.3261 33.7308 10.3245 33.6136C10.3157 33.117 10.0382 32.7594 9.55406 32.6366C9.40029 32.5978 9.23971 32.5673 9.08193 32.5649C8.19812 32.5499 7.59423 32.8295 7.62227 33.8227C7.62587 33.9486 7.66111 33.9989 7.79366 33.9945C8.03994 33.9866 8.28662 33.9926 8.5333 33.9926C9.11877 33.9926 9.70423 33.9926 10.3253 33.9926H10.3245Z" fill="#1B1A1A"></path><path d="M44.1988 34.5525C44.1728 34.9026 44.1824 35.3097 44.1055 35.7001C43.9173 36.6569 43.2713 37.2581 42.2794 37.3642C41.7692 37.4188 41.237 37.4192 40.7316 37.3392C39.6869 37.1733 39.1575 36.6367 39.0025 35.6027C38.8916 34.8602 38.8835 34.1026 39.0161 33.3593C39.1979 32.338 39.8587 31.7511 40.9086 31.622C41.4885 31.5507 42.0652 31.5558 42.6342 31.7004C43.488 31.9174 44.0246 32.513 44.1267 33.3783C44.1704 33.7498 44.1744 34.126 44.1992 34.5525H44.1988ZM40.0909 34.4864C40.1029 34.4864 40.1149 34.4871 40.1266 34.4875C40.1266 34.7509 40.1157 35.015 40.129 35.2776C40.1554 35.815 40.4165 36.1829 40.9094 36.2649C41.2975 36.3294 41.7048 36.3298 42.0988 36.2997C42.5625 36.2645 42.8917 36.0039 42.9618 35.5314C43.0655 34.8321 43.0779 34.1272 42.9482 33.4286C42.8757 33.0389 42.6174 32.808 42.2325 32.717C41.8385 32.6239 41.4413 32.6219 41.042 32.688C40.5362 32.772 40.2183 33.0484 40.1558 33.5624C40.1185 33.8686 40.1117 34.1786 40.0909 34.4867V34.4864Z" fill="#1B1A1A"></path><path d="M83.4766 34.4537C83.4994 34.1131 83.4874 33.7191 83.5587 33.3409C83.7485 32.3307 84.4056 31.7283 85.45 31.6317C85.9418 31.5862 86.4515 31.5877 86.9389 31.6614C87.9448 31.8135 88.5119 32.3263 88.6424 33.3215C88.7426 34.083 88.7438 34.8774 88.646 35.6394C88.5175 36.6409 87.8672 37.2044 86.8428 37.3692C86.2405 37.4658 85.635 37.4559 85.0395 37.3007C84.1585 37.0714 83.6259 36.4599 83.5386 35.5657C83.5042 35.2129 83.4982 34.8568 83.477 34.4537H83.4766ZM87.5396 34.4969C87.5396 34.2137 87.5568 33.9294 87.536 33.6474C87.4963 33.114 87.2312 32.7936 86.7014 32.7128C86.3382 32.6574 85.9582 32.657 85.5918 32.6934C85.116 32.7405 84.7812 33.0075 84.7096 33.4965C84.6095 34.1765 84.599 34.8616 84.7204 35.5408C84.7945 35.957 85.0692 36.2239 85.4812 36.2746C85.8793 36.3237 86.2934 36.3348 86.6902 36.2845C87.2368 36.2152 87.4991 35.896 87.5376 35.3459C87.5572 35.064 87.5412 34.7796 87.5404 34.4965L87.5396 34.4969Z" fill="#1B1A1A"></path><path d="M29.8242 34.46C29.8498 34.0996 29.8398 33.6862 29.9159 33.2886C30.0905 32.3734 30.6784 31.8316 31.6131 31.6574C32.2566 31.5374 32.8989 31.5413 33.5336 31.7029C34.3598 31.9128 34.8499 32.4494 34.9965 33.2731C35.1299 34.0236 35.1226 34.7851 35.0269 35.5367C34.8984 36.5454 34.2981 37.1457 33.2745 37.3477C32.6394 37.4732 32.0023 37.457 31.3744 37.297C30.5258 37.0804 30.0024 36.4951 29.8967 35.6306C29.8514 35.2591 29.8494 34.8829 29.8246 34.46H29.8242ZM33.896 34.5194C33.896 34.5194 33.8964 34.5194 33.8968 34.5194C33.8968 34.2624 33.9053 34.0053 33.8952 33.7487C33.8736 33.1919 33.6133 32.8395 33.1316 32.7187C32.7319 32.6185 32.3255 32.6106 31.9222 32.691C31.3471 32.8058 31.0913 33.0498 31.0396 33.6287C30.9915 34.1649 30.9807 34.7095 31.0168 35.2465C31.0588 35.8726 31.3011 36.1874 31.8053 36.2682C32.1937 36.3303 32.6046 36.343 32.9938 36.2915C33.5997 36.2115 33.8672 35.8733 33.894 35.2698C33.9053 35.0199 33.896 34.7693 33.896 34.519V34.5194Z" fill="#1B1A1A"></path><path d="M77.2148 34.4124C77.2457 34.0722 77.2481 33.6275 77.3326 33.1986C77.4868 32.4153 77.9961 31.9246 78.767 31.7139C79.4458 31.5286 80.1362 31.5294 80.8229 31.6775C81.782 31.8846 82.3275 32.5004 82.4112 33.4417C82.4752 34.1649 82.4784 34.9074 82.3875 35.6262C82.2606 36.6297 81.5742 37.232 80.5546 37.3738C79.964 37.4558 79.3733 37.4514 78.7906 37.3029C77.9321 37.0843 77.4119 36.5263 77.2929 35.6551C77.2417 35.2785 77.2433 34.8947 77.2148 34.4124ZM81.2915 34.5126C81.2915 34.5126 81.2907 34.5126 81.2903 34.5126C81.2903 34.2556 81.3007 33.9977 81.2883 33.7415C81.259 33.1372 80.9863 32.7883 80.3989 32.6992C80.0429 32.6454 79.6652 32.6489 79.3088 32.7024C78.7354 32.7883 78.4867 33.0437 78.4346 33.6172C78.385 34.1661 78.3866 34.7229 78.411 35.2745C78.4326 35.7648 78.6473 36.1774 79.1859 36.2653C79.5683 36.3279 79.9724 36.3505 80.3552 36.3022C80.9955 36.2214 81.2691 35.8717 81.2903 35.2246C81.2983 34.9874 81.2915 34.7502 81.2915 34.5126Z" fill="#1B1A1A"></path><path d="M29.3726 6.46158C28.1332 6.46594 27.1397 5.50877 27.1328 4.3033C27.1264 3.12436 28.1328 2.13194 29.3414 2.126C30.5499 2.12006 31.5615 3.1002 31.5675 4.2827C31.5735 5.47986 30.5892 6.45683 29.3726 6.46118V6.46158Z" fill="#1B1A1A"></path><path d="M28.7016 35.1189C28.7016 35.6725 28.7052 36.2265 28.7004 36.7802C28.6968 37.2146 28.6071 37.2982 28.1698 37.3005C27.6071 37.3033 27.5383 37.2356 27.5383 36.678C27.5383 35.709 27.5391 34.7399 27.5375 33.7709C27.5375 33.6592 27.5338 33.5463 27.517 33.4362C27.453 33.0256 27.2183 32.7776 26.7982 32.6981C26.393 32.6212 25.9901 32.6181 25.5892 32.7119C25.1744 32.8089 24.9561 33.0663 24.9173 33.4901C24.9057 33.6144 24.9001 33.74 24.9001 33.8651C24.8985 34.8274 24.9021 35.7901 24.8977 36.7525C24.8957 37.219 24.8104 37.299 24.3534 37.3005C23.804 37.3025 23.7351 37.234 23.7351 36.6867C23.7351 35.6979 23.7323 34.709 23.7375 33.7202C23.7383 33.5368 23.7584 33.3515 23.792 33.1709C23.9482 32.3369 24.4768 31.8537 25.2949 31.6736C25.9541 31.5286 26.6184 31.5346 27.2756 31.6977C28.1241 31.908 28.6399 32.5147 28.6751 33.3796C28.6988 33.9586 28.6796 34.5391 28.6796 35.1189C28.6868 35.1189 28.694 35.1189 28.7008 35.1189H28.7016Z" fill="#1B1A1A"></path><path d="M75.6274 24.9326C75.4808 24.9326 75.3339 24.9389 75.1877 24.9314C74.7003 24.9064 74.4653 24.4688 74.7232 24.0605C75.0828 23.4911 75.45 22.926 75.8144 22.3593C76.4752 21.3312 77.1351 20.3031 77.7975 19.2763C78.069 18.8549 78.5151 18.6823 78.9876 18.8086C79.4145 18.9226 79.7321 19.3028 79.7349 19.7717C79.7361 19.9657 79.6804 20.1863 79.5779 20.3503C78.7373 21.694 77.882 23.0285 77.0258 24.3627C76.8011 24.7124 76.4707 24.9052 76.0475 24.9254C75.9081 24.9322 75.7679 24.9266 75.6278 24.9266C75.6278 24.929 75.6278 24.931 75.6278 24.9334L75.6274 24.9326Z" fill="#1B1A1A"></path><path d="M3.03958 31.0567C2.93106 31.0567 2.85297 31.0567 2.77448 31.0567C2.24107 31.0563 1.70726 31.0603 1.17386 31.0536C0.847085 31.0496 0.757783 30.9554 0.748973 30.6409C0.730953 30.0069 0.779408 29.9582 1.42895 29.9582C2.92945 29.9582 4.42996 29.9578 5.93047 29.9582C6.45827 29.9582 6.52955 30.0307 6.52474 30.553C6.52074 30.97 6.44065 31.0536 6.02377 31.0559C5.50358 31.0591 4.98339 31.0635 4.4632 31.0532C4.28059 31.0496 4.22373 31.1027 4.22413 31.2868C4.23053 33.0863 4.22773 34.8858 4.22773 36.6853C4.22773 36.7578 4.22933 36.8302 4.22653 36.9027C4.21572 37.1847 4.12361 37.2864 3.84089 37.2963C3.66229 37.3027 3.48208 37.2908 3.30388 37.2738C3.16973 37.2607 3.08803 37.176 3.07041 37.0413C3.0568 36.9372 3.04038 36.8326 3.04038 36.7281C3.03838 34.9286 3.03918 33.1291 3.03918 31.3296V31.0571L3.03958 31.0567Z" fill="#1B1A1A"></path><path d="M13.6218 34.499C13.6218 34.7362 13.6082 34.9742 13.6242 35.2106C13.6755 35.9492 14.0251 36.3016 14.7783 36.3203C15.2212 36.3313 15.6665 36.2779 16.1094 36.2395C16.4478 36.2102 16.5115 36.2525 16.5295 36.5884C16.5339 36.6672 16.5331 36.7468 16.5267 36.8256C16.5039 37.1111 16.4258 37.22 16.1515 37.2893C15.3518 37.4913 14.5525 37.4881 13.7712 37.2133C13.0728 36.9677 12.6491 36.4652 12.523 35.7452C12.3856 34.9611 12.3872 34.1647 12.5033 33.3826C12.6523 32.3803 13.4104 31.7376 14.4572 31.6184C14.9858 31.5582 15.5072 31.5625 16.0233 31.7015C16.3421 31.7875 16.4214 31.8869 16.429 32.2179C16.4306 32.2904 16.4306 32.3629 16.4286 32.4353C16.4182 32.7747 16.3085 32.8555 15.9713 32.7593C15.4811 32.6195 14.9874 32.6029 14.4892 32.7058C13.9354 32.8203 13.6607 33.1272 13.6282 33.6883C13.6126 33.9576 13.6254 34.2285 13.6254 34.4986C13.6238 34.4986 13.6222 34.4986 13.621 34.4986L13.6218 34.499Z" fill="#1B1A1A"></path><path d="M66.0317 34.4927C66.0653 34.0801 66.0605 33.6603 66.141 33.2567C66.3232 32.3443 67.0648 31.7376 68.0572 31.6192C68.5918 31.5555 69.12 31.5606 69.6418 31.7024C69.9617 31.7895 70.0282 31.8743 70.0334 32.2033C70.035 32.2956 70.0358 32.3879 70.0322 32.4802C70.021 32.7653 69.9165 32.8405 69.6341 32.7807C69.4075 32.7328 69.1788 32.6631 68.9502 32.6592C68.6334 32.6532 68.3106 32.6718 68.0003 32.7308C67.5778 32.8112 67.3027 33.096 67.2723 33.5169C67.229 34.1193 67.1998 34.7295 67.2482 35.3299C67.3019 35.996 67.6803 36.3041 68.3903 36.3203C68.8328 36.3302 69.2781 36.2791 69.7206 36.2391C70.0658 36.2082 70.1403 36.2617 70.1439 36.6043C70.1447 36.6898 70.1491 36.7761 70.1423 36.8613C70.1263 37.0533 70.0462 37.2034 69.8436 37.2597C68.9229 37.5147 68.0095 37.5143 67.1361 37.1013C66.4369 36.7706 66.1442 36.1552 66.0845 35.4229C66.0593 35.1156 66.0805 34.8044 66.0805 34.4951C66.0641 34.4943 66.0477 34.4935 66.0312 34.4931L66.0317 34.4927Z" fill="#1B1A1A"></path><path d="M36.2284 32.8467C36.2284 31.8709 36.2284 30.8951 36.2284 29.9193C36.2284 29.4869 36.3152 29.4017 36.7558 29.3978C37.334 29.3926 37.3917 29.4492 37.3917 30.0298C37.3917 31.823 37.3917 33.6165 37.3925 35.4097C37.3925 35.5479 37.3961 35.6873 37.4137 35.8239C37.4561 36.1518 37.6219 36.2999 37.9535 36.3205C38.3323 36.3439 38.366 36.3795 38.3676 36.7589C38.37 37.2583 38.2374 37.3878 37.7269 37.3862C36.7802 37.3838 36.2332 36.806 36.2288 35.7934C36.2243 34.8109 36.228 33.8288 36.228 32.8463L36.2284 32.8467Z" fill="#1B1A1A"></path><path d="M89.8754 32.8644C89.8754 31.9021 89.875 30.9397 89.8762 29.977C89.8762 29.8784 89.8866 29.7798 89.8934 29.6816C89.905 29.5169 90.0084 29.425 90.1613 29.4123C90.3531 29.3965 90.5482 29.3981 90.7404 29.4111C90.8862 29.421 90.9883 29.5042 91.0055 29.6598C91.0187 29.7774 91.0375 29.8951 91.0375 30.0127C91.0395 31.845 91.0387 33.6778 91.0391 35.5102C91.0391 35.6024 91.0363 35.6955 91.0471 35.7866C91.0924 36.1584 91.2562 36.3046 91.6362 36.3204C91.9514 36.3335 91.9986 36.3826 92.0022 36.701C92.0086 37.2756 91.8745 37.4035 91.2854 37.3845C90.4801 37.3588 89.9251 36.8626 89.9022 36.0662C89.8714 34.9993 89.8946 33.9312 89.8946 32.8636C89.8882 32.8636 89.8814 32.8636 89.875 32.8636L89.8754 32.8644Z" fill="#1B1A1A"></path></g><defs><clipPath id="clip0_1719_19069"><rect width="91.3087" height="39.5671" fill="white" transform="translate(0.71875 0.160156)"></rect></clipPath></defs></svg>